<?xml version="1.0" standalone="no"?><!DOCTYPE svg PUBLIC "-//W3C//DTD SVG 1.1//EN"
    "http://www.w3.org/Graphics/SVG/1.1/DTD/svg11.dtd">
<svg class="icon" width="200px" height="200.00px" viewBox="0 0 1024 1024" version="1.1"
    xmlns="http://www.w3.org/2000/svg">
    <path
        d="M321.28 719.36c-131.84 0-138.24-3.84-143.36-5.12-14.08-6.4-19.2-16.64-20.48-23.04-3.84-19.2 10.24-37.12 29.44-60.16 17.92-21.76 40.96-48.64 53.76-83.2 12.8-32 16.64-76.8 20.48-122.88 11.52-128 24.32-285.44 227.84-294.4h44.8c203.52 10.24 216.32 167.68 227.84 294.4 3.84 47.36 7.68 90.88 20.48 122.88 12.8 34.56 35.84 61.44 53.76 83.2 20.48 24.32 34.56 40.96 29.44 60.16-1.28 6.4-6.4 16.64-20.48 23.04-5.12 2.56-17.92 8.96-334.08 3.84-81.92 0-143.36 1.28-189.44 1.28zM512 679.68c131.84 1.28 280.32 2.56 314.88 0-3.84-6.4-12.8-16.64-19.2-24.32-19.2-23.04-44.8-53.76-60.16-93.44-14.08-37.12-17.92-84.48-23.04-134.4C712.96 298.24 701.44 166.4 514.56 166.4h-5.12c-186.88 0-197.12 133.12-208.64 259.84-3.84 49.92-7.68 96-23.04 134.4-15.36 39.68-40.96 71.68-60.16 93.44-6.4 7.68-15.36 17.92-19.2 24.32 34.56 2.56 181.76 2.56 313.6 1.28z" />
    <path
        d="M584.96 166.4c-10.24 0-19.2-8.96-19.2-19.2 0-29.44-24.32-53.76-53.76-53.76s-53.76 24.32-53.76 53.76c0 10.24-8.96 19.2-19.2 19.2s-19.2-8.96-19.2-19.2c0-51.2 40.96-92.16 92.16-92.16s92.16 40.96 92.16 92.16c0 10.24-8.96 19.2-19.2 19.2zM512 866.56c-85.76 0-154.88-69.12-154.88-154.88 0-10.24 8.96-19.2 19.2-19.2s19.2 8.96 19.2 19.2c0 64 52.48 116.48 116.48 116.48s116.48-52.48 116.48-116.48c0-10.24 8.96-19.2 19.2-19.2s19.2 8.96 19.2 19.2c0 85.76-69.12 154.88-154.88 154.88z" />
</svg>