<?xml version="1.0" standalone="no"?><!DOCTYPE svg PUBLIC "-//W3C//DTD SVG 1.1//EN" "http://www.w3.org/Graphics/SVG/1.1/DTD/svg11.dtd"><svg class="icon" width="200px" height="200.00px" viewBox="0 0 1024 1024" version="1.1" xmlns="http://www.w3.org/2000/svg"><path d="M-0.031308 0h1022.945088v1022.945088h-1022.945088z" fill="#CCCCCC" fill-opacity="0" /><path d="M511.441236 978.19124c-124.671433 0-239.752755-47.950551-329.26045-134.261543-86.310992-86.310992-137.458246-204.589018-137.458246-329.26045 0-255.736272 207.785721-463.521993 463.521993-463.521993s463.521993 207.785721 463.521993 463.521993-204.589018 463.521993-460.32529 463.521993z m0-866.306621c-220.572535 0-399.587925 179.01539-399.587925 399.587925 0 105.491212 41.557144 207.785721 118.278026 284.506603 76.720882 76.720882 175.818687 118.278026 281.309899 118.278025 220.572535 0 399.587925-179.01539 399.587925-399.587925s-179.01539-402.784628-399.587925-402.784628z" fill="#111111" /><path d="M303.655515 479.50551h415.571442v63.934068h-415.571442z" fill="#111111" /><path d="M479.474202 303.686823h63.934068v415.571442h-63.934068z" fill="#111111" /></svg>