<?xml version="1.0" standalone="no"?><!DOCTYPE svg PUBLIC "-//W3C//DTD SVG 1.1//EN" "http://www.w3.org/Graphics/SVG/1.1/DTD/svg11.dtd"><svg class="icon" width="200px" height="200.00px" viewBox="0 0 1024 1024" version="1.1" xmlns="http://www.w3.org/2000/svg"><path d="M0 0h1024v1024H0z" fill="#FFFFFF" fill-opacity="0" /><path d="M713.568 732.608h-192c-115.2 0-211.2-96-211.2-211.2 0-115.2 96-211.2 211.2-211.2h192v422.4z m-192-326.4c-64 0-115.2 51.2-115.2 115.2s51.2 115.2 115.2 115.2h96v-230.4h-96z" fill="#FFFFFF" /><path d="M755.168 988.608h-265.6c-256 0-464-208-464-464v-22.4c0-268.8 217.6-489.6 486.4-489.6 268.8 0 486.4 220.8 486.4 489.6 0 64-12.8 128-38.4 188.8l-6.4 12.8c-6.4 16-25.6 28.8-44.8 28.8h-387.2c-25.6 0-48-22.4-48-48s22.4-48 48-48h358.4c16-41.6 25.6-89.6 25.6-134.4-3.2-217.6-179.2-393.6-393.6-393.6-214.4 0-390.4 176-390.4 393.6v22.4c0 201.6 163.2 368 368 368h265.6c25.6 0 48 22.4 48 48s-22.4 48-48 48z" fill="#FFFFFF" /></svg>