<?xml version="1.0" standalone="no"?><!DOCTYPE svg PUBLIC "-//W3C//DTD SVG 1.1//EN" "http://www.w3.org/Graphics/SVG/1.1/DTD/svg11.dtd"><svg class="icon" width="200px" height="200.00px" viewBox="0 0 1024 1024" version="1.1" xmlns="http://www.w3.org/2000/svg"><path d="M0 0h1024v1024H0z" fill="#FFFFFF" fill-opacity="0" /><path d="M709.824 347.072l119.466667-25.6c34.133333-8.533333 68.266667 14.933333 76.8 49.066667 0 4.266667 2.133333 8.533333 2.133333 14.933333v256c0 36.266667-29.866667 64-64 64-4.266667 0-8.533333 0-14.933333-2.133333l-119.466667-25.6" fill="#FFFFFF" /><path d="M665.024 227.605333h-482.133333c-36.266667 0-66.133333 29.866667-66.133334 66.133334v439.466666c0 36.266667 29.866667 66.133333 66.133334 66.133334h482.133333c36.266667 0 66.133333-29.866667 66.133333-66.133334v-439.466666c0-38.4-29.866667-66.133333-66.133333-66.133334z m-416 179.2c-36.266667 0-66.133333-29.866667-66.133333-66.133333s29.866667-66.133333 66.133333-66.133333c36.266667 0 66.133333 29.866667 66.133333 66.133333 0 38.4-29.866667 66.133333-66.133333 66.133333z" fill="#FFFFFF" /></svg>