<?xml version="1.0" standalone="no"?><!DOCTYPE svg PUBLIC "-//W3C//DTD SVG 1.1//EN" "http://www.w3.org/Graphics/SVG/1.1/DTD/svg11.dtd"><svg class="icon" width="200px" height="200.00px" viewBox="0 0 1024 1024" version="1.1" xmlns="http://www.w3.org/2000/svg"><path d="M802.56 640.533333v-162.133333c0-157.866667-128-285.866667-285.866667-285.866667s-285.866667 128-285.866666 285.866667v162.133333l-49.066667 66.133334c-8.533333 10.666667-12.8 23.466667-12.8 36.266666 0 34.133333 27.733333 61.866667 61.866667 61.866667h569.6c34.133333 0 61.866667-27.733333 61.866666-61.866667 0-12.8-4.266667-25.6-12.8-36.266666l-46.933333-66.133334z" fill="#FFFFFF" /><path d="M516.693333 783.466667m-128 0a128 128 0 1 0 256 0 128 128 0 1 0-256 0Z" fill="#FFFFFF" /><path d="M516.693333 107.2c40.533333 0 74.666667 34.133333 74.666667 74.666667v21.333333c0 40.533333-34.133333 74.666667-74.666667 74.666667s-74.666667-34.133333-74.666666-74.666667v-21.333333c0-42.666667 34.133333-74.666667 74.666666-74.666667z" fill="#FFFFFF" /><path d="M0 0h1024v1024H0z" fill="#FFFFFF" fill-opacity="0" /></svg>