<?xml version="1.0" standalone="no"?><!DOCTYPE svg PUBLIC "-//W3C//DTD SVG 1.1//EN" "http://www.w3.org/Graphics/SVG/1.1/DTD/svg11.dtd"><svg class="icon" width="200px" height="200.00px" viewBox="0 0 1024 1024" version="1.1" xmlns="http://www.w3.org/2000/svg"><path d="M0 0h1024v1024H0z" fill="#CCCCCC" fill-opacity="0" /><path d="M505.376 870.464c-134.4 0-211.2-67.2-243.2-105.6-9.6-9.6-19.2-22.4-25.6-35.2-35.2-57.6-51.2-118.4-44.8-176 6.4-54.4 28.8-105.6 64-150.4l3.2-3.2v3.2c9.6 32 35.2 57.6 60.8 76.8 6.4 6.4 9.6 9.6 16 12.8-6.4-67.2 6.4-131.2 41.6-192 32-54.4 80-102.4 137.6-144l3.2-3.2v6.4c0 108.8 48 166.4 99.2 224v-3.2c9.6-25.6 22.4-70.4 22.4-105.6v-6.4l3.2 3.2c60.8 41.6 112 99.2 140.8 163.2 32 73.6 38.4 153.6 19.2 230.4-6.4 19.2-28.8 89.6-83.2 128-60.8 54.4-131.2 76.8-214.4 76.8z m-243.2-380.8c-32 64-25.6 140.8 19.2 214.4 3.2 9.6 9.6 16 19.2 25.6 51.2 57.6 118.4 86.4 204.8 86.4 89.6 0 147.2-32 179.2-60.8 28.8-22.4 54.4-57.6 64-102.4 38.4-144-32-246.4-80-294.4-3.2 9.6-6.4 16-6.4 25.6-3.2 6.4-3.2 12.8-6.4 19.2l-25.6 73.6v3.2l-3.2-3.2-51.2-64-3.2-3.2c-3.2-3.2-3.2-6.4-6.4-9.6-32-41.6-67.2-86.4-86.4-150.4-32 32-57.6 64-70.4 99.2-19.2 44.8-25.6 96-16 144l19.2 134.4v6.4l-6.4-6.4-96-96-6.4-6.4c-3.2-3.2-6.4-6.4-12.8-9.6-6.4-6.4-19.2-16-28.8-25.6z" fill="#CCCCCC" /><path d="M514.976 160.064c-108.8 73.6-195.2 192-176 339.2-22.4-25.6-67.2-51.2-80-96-73.6 83.2-92.8 204.8-19.2 323.2 6.4 9.6 16 22.4 25.6 35.2 32 38.4 105.6 105.6 243.2 105.6 102.4 0 169.6-38.4 211.2-73.6 41.6-32 70.4-83.2 83.2-128 44.8-166.4-41.6-313.6-160-393.6 0 41.6-16 89.6-25.6 115.2-51.2-57.6-102.4-118.4-102.4-227.2m112 313.6l25.6-73.6c3.2-16 9.6-32 16-48 70.4 70.4 118.4 176 83.2 300.8-12.8 41.6-35.2 80-67.2 102.4-32 28.8-89.6 60.8-182.4 60.8-118.4 0-179.2-54.4-208-89.6-9.6-9.6-16-16-19.2-25.6-44.8-73.6-51.2-153.6-16-217.6l32 32 16 16 96 96-19.2-134.4c-22.4-112 32-195.2 89.6-249.6 16 73.6 60.8 121.6 92.8 163.2l9.6 6.4 51.2 60.8m-105.6-323.2v9.6c0 105.6 48 163.2 96 220.8 6.4-28.8 22.4-70.4 22.4-105.6v-9.6l6.4 6.4c60.8 41.6 112 99.2 140.8 166.4 32 73.6 41.6 153.6 19.2 233.6-6.4 19.2-28.8 89.6-86.4 131.2-64 48-134.4 73.6-214.4 73.6-137.6 0-214.4-67.2-246.4-108.8-9.6-9.6-19.2-22.4-25.6-35.2-35.2-57.6-51.2-118.4-44.8-179.2 6.4-54.4 28.8-108.8 67.2-150.4l6.4-6.4 3.2 9.6c9.6 32 35.2 54.4 60.8 76.8 3.2 3.2 6.4 6.4 12.8 9.6-6.4-64 9.6-128 41.6-188.8 32-54.4 80-102.4 137.6-144l3.2-9.6z m51.2 265.6l-3.2-3.2c-3.2-3.2-3.2-6.4-6.4-9.6-32-38.4-67.2-83.2-83.2-147.2-32 28.8-54.4 64-67.2 96-19.2 44.8-25.6 92.8-16 144l19.2 134.4v9.6l-9.6-9.6-96-96-6.4-6.4c-3.2-3.2-6.4-6.4-12.8-9.6-9.6-6.4-19.2-16-28.8-25.6-28.8 60.8-22.4 134.4 19.2 208 3.2 6.4 9.6 16 19.2 25.6 51.2 57.6 118.4 86.4 204.8 86.4 89.6 0 147.2-32 179.2-60.8 28.8-19.2 54.4-57.6 64-99.2 35.2-137.6-28.8-240-76.8-288-3.2 6.4-3.2 12.8-6.4 19.2-3.2 6.4-3.2 12.8-6.4 19.2l-25.6 73.6-3.2 6.4-6.4-6.4-51.2-60.8z" fill="#CCCCCC" /></svg>