<?xml version="1.0" standalone="no"?><!DOCTYPE svg PUBLIC "-//W3C//DTD SVG 1.1//EN" "http://www.w3.org/Graphics/SVG/1.1/DTD/svg11.dtd"><svg class="icon" width="200px" height="200.00px" viewBox="0 0 1024 1024" version="1.1" xmlns="http://www.w3.org/2000/svg"><path d="M920.725333 917.333333h-814.933333c-23.466667 0-42.666667-19.2-42.666667-42.666666V300.8c0-23.466667 19.2-42.666667 42.666667-42.666667h168.533333l74.666667-110.933333c8.533333-12.8 21.333333-19.2 36.266667-19.2h256c14.933333 0 27.733333 6.4 36.266666 19.2l74.666667 110.933333h168.533333c23.466667 0 42.666667 19.2 42.666667 42.666667V874.666667c0 23.466667-19.2 42.666667-42.666667 42.666666z m-772.266666-85.333333h727.466666V343.466667h-149.333333c-14.933333 0-27.733333-6.4-36.266667-19.2l-72.533333-110.933334h-209.066667l-74.666666 110.933334c-8.533333 12.8-21.333333 19.2-36.266667 19.2h-149.333333V832z" fill="#FFFFFF" /><path d="M513.258667 733.866667c-96 0-172.8-76.8-172.8-172.8s76.8-172.8 172.8-172.8 172.8 76.8 172.8 172.8-76.8 172.8-172.8 172.8z m0-260.266667c-49.066667 0-87.466667 38.4-87.466667 87.466667s38.4 87.466667 87.466667 87.466666 87.466667-38.4 87.466666-87.466666-38.4-87.466667-87.466666-87.466667zM775.658667 499.2c-23.466667 0-42.666667-19.2-42.666667-42.666667v-25.6c0-23.466667 19.2-42.666667 42.666667-42.666666s42.666667 19.2 42.666666 42.666666v25.6c0 23.466667-19.2 42.666667-42.666666 42.666667z" fill="#FFFFFF" /></svg>