<?xml version="1.0" standalone="no"?><!DOCTYPE svg PUBLIC "-//W3C//DTD SVG 1.1//EN" "http://www.w3.org/Graphics/SVG/1.1/DTD/svg11.dtd"><svg class="icon" width="200px" height="200.00px" viewBox="0 0 1024 1024" version="1.1" xmlns="http://www.w3.org/2000/svg"><path d="M0 0h1024v1024H0z" fill="#CCCCCC" fill-opacity="0" /><path d="M514.666667 905.557333c-29.866667 0-61.866667-4.266667-91.733334-10.666666-81.066667-19.2-149.333333-61.866667-200.533333-121.6v10.666666c0 23.466667-19.2 42.666667-42.666667 42.666667s-42.666667-19.2-42.666666-42.666667v-185.6c0-21.333333 17.066667-40.533333 38.4-42.666666 21.333333-2.133333 40.533333 10.666667 46.933333 32 25.6 110.933333 110.933333 198.4 221.866667 224 78.933333 19.2 160 6.4 228.266666-36.266667 68.266667-42.666667 117.333333-108.8 136.533334-185.6 6.4-23.466667 27.733333-36.266667 51.2-32 23.466667 6.4 36.266667 27.733333 32 51.2-23.466667 100.266667-87.466667 185.6-174.933334 238.933333-64 38.4-132.266667 57.6-202.666666 57.6zM177.6 481.024c-4.266667 0-6.4 0-10.666667-2.133333-23.466667-6.4-36.266667-27.733333-32-51.2 23.466667-100.266667 85.333333-185.6 172.8-241.066667 87.466667-55.466667 192-72.533333 292.266667-49.066667 81.066667 19.2 151.466667 61.866667 204.8 121.6v-8.533333c0-23.466667 19.2-42.666667 42.666667-42.666667s42.666667 19.2 42.666666 42.666667v181.333333c0 21.333333-17.066667 40.533333-38.4 42.666667-21.333333 2.133333-40.533333-10.666667-46.933333-32-27.733333-110.933333-113.066667-196.266667-224-221.866667-78.933333-19.2-160-4.266667-228.266667 38.4s-117.333333 108.8-134.4 187.733334c-2.133333 21.333333-19.2 34.133333-40.533333 34.133333z" fill="#FFFFFF" /></svg>