<?xml version="1.0" standalone="no"?><!DOCTYPE svg PUBLIC "-//W3C//DTD SVG 1.1//EN" "http://www.w3.org/Graphics/SVG/1.1/DTD/svg11.dtd"><svg class="icon" width="200px" height="200.00px" viewBox="0 0 1024 1024" version="1.1" xmlns="http://www.w3.org/2000/svg"><path d="M385.327407 339.816296l7.774815-62.198518a37.925926 37.925926 0 0 1 37.925926-33.564445h161.943704a37.925926 37.925926 0 0 1 37.925926 33.564445l7.774815 62.198518h141.084444a37.925926 37.925926 0 0 1 37.925926 37.925926v363.899259a37.925926 37.925926 0 0 1-37.925926 37.925926H244.242963a37.925926 37.925926 0 0 1-37.925926-37.925926V378.121481a37.925926 37.925926 0 0 1 37.925926-37.925925zM512 693.665185a133.878519 133.878519 0 1 0-133.878519-133.878518A134.068148 134.068148 0 0 0 512 693.665185z m0-37.925926a94.814815 94.814815 0 1 1 94.814815-95.762963 94.814815 94.814815 0 0 1-94.814815 95.762963z" fill="#333333" /></svg>