<?xml version="1.0" standalone="no"?><!DOCTYPE svg PUBLIC "-//W3C//DTD SVG 1.1//EN" "http://www.w3.org/Graphics/SVG/1.1/DTD/svg11.dtd"><svg class="icon" width="200px" height="200.00px" viewBox="0 0 1024 1024" version="1.1" xmlns="http://www.w3.org/2000/svg"><path d="M512 30.117647c267.043137 0 481.882353 214.839216 481.882353 481.882353s-214.839216 481.882353-481.882353 481.882353-481.882353-214.839216-481.882353-481.882353 214.839216-481.882353 481.882353-481.882353z" fill="#111111" /><path d="M512 1024C228.894118 1024 0 795.105882 0 512S228.894118 0 512 0 1024 228.894118 1024 512 795.105882 1024 512 1024z m0-963.764706C263.027451 60.235294 60.235294 263.027451 60.235294 512S263.027451 963.764706 512 963.764706 963.764706 760.972549 963.764706 512 760.972549 60.235294 512 60.235294z" fill="#FFFFFF" /><path d="M461.824 281.077961h80.313725v433.694117h-80.313725z" fill="#FFFFFF" /><path d="M281.118118 461.783843h433.694117v80.313726h-433.694117z" fill="#FFFFFF" /></svg>