<?xml version="1.0" standalone="no"?><!DOCTYPE svg PUBLIC "-//W3C//DTD SVG 1.1//EN" "http://www.w3.org/Graphics/SVG/1.1/DTD/svg11.dtd"><svg class="icon" width="200px" height="200.00px" viewBox="0 0 1024 1024" version="1.1" xmlns="http://www.w3.org/2000/svg"><path d="M0 0h1024v1024H0z" fill="#CCCCCC" fill-opacity="0" /><path d="M828.8 694.4l-51.2-102.4-51.2 102.4-112 16 83.2 80-19.2 112 102.4-54.4 102.4 54.4-19.2-112 67.2-67.2v-16l-102.4-12.8z" fill="#CCCCCC" /><path d="M854.4 128H204.8C163.2 128 131.2 163.2 131.2 201.6v649.6c0 41.6 35.2 73.6 73.6 73.6h396.8v-19.2l16-89.6-67.2-64c-25.6-25.6-25.6-67.2 0-92.8 9.6-9.6 22.4-16 38.4-19.2l89.6-12.8 41.6-83.2c16-32 54.4-44.8 86.4-28.8 12.8 6.4 22.4 16 28.8 28.8l41.6 83.2 51.2 6.4V201.6C928 163.2 896 128 854.4 128zM544 576H224v-96h320v96z m192-192H224V288h512v96z" fill="#CCCCCC" /><path d="M950.4 729.6l-67.2 67.2 16 92.8c3.2 12.8-6.4 25.6-19.2 28.8-6.4 0-9.6 0-16-3.2l-83.2-44.8-83.2 44.8c-12.8 6.4-25.6 0-32-9.6-3.2-3.2-3.2-9.6-3.2-16l16-92.8-67.2-67.2c-9.6-9.6-9.6-25.6 0-35.2 3.2-3.2 9.6-6.4 12.8-6.4l92.8-12.8 41.6-86.4c6.4-12.8 19.2-16 32-9.6 6.4 3.2 9.6 6.4 9.6 9.6l41.6 86.4 92.8 12.8c12.8 3.2 22.4 12.8 22.4 28.8 0 3.2-3.2 9.6-6.4 12.8z" fill="#CCCCCC" /></svg>