<?xml version="1.0" standalone="no"?><!DOCTYPE svg PUBLIC "-//W3C//DTD SVG 1.1//EN" "http://www.w3.org/Graphics/SVG/1.1/DTD/svg11.dtd"><svg class="icon" width="200px" height="200.00px" viewBox="0 0 1024 1024" version="1.1" xmlns="http://www.w3.org/2000/svg"><path d="M0 0h1024v1024H0z" fill="#CCCCCC" fill-opacity="0" /><path d="M516.266667 209.066667c-209.066667 0-379.733333 147.2-379.733334 326.4 0 40.533333 8.533333 78.933333 25.6 117.333333 17.066667 38.4 12.8 85.333333 6.4 140.8-2.133333 21.333333-4.266667 42.666667-4.266666 61.866667v10.666666c14.933333-4.266667 32-10.666667 44.8-14.933333 36.266667-12.8 74.666667-25.6 108.8-25.6 14.933333 0 27.733333 2.133333 40.533333 6.4 49.066667 19.2 102.4 29.866667 157.866667 29.866667C725.333333 861.866667 896 714.666667 896 535.466667c0-181.333333-170.666667-326.4-379.733333-326.4m0-64C761.6 145.066667 960 320 960 535.466667c0 215.466667-198.4 390.4-443.733333 390.4-64 0-125.866667-12.8-181.333334-34.133334-4.266667-2.133333-10.666667-2.133333-17.066666-2.133333-46.933333 0-128 44.8-174.933334 44.8-10.666667 0-19.2-2.133333-25.6-8.533333-42.666667-38.4 8.533333-196.266667-14.933333-247.466667-19.2-44.8-29.866667-91.733333-29.866667-142.933333C74.666667 320 273.066667 145.066667 516.266667 145.066667z" fill="#333333" /></svg>