<?xml version="1.0" standalone="no"?><!DOCTYPE svg PUBLIC "-//W3C//DTD SVG 1.1//EN" "http://www.w3.org/Graphics/SVG/1.1/DTD/svg11.dtd"><svg class="icon" width="200px" height="200.00px" viewBox="0 0 1024 1024" version="1.1" xmlns="http://www.w3.org/2000/svg"><path d="M0.000144 0h1022.4663v1022.466301h-1022.4663z" fill="#CCCCCC" fill-opacity="0" /><path d="M501.647672 159.760359c-207.688467 0-373.839241 169.345981-373.839241 373.839242 0 207.688467 169.345981 373.839241 373.839241 373.839241 204.49326 0 373.839241-166.150774 373.839242-373.839241 0-204.49326-166.150774-373.839241-373.839242-373.839242z m0 690.164753c-172.541188 0-313.130305-140.589116-313.130304-313.130304s140.589116-313.130305 313.130304-313.130305 313.130305 140.589116 313.130305 313.130305-140.589116 313.130305-313.130305 313.130304z" fill="#666666" /><path d="M674.188861 402.596106l-210.883675 210.883674-121.417873-118.222666-41.537693 41.537694 159.760359 159.760359 41.537693-41.537693 210.883675-210.883675-38.342486-41.537693z" fill="#666666" /></svg>