<?xml version="1.0" standalone="no"?><!DOCTYPE svg PUBLIC "-//W3C//DTD SVG 1.1//EN" "http://www.w3.org/Graphics/SVG/1.1/DTD/svg11.dtd"><svg class="icon" width="200px" height="200.00px" viewBox="0 0 1024 1024" version="1.1" xmlns="http://www.w3.org/2000/svg"><path d="M0 0h1024v1024H0z" fill="#CCCCCC" fill-opacity="0" /><path d="M358.4 499.2L362.666667 448h85.333333v-155.733333h-147.2v53.333333h89.6v46.933333h-78.933333l-14.933334 160h98.133334c0 29.866667 0 59.733333-6.4 91.733334 0 4.266667-4.266667 17.066667-34.133334 17.066666-12.8 0-23.466667 0-36.266666-2.133333l-12.8-2.133333 14.933333 57.6h6.4c17.066667 2.133333 27.733333 2.133333 36.266667 2.133333 46.933333-2.133333 72.533333-19.2 78.933333-51.2 6.4-53.333333 8.533333-106.666667 8.533333-160v-8.533333l-91.733333 2.133333z" fill="#FFFFFF" /><path d="M561.066667 693.333333c25.6-49.066667 66.133333-89.6 115.2-113.066666h-55.466667v-23.466667h96v-209.066667h-49.066667c10.666667-17.066667 19.2-34.133333 25.6-51.2l4.266667-8.533333-57.6-19.2-2.133333 6.4c-8.533333 23.466667-19.2 49.066667-32 72.533333h-27.733334l4.266667-2.133333-4.266667-6.4c-10.666667-21.333333-21.333333-40.533333-36.266666-59.733333l-4.266667-4.266667-57.6 19.2 6.4 8.533333c10.666667 14.933333 21.333333 32 29.866667 46.933334h-53.333334v209.066666h96v23.466667h-113.066666V640h113.066666l2.133334 53.333333z m51.2-298.666666h57.6v42.666666h-57.6v-42.666666z m0 78.933333h57.6v40.533333h-57.6v-40.533333z m-98.133334-78.933333h55.466667v42.666666h-55.466667v-42.666666z m0 119.466666v-40.533333h55.466667v40.533333h-55.466667z" fill="#FFFFFF" /><path d="M533.333333 810.666667H213.333333c-12.8 0-21.333333-8.533333-21.333333-21.333334V192c0-12.8 8.533333-21.333333 21.333333-21.333333h597.333334c12.8 0 21.333333 8.533333 21.333333 21.333333v366.933333c29.866667 4.266667 59.733333 14.933333 85.333333 29.866667V192c0-59.733333-46.933333-106.666667-106.666666-106.666667H213.333333C153.6 85.333333 106.666667 132.266667 106.666667 192v597.333333c0 59.733333 46.933333 106.666667 106.666666 106.666667h334.933334c-10.666667-27.733333-14.933333-55.466667-14.933334-85.333333z" fill="#FFFFFF" /><path d="M789.333333 618.666667c-106.666667 0-192 85.333333-192 192s85.333333 192 192 192 192-85.333333 192-192-85.333333-192-192-192z m115.2 172.8l-108.8 106.666666c-14.933333 14.933333-38.4 14.933333-55.466666 2.133334l-68.266667-57.6c-17.066667-14.933333-19.2-40.533333-4.266667-57.6 14.933333-17.066667 38.4-19.2 55.466667-4.266667l40.533333 34.133333 81.066667-81.066666c14.933333-14.933333 40.533333-14.933333 57.6 0 19.2 17.066667 19.2 42.666667 2.133333 57.6z" fill="#FFFFFF" /></svg>