<?xml version="1.0" standalone="no"?><!DOCTYPE svg PUBLIC "-//W3C//DTD SVG 1.1//EN" "http://www.w3.org/Graphics/SVG/1.1/DTD/svg11.dtd"><svg class="icon" width="200px" height="200.00px" viewBox="0 0 1024 1024" version="1.1" xmlns="http://www.w3.org/2000/svg"><path d="M0 0h1024v1024H0z" fill="#FFFFFF" fill-opacity="0" /><path d="M508.8 720l-236.8-217.6c-9.6-9.6-25.6-9.6-38.4 0-9.6 6.4-9.6 22.4-3.2 32l3.2 3.2 275.2 249.6 275.2-249.6c9.6-6.4 9.6-22.4 3.2-32l-3.2-3.2c-9.6-9.6-25.6-9.6-38.4 0l-236.8 217.6z m-3.2-240L268.8 262.4c-9.6-9.6-25.6-9.6-38.4 0-9.6 6.4-9.6 22.4-3.2 32l3.2 3.2 275.2 249.6 275.2-249.6c9.6-6.4 9.6-22.4 3.2-32l-3.2-3.2c-9.6-9.6-25.6-9.6-38.4 0L505.6 480z" fill="#333333" /></svg>