<?xml version="1.0" standalone="no"?><!DOCTYPE svg PUBLIC "-//W3C//DTD SVG 1.1//EN" "http://www.w3.org/Graphics/SVG/1.1/DTD/svg11.dtd"><svg class="icon" width="200px" height="200.00px" viewBox="0 0 1024 1024" version="1.1" xmlns="http://www.w3.org/2000/svg"><path d="M0 0h1024v1024H0z" fill="#CCCCCC" fill-opacity="0" /><path d="M512 966.4c-249.6 0-454.4-204.8-454.4-454.4s204.8-454.4 454.4-454.4 454.4 204.8 454.4 454.4-201.6 454.4-454.4 454.4z m0-844.8c-214.4 0-390.4 176-390.4 390.4s176 390.4 390.4 390.4 390.4-176 390.4-390.4-172.8-390.4-390.4-390.4z" fill="#FFFFFF" /><path d="M470.4 284.8h86.4l-12.8 342.4h-57.6l-16-342.4z" fill="#FFFFFF" /><path d="M512 710.4m-28.8 0a28.8 28.8 0 1 0 57.6 0 28.8 28.8 0 1 0-57.6 0Z" fill="#FFFFFF" /></svg>