<?xml version="1.0" standalone="no"?><!DOCTYPE svg PUBLIC "-//W3C//DTD SVG 1.1//EN" "http://www.w3.org/Graphics/SVG/1.1/DTD/svg11.dtd"><svg class="icon" width="200px" height="200.00px" viewBox="0 0 1024 1024" version="1.1" xmlns="http://www.w3.org/2000/svg"><path d="M0 0h1024v1024H0z" fill="#FFFFFF" fill-opacity="0" /><path d="M275.221333 309.717333l138.666667 138.666667s2.133333 2.133333 2.133333 4.266667v228.266666c0 14.933333 8.533333 29.866667 21.333334 38.4l81.066666 49.066667c21.333333 12.8 49.066667 6.4 61.866667-14.933333 4.266667-6.4 6.4-14.933333 6.4-23.466667v-277.333333c0-2.133333 0-2.133333 2.133333-4.266667l157.866667-138.666667c19.2-17.066667 21.333333-44.8 4.266667-64-8.533333-10.666667-21.333333-14.933333-34.133334-14.933333h-409.6c-25.6 2.133333-44.8 21.333333-44.8 46.933333 0 10.666667 4.266667 23.466667 12.8 32z m27.733334-27.733333c-2.133333-2.133333-2.133333-6.4 0-8.533333 0 0 2.133333-2.133333 4.266666-2.133334h409.6c2.133333 0 4.266667 2.133333 4.266667 4.266667s0 2.133333-2.133333 4.266667l-157.866667 138.666666c-10.666667 8.533333-14.933333 21.333333-14.933333 34.133334v275.2c0 2.133333-2.133333 4.266667-4.266667 4.266666h-2.133333l-81.066667-49.066666c-2.133333 0-4.266667-2.133333-4.266667-2.133334v-228.266666c0-12.8-4.266667-23.466667-12.8-32l-138.666666-138.666667z" fill="#111111" /><path d="M541.888 779.050667c-8.533333 0-17.066667-2.133333-25.6-6.4l-81.066667-49.066667c-14.933333-8.533333-23.466667-25.6-23.466666-42.666667v-228.266666l-151.466667-153.6 2.133333 2.133333c-4.266667-6.4-6.4-14.933333-6.4-23.466667 0-27.733333 23.466667-49.066667 49.066667-49.066666h409.6c14.933333 0 27.733333 6.4 38.4 17.066666 17.066667 21.333333 14.933333 53.333333-4.266667 70.4l-157.866666 138.666667v275.2c0 8.533333-2.133333 17.066667-6.4 25.6-10.666667 14.933333-25.6 23.466667-42.666667 23.466667z m-249.6-460.8l125.866667 125.866666c2.133333 2.133333 2.133333 4.266667 2.133333 6.4v230.4c0 12.8 6.4 25.6 19.2 34.133334l81.066667 49.066666c19.2 10.666667 42.666667 4.266667 53.333333-12.8 4.266667-6.4 6.4-12.8 6.4-21.333333v-277.333333c0-2.133333 2.133333-6.4 4.266667-8.533334l157.866666-138.666666c17.066667-14.933333 17.066667-38.4 4.266667-55.466667-6.4-8.533333-19.2-12.8-29.866667-12.8h-409.6c-21.333333 0-38.4 17.066667-38.4 38.4 0 10.666667 4.266667 21.333333 10.666667 27.733333l12.8 14.933334z m249.6 422.4c-2.133333 0-4.266667 0-4.266667-2.133334l-83.2-49.066666c-2.133333-2.133333-4.266667-4.266667-4.266666-8.533334v-228.266666c0-10.666667-4.266667-21.333333-10.666667-27.733334l-140.8-140.8c0-2.133333-2.133333-4.266667-2.133333-6.4 0-2.133333 0-6.4 2.133333-6.4 2.133333-2.133333 6.4-4.266667 8.533333-4.266666h409.6c2.133333 0 4.266667 0 6.4 2.133333 2.133333 2.133333 2.133333 4.266667 2.133334 6.4 0 2.133333-2.133333 6.4-4.266667 8.533333l-157.866667 138.666667c-8.533333 6.4-12.8 19.2-12.8 29.866667v275.2c2.133333 6.4-4.266667 10.666667-8.533333 12.8z m-234.666667-462.933334l138.666667 138.666667c8.533333 8.533333 14.933333 21.333333 14.933333 34.133333v230.4l81.066667 49.066667v-275.2c0-14.933333 6.4-27.733333 17.066667-38.4l157.866666-138.666667h-409.6z" fill="#111111" /><path d="M644.288 544.384h98.133333c10.666667 0 19.2-8.533333 19.2-19.2s-8.533333-19.2-19.2-19.2h-98.133333c-10.666667 0-19.2 8.533333-19.2 19.2s8.533333 19.2 19.2 19.2z m-2.133333 74.666667h98.133333c10.666667 0 19.2-8.533333 19.2-19.2s-8.533333-19.2-19.2-19.2h-98.133333c-10.666667 0-19.2 8.533333-19.2 19.2s8.533333 19.2 19.2 19.2z m-4.266667 74.666666h98.133333c10.666667 0 19.2-8.533333 19.2-19.2s-8.533333-19.2-19.2-19.2h-98.133333c-10.666667 0-19.2 8.533333-19.2 19.2s8.533333 19.2 19.2 19.2z" fill="#111111" /><path d="M738.154667 700.117333h-100.266667c-12.8 0-25.6-10.666667-25.6-25.6 0-12.8 10.666667-25.6 25.6-25.6h98.133333c14.933333 0 25.6 10.666667 25.6 25.6 2.133333 12.8-10.666667 25.6-23.466666 25.6z m-100.266667-10.666666h98.133333c4.266667 0 8.533333-2.133333 10.666667-4.266667 2.133333-2.133333 4.266667-6.4 4.266667-10.666667 0-8.533333-6.4-14.933333-14.933334-14.933333h-100.266666c-8.533333 0-14.933333 6.4-14.933334 14.933333 4.266667 8.533333 10.666667 14.933333 17.066667 14.933334z m104.533333-64h-98.133333c-14.933333 0-25.6-10.666667-25.6-25.6s10.666667-25.6 25.6-25.6h98.133333c14.933333 0 25.6 10.666667 25.6 25.6s-12.8 25.6-25.6 25.6z m-100.266666-40.533334c-8.533333 0-14.933333 6.4-14.933334 14.933334s6.4 14.933333 14.933334 14.933333h98.133333c8.533333 0 14.933333-6.4 14.933333-14.933333s-6.4-14.933333-14.933333-14.933334h-98.133333z m100.266666-34.133333h-98.133333c-14.933333 0-25.6-10.666667-25.6-25.6s10.666667-25.6 25.6-25.6h98.133333c14.933333 0 25.6 10.666667 25.6 25.6s-10.666667 25.6-25.6 25.6z m-98.133333-40.533333c-8.533333 0-14.933333 6.4-14.933333 14.933333 0 8.533333 6.4 14.933333 14.933333 14.933333h98.133333c8.533333 0 14.933333-6.4 14.933334-14.933333 0-8.533333-6.4-14.933333-14.933334-14.933333h-98.133333z" fill="#111111" /></svg>