<?xml version="1.0" standalone="no"?><!DOCTYPE svg PUBLIC "-//W3C//DTD SVG 1.1//EN" "http://www.w3.org/Graphics/SVG/1.1/DTD/svg11.dtd"><svg class="icon" width="200px" height="200.00px" viewBox="0 0 1024 1024" version="1.1" xmlns="http://www.w3.org/2000/svg"><path d="M0.000178 0h1023.466944v1023.466944h-1023.466944z" fill="#CCCCCC" fill-opacity="0" /><path d="M191.90023 443.502343c-23.454451 0-42.644456-19.190005-42.644456-42.644456v-142.858928c0-59.702238 46.908902-106.61114 106.61114-106.61114h127.933368c23.454451 0 42.644456 19.190005 42.644456 42.644456s-19.190005 42.644456-42.644456 42.644456h-127.933368c-10.661114 0-21.322228 8.528891-21.322228 21.322228v142.858928c0 23.454451-19.190005 42.644456-42.644456 42.644456zM377.403613 874.211348h-121.536699c-59.702238 0-106.61114-46.908902-106.61114-106.61114v-138.594482c0-23.454451 19.190005-42.644456 42.644456-42.644456s42.644456 19.190005 42.644456 42.644456v138.594482c0 10.661114 8.528891 21.322228 21.322228 21.322228h121.536699c23.454451 0 42.644456 19.190005 42.644456 42.644456s-19.190005 42.644456-42.644456 42.644456zM831.56707 443.502343c-23.454451 0-42.644456-19.190005-42.644456-42.644456v-142.858928c0-10.661114-8.528891-21.322228-21.322228-21.322228h-127.933368c-23.454451 0-42.644456-19.190005-42.644456-42.644456s19.190005-42.644456 42.644456-42.644456h127.933368c59.702238 0 106.61114 46.908902 106.61114 106.61114v142.858928c0 23.454451-19.190005 42.644456-42.644456 42.644456zM767.600386 874.211348h-121.5367c-23.454451 0-42.644456-19.190005-42.644456-42.644456s19.190005-42.644456 42.644456-42.644456h121.5367c10.661114 0 21.322228-8.528891 21.322228-21.322228v-138.594482c0-23.454451 19.190005-42.644456 42.644456-42.644456s42.644456 19.190005 42.644456 42.644456v138.594482c0 57.570016-46.908902 106.61114-106.61114 106.61114z" fill="#FFFFFF" /><path d="M234.544686 831.566892c-10.661114 0-21.322228-4.264446-29.851119-12.793337-17.057782-17.057782-14.92556-44.776679 2.132222-59.702238l162.048933-155.652264c17.057782-17.057782 44.776679-14.92556 59.702239 2.132222 17.057782 17.057782 14.92556 44.776679-2.132223 59.702239l-162.048933 155.652264c-8.528891 6.396668-19.190005 10.661114-29.851119 10.661114zM639.667018 441.37012c-10.661114 0-21.322228-4.264446-29.851119-12.793337-17.057782-17.057782-14.92556-44.776679 2.132222-59.702238l170.577825-164.181156c17.057782-17.057782 44.776679-14.92556 59.702238 2.132223 17.057782 17.057782 14.92556 44.776679-2.132223 59.702238l-170.577824 164.181156c-8.528891 8.528891-19.190005 10.661114-29.851119 10.661114z" fill="#FFFFFF" /></svg>