<?xml version="1.0" standalone="no"?><!DOCTYPE svg PUBLIC "-//W3C//DTD SVG 1.1//EN" "http://www.w3.org/Graphics/SVG/1.1/DTD/svg11.dtd"><svg class="icon" width="200px" height="200.00px" viewBox="0 0 1024 1024" version="1.1" xmlns="http://www.w3.org/2000/svg"><path d="M513.206857 644.608c-65.828571 0-128-25.6-175.542857-73.142857-95.085714-95.085714-95.085714-252.342857 0-347.428572 95.085714-95.085714 252.342857-95.085714 347.428571 0 95.085714 95.085714 95.085714 252.342857 0 347.428572-36.571429 36.571429-87.771429 62.171429-142.628571 69.485714-7.314286 3.657143-18.285714 3.657143-29.257143 3.657143z m-124.342857-124.342857c36.571429 36.571429 91.428571 54.857143 146.285714 47.542857 36.571429-3.657143 73.142857-21.942857 98.742857-47.542857 32.914286-32.914286 51.2-76.8 51.2-124.342857s-18.285714-91.428571-51.2-124.342857c-65.828571-65.828571-179.2-65.828571-245.028571 0-65.828571 73.142857-65.828571 182.857143 0 248.685714z" fill="#040000" /><path d="M513.206857 871.350857c-21.942857 0-36.571429-14.628571-36.571428-36.571428v-226.742858c0-21.942857 14.628571-36.571429 36.571428-36.571428s36.571429 14.628571 36.571429 36.571428v226.742858c0 21.942857-18.285714 36.571429-36.571429 36.571428z" fill="#040000" /><path d="M633.892571 757.979429h-241.371428c-21.942857 0-36.571429-14.628571-36.571429-36.571429s14.628571-36.571429 36.571429-36.571429h241.371428c21.942857 0 36.571429 14.628571 36.571429 36.571429s-14.628571 36.571429-36.571429 36.571429z" fill="#040000" /></svg>