<?xml version="1.0" standalone="no"?><!DOCTYPE svg PUBLIC "-//W3C//DTD SVG 1.1//EN" "http://www.w3.org/Graphics/SVG/1.1/DTD/svg11.dtd"><svg class="icon" width="200px" height="200.00px" viewBox="0 0 1024 1024" version="1.1" xmlns="http://www.w3.org/2000/svg"><path d="M487.497143 829.842286c-65.828571 0-128-25.6-175.542857-73.142857-47.542857-47.542857-73.142857-109.714286-73.142857-175.542858 0-135.314286 109.714286-245.028571 245.028571-245.028571 54.857143 0 106.057143 18.285714 149.942857 51.2 62.171429 47.542857 98.742857 120.685714 98.742857 197.485714 3.657143 135.314286-106.057143 245.028571-245.028571 245.028572z m0-420.571429c-95.085714 0-171.885714 76.8-171.885714 171.885714 0 47.542857 18.285714 91.428571 51.2 124.342858s76.8 51.2 124.342857 51.2c95.085714 0 171.885714-76.8 171.885714-171.885715 0-54.857143-25.6-106.057143-69.485714-138.971428-29.257143-21.942857-65.828571-36.571429-106.057143-36.571429z" fill="#040000" /><path d="M615.497143 431.213714c-7.314286 0-18.285714-3.657143-25.6-10.971428-14.628571-14.628571-18.285714-36.571429-3.657143-51.2l153.6-171.885715c14.628571-14.628571 36.571429-14.628571 51.2-3.657142 14.628571 14.628571 18.285714 36.571429 3.657143 51.2l-153.6 171.885714c-3.657143 10.971429-14.628571 14.628571-25.6 14.628571z" fill="#040000" /><path d="M791.04 244.699429h-197.485714c-21.942857 0-36.571429-14.628571-36.571429-36.571429s14.628571-36.571429 36.571429-36.571429h197.485714c21.942857 0 36.571429 14.628571 36.571429 36.571429s-18.285714 36.571429-36.571429 36.571429z" fill="#040000" /><path d="M791.04 438.528c-21.942857 0-36.571429-14.628571-36.571429-36.571429v-197.485714c0-21.942857 14.628571-36.571429 36.571429-36.571428s36.571429 14.628571 36.571429 36.571428v197.485714c0 21.942857-18.285714 36.571429-36.571429 36.571429z" fill="#040000" /></svg>