<?xml version="1.0" standalone="no"?><!DOCTYPE svg PUBLIC "-//W3C//DTD SVG 1.1//EN" "http://www.w3.org/Graphics/SVG/1.1/DTD/svg11.dtd"><svg class="icon" width="200px" height="200.00px" viewBox="0 0 1024 1024" version="1.1" xmlns="http://www.w3.org/2000/svg"><path d="M0 0h1024v1024h-1024z" fill="#CCCCCC" fill-opacity="0" /><path d="M411.733333 650.666667c-121.6 0-219.733333-98.133333-219.733333-219.733334 0-121.6 98.133333-219.733333 219.733333-219.733333 121.6 0 219.733333 98.133333 219.733334 219.733333 0 121.6-98.133333 219.733333-219.733334 219.733334z m0-373.333334c-85.333333 0-155.733333 70.4-155.733333 155.733334s70.4 155.733333 155.733333 155.733333 155.733333-70.4 155.733334-155.733333-70.4-155.733333-155.733334-155.733334z" fill="#333333" /><path d="M552.533333 753.066667c-36.266667-78.933333-128-113.066667-204.8-76.8-34.133333 14.933333-61.866667 42.666667-76.8 76.8h281.6m78.933334 64h-439.466667c0-121.6 98.133333-219.733333 219.733333-219.733334 121.6 0 219.733333 98.133333 219.733334 219.733334zM665.6 650.666667v-64c68.266667 0 125.866667-57.6 125.866667-125.866667 0-34.133333-12.8-66.133333-36.266667-89.6s-55.466667-38.4-89.6-38.4v-64c51.2 0 98.133333 21.333333 134.4 57.6 36.266667 36.266667 55.466667 85.333333 55.466667 136.533333-2.133333 100.266667-87.466667 185.6-189.866667 187.733334z" fill="#333333" /><path d="M797.866667 787.2h-140.8v-64h104.533333c-12.8-40.533333-51.2-68.266667-96-68.266667v-64c91.733333 0 164.266667 74.666667 164.266667 164.266667 0 8.533333-4.266667 17.066667-8.533334 23.466667s-14.933333 8.533333-23.466666 8.533333z" fill="#333333" /></svg>