<?xml version="1.0" standalone="no"?><!DOCTYPE svg PUBLIC "-//W3C//DTD SVG 1.1//EN" "http://www.w3.org/Graphics/SVG/1.1/DTD/svg11.dtd"><svg class="icon" width="200px" height="199.80px" viewBox="0 0 1025 1024" version="1.1" xmlns="http://www.w3.org/2000/svg"><path d="M1.066667 0h1024v1024h-1024z" fill="#CCCCCC" fill-opacity="0" /><path d="M82.133333 569.6c2.133333-236.8 196.266667-428.8 433.066667-426.666667 234.666667 2.133333 424.533333 192 426.666667 426.666667v230.4c0 59.733333-49.066667 106.666667-106.666667 106.666667h-53.333333c-59.733333 0-106.666667-49.066667-106.666667-106.666667V640c0-59.733333 49.066667-106.666667 106.666667-106.666667h83.2c-21.333333-194.133333-194.133333-334.933333-388.266667-313.6-164.266667 17.066667-296.533333 149.333333-313.6 313.6h83.2c59.733333 0 106.666667 49.066667 106.666667 106.666667v162.133333c0 59.733333-49.066667 106.666667-106.666667 106.666667h-53.333333c-59.733333 0-106.666667-49.066667-106.666667-106.666667V569.6z m782.933334 38.4h-85.333334c-17.066667 0-29.866667 12.8-29.866666 29.866667v162.133333c0 17.066667 12.8 29.866667 29.866666 29.866667h53.333334c17.066667 0 29.866667-12.8 29.866666-29.866667v-192z m-706.133334 0v192c0 17.066667 12.8 29.866667 29.866667 29.866667h53.333333c17.066667 0 29.866667-12.8 29.866667-29.866667v-162.133333c0-17.066667-12.8-29.866667-29.866667-29.866667h-83.2z" fill="#333333" /></svg>