<?xml version="1.0" standalone="no"?><!DOCTYPE svg PUBLIC "-//W3C//DTD SVG 1.1//EN" "http://www.w3.org/Graphics/SVG/1.1/DTD/svg11.dtd"><svg class="icon" width="200px" height="200.00px" viewBox="0 0 1024 1024" version="1.1" xmlns="http://www.w3.org/2000/svg"><path d="M0 0h1024v1024H0z" fill="#CCCCCC" fill-opacity="0" /><path d="M480 974.08L128 770.88a64 64 0 0 1-32-55.36V308.48a64 64 0 0 1 32-55.36l352-203.2a64 64 0 0 1 64 0l352 203.2a64 64 0 0 1 32 55.36v407.04a64 64 0 0 1-32 55.36l-352 203.2a64 64 0 0 1-64 0z" fill="#333333" /><path d="M512 320a80 80 0 1 1-80 80A80 80 0 0 1 512 320m0-64a144 144 0 1 0 144 144A143.68 143.68 0 0 0 512 256zM352 738.56a32 32 0 0 1-22.72-54.72 256 256 0 0 1 363.52 0 32 32 0 1 1-45.12 45.12 192 192 0 0 0-272.96 0 32 32 0 0 1-22.72 9.6z" fill="#FFFFFF" /></svg>