<?xml version="1.0" standalone="no"?><!DOCTYPE svg PUBLIC "-//W3C//DTD SVG 1.1//EN" "http://www.w3.org/Graphics/SVG/1.1/DTD/svg11.dtd"><svg class="icon" width="200px" height="200.00px" viewBox="0 0 1024 1024" version="1.1" xmlns="http://www.w3.org/2000/svg"><path d="M480 974.08L128 770.88a64 64 0 0 1-32-55.36V308.48a64 64 0 0 1 32-55.36l352-203.2a64 64 0 0 1 64 0l352 203.2a64 64 0 0 1 32 55.36v407.04a64 64 0 0 1-32 55.36l-352 203.2a64 64 0 0 1-64 0z" fill="#333333" /><path d="M629.76 334.4h136.32l-194.56 355.2h-160L320 366.4l-24.32-32h137.6l69.44 244.16z" fill="#FFFFFF" /></svg>