<?xml version="1.0" standalone="no"?><!DOCTYPE svg PUBLIC "-//W3C//DTD SVG 1.1//EN" "http://www.w3.org/Graphics/SVG/1.1/DTD/svg11.dtd"><svg class="icon" width="200px" height="200.00px" viewBox="0 0 1024 1024" version="1.1" xmlns="http://www.w3.org/2000/svg"><path d="M0 0h1024v1024H0z" fill="#CCCCCC" fill-opacity="0" /><path d="M774.4 870.4H249.6c-53.333333 0-96-42.666667-96-96V424.533333c0-34.133333 17.066667-64 44.8-81.066666l262.4-164.266667c29.866667-19.2 70.4-19.2 102.4 0l262.4 164.266667c27.733333 17.066667 44.8 49.066667 44.8 81.066666v349.866667c0 53.333333-42.666667 96-96 96zM232.533333 398.933333c-8.533333 6.4-14.933333 17.066667-14.933333 27.733334v349.866666c0 17.066667 14.933333 32 32 32h524.8c17.066667 0 32-14.933333 32-32V424.533333c0-10.666667-6.4-21.333333-14.933333-27.733333L529.066667 234.666667c-10.666667-6.4-23.466667-6.4-34.133334 0l-262.4 164.266666z" fill="#111111" /><path d="M661.333333 672H384c-17.066667 0-32-14.933333-32-32s14.933333-32 32-32h277.333333c17.066667 0 32 14.933333 32 32s-14.933333 32-32 32z" fill="#111111" /></svg>