<?xml version="1.0" standalone="no"?><!DOCTYPE svg PUBLIC "-//W3C//DTD SVG 1.1//EN" "http://www.w3.org/Graphics/SVG/1.1/DTD/svg11.dtd"><svg class="icon" width="200px" height="200.00px" viewBox="0 0 1024 1024" version="1.1" xmlns="http://www.w3.org/2000/svg"><path d="M0 0h1024v1024H0z" fill="#CCCCCC" fill-opacity="0" /><path d="M793.6 260.266667l-482.133333 162.133333-17.066667 4.266667-17.066667-4.266667-85.333333-19.2v181.333333l85.333333-17.066666 19.2-4.266667 17.066667 6.4 480 187.733333V260.266667m64-29.866667V789.333333c0 23.466667-19.2 42.666667-42.666667 42.666667-4.266667 0-10.666667 0-14.933333-2.133333l-497.066667-194.133334c-8.533333-2.133333-14.933333-4.266667-23.466666-2.133333l-98.133334 19.2c-23.466667 2.133333-46.933333-12.8-51.2-34.133333V375.466667c0-23.466667 19.2-42.666667 42.666667-42.666667 4.266667 0 6.4 0 10.666667 2.133333l98.133333 23.466667c8.533333 2.133333 14.933333 2.133333 23.466667 0L804.266667 192c21.333333-8.533333 46.933333 4.266667 53.333333 27.733333v10.666667z" fill="#111111" /><path d="M537.6 870.4h-106.666667c-40.533333 0-74.666667-34.133333-74.666666-74.666667V640h64v153.6c0 6.4 4.266667 10.666667 10.666666 10.666667h106.666667c6.4 0 10.666667-4.266667 10.666667-10.666667v-72.533333h64v72.533333c0 42.666667-34.133333 76.8-74.666667 76.8z" fill="#111111" /></svg>