<?xml version="1.0" standalone="no"?><!DOCTYPE svg PUBLIC "-//W3C//DTD SVG 1.1//EN" "http://www.w3.org/Graphics/SVG/1.1/DTD/svg11.dtd"><svg class="icon" width="200px" height="200.00px" viewBox="0 0 1024 1024" version="1.1" xmlns="http://www.w3.org/2000/svg"><path d="M0 0h1024v1024H0z" fill="#CCCCCC" fill-opacity="0" /><path d="M584.533333 490.666667h-149.333333c-40.533333 0-74.666667-34.133333-74.666667-74.666667v-192c0-40.533333 34.133333-74.666667 74.666667-74.666667h149.333333c40.533333 0 74.666667 34.133333 74.666667 74.666667v192c0 40.533333-32 74.666667-74.666667 74.666667z m-149.333333-277.333334c-6.4 0-10.666667 4.266667-10.666667 10.666667v192c0 6.4 4.266667 10.666667 10.666667 10.666667h149.333333c6.4 0 10.666667-4.266667 10.666667-10.666667v-192c0-6.4-4.266667-10.666667-10.666667-10.666667h-149.333333z" fill="#111111" /><path d="M780.8 806.4l-25.6-181.333333H270.933333l-25.6 181.333333h535.466667m74.666667 64H170.666667l38.4-253.866667c4.266667-32 32-55.466667 64-55.466666h482.133333c32 0 59.733333 23.466667 64 55.466666l36.266667 253.866667z" fill="#111111" /></svg>