<?xml version="1.0" standalone="no"?><!DOCTYPE svg PUBLIC "-//W3C//DTD SVG 1.1//EN" "http://www.w3.org/Graphics/SVG/1.1/DTD/svg11.dtd"><svg class="icon" width="200px" height="200.00px" viewBox="0 0 1024 1024" version="1.1" xmlns="http://www.w3.org/2000/svg"><path d="M0 0h1024v1024H0z" fill="#CCCCCC" fill-opacity="0" /><path d="M268.8 874.666667c-17.066667 0-32-14.933333-32-32v-661.333334c0-17.066667 14.933333-32 32-32s32 14.933333 32 32v661.333334c0 17.066667-14.933333 32-32 32z" fill="#111111" /><path d="M725.333333 490.666667H234.666667V149.333333h394.666666C682.666667 149.333333 725.333333 192 725.333333 245.333333V490.666667z m-426.666666-64h362.666666v-181.333334c0-17.066667-14.933333-32-32-32H298.666667v213.333334z" fill="#111111" /><path d="M793.6 693.333333H422.4V475.733333h64v153.6h307.2c17.066667 0 32-14.933333 32-32v-172.8c0-17.066667-14.933333-32-32-32H682.666667v-64h110.933333c53.333333 0 96 42.666667 96 96V597.333333c0 53.333333-42.666667 96-96 96z" fill="#111111" /></svg>