<?xml version="1.0" standalone="no"?><!DOCTYPE svg PUBLIC "-//W3C//DTD SVG 1.1//EN" "http://www.w3.org/Graphics/SVG/1.1/DTD/svg11.dtd"><svg class="icon" width="200px" height="200.00px" viewBox="0 0 1024 1024" version="1.1" xmlns="http://www.w3.org/2000/svg"><path d="M0.724699 0.895217h1023.104784v1023.104783h-1023.104784z" fill="#CCCCCC" fill-opacity="0" /><path d="M623.113442 723.46297c-10.657341 12.78881-29.840556 14.920278-42.629366 4.262936-2.131468-2.131468-4.262937-2.131468-4.262936-4.262936-14.920278-14.920278-4.262937-40.497898 12.78881-57.549644 83.127264-83.127264 83.127264-219.541235 0-302.668499-14.920278-14.920278-27.709088-40.497898-12.78881-57.549644 10.657341-12.78881 29.840556-14.920278 42.629366-6.394405 2.131468 2.131468 4.262937 2.131468 4.262936 4.262937 115.099288 119.362225 115.099288 304.799967 0 419.899255z m-117.230756-110.836352c-10.657341 10.657341-27.709088 12.78881-38.366429 2.131469l-2.131469-2.131469c-12.78881-12.78881-4.262937-31.972024 8.525874-44.760834 31.972024-31.972024 31.972024-83.127264 0-112.96782-12.78881-12.78881-21.314683-31.972024-8.525874-44.760834 10.657341-10.657341 27.709088-12.78881 38.36643-2.131468l2.131468 2.131468c27.709088 27.709088 42.629366 63.944049 42.629366 102.310478-2.131468 36.234961-17.051746 72.469922-42.629366 100.17901z" fill="#333333" /><path d="M599.667291 746.909121c-8.525873 0-19.183215-2.131468-25.577619-8.525873l-6.394405-6.394405c-6.394405-6.394405-10.657341-14.920278-10.657342-25.577619 0-14.920278 8.525873-31.972024 23.446151-46.892303 78.864327-78.864327 78.864327-208.883893 0-287.74822-19.183215-19.183215-31.972024-51.155239-12.788809-72.469923 6.394405-8.525873 14.920278-12.78881 27.709088-14.920278 10.657341-2.131468 21.314683 2.131468 29.840556 8.525874l6.394405 6.394404c117.230756 117.230756 117.230756 311.194372 0 430.556597-8.525873 10.657341-21.314683 17.051746-31.972025 17.051746z m0-441.213938h-2.131468c-6.394405 0-10.657341 4.262937-12.78881 8.525874-10.657341 12.78881 0 31.972024 10.657342 42.629366 87.3902 87.3902 87.3902 230.198576 0 317.588776-10.657341 10.657341-17.051746 21.314683-17.051747 31.972025 0 4.262937 2.131468 8.525873 4.262937 10.657341 2.131468 2.131468 2.131468 4.262937 4.262936 4.262937 8.525873 6.394405 21.314683 6.394405 27.709088-4.262937 108.704883-110.836352 108.704883-289.879689 0-400.71604l-4.262936-4.262937c-2.131468-4.262937-6.394405-6.394405-10.657342-6.394405z m-115.099288 326.11465c-8.525873 0-17.051746-2.131468-25.57762-8.525873l-4.262936-4.262937c-17.051746-17.051746-8.525873-42.629366 8.525873-59.681112 27.709088-27.709088 27.709088-72.469922 0-98.047542-17.051746-17.051746-25.57762-42.629366-8.525873-59.681112 12.78881-14.920278 38.366429-17.051746 53.286707-2.131468l4.262937 4.262936c27.709088 27.709088 44.760834 68.206986 44.760834 108.704883 0 40.497898-17.051746 80.995795-44.760834 110.836352l-10.657342 10.657341v-2.131468c-6.394405-2.131468-10.657341 0-17.051746 0z m0-223.804171c-4.262937 0-8.525873 2.131468-12.78881 6.394405-8.525873 8.525873 0 23.446151 8.525873 29.840556 36.234961 36.234961 36.234961 93.784605 0 130.019566-8.525873 8.525873-14.920278 23.446151-8.525873 29.840556l-4.262936 10.657342 6.394405-8.525874c6.394405 6.394405 17.051746 6.394405 23.446151-2.131468l10.657341-12.78881c19.183215-23.446151 29.840556-53.286707 29.840556-83.127263 0-36.234961-14.920278-70.338454-40.497897-93.784605l4.262936-10.657342-6.394405 8.525873c-4.262937-2.131468-6.394405-4.262937-10.657341-4.262936z" fill="#333333" /><path d="M326.839349 510.31614c0 21.314683 17.051746 40.497898 40.497898 40.497898s40.497898-17.051746 40.497897-40.497898c0-21.314683-17.051746-40.497898-40.497897-40.497898-23.446151 0-40.497898 17.051746-40.497898 40.497898z" fill="#333333" /><path d="M365.205778 561.471379c-27.709088 0-51.155239-23.446151-51.155239-51.155239 0-27.709088 23.446151-51.155239 51.155239-51.155239 27.709088 0 51.155239 23.446151 51.155239 51.155239 0 27.709088-21.314683 51.155239-51.155239 51.155239z m0-80.995795c-17.051746 0-29.840556 12.78881-29.840556 29.840556 0 17.051746 12.78881 29.840556 29.840556 29.840556s29.840556-12.78881 29.840556-29.840556-12.78881-29.840556-29.840556-29.840556z" fill="#333333" /><path d="M518.671496 940.872736c-234.461513 0-426.29366-191.832147-426.29366-426.293659s191.832147-426.29366 426.29366-426.29366 426.29366 191.832147 426.293659 426.29366-191.832147 426.29366-426.293659 426.293659z m0-767.328587c-187.56921 0-341.034928 153.465717-341.034928 341.034928s153.465717 341.034928 341.034928 341.034927 341.034928-153.465717 341.034928-341.034927-153.465717-341.034928-341.034928-341.034928z" fill="#333333" /></svg>