<?xml version="1.0" standalone="no"?><!DOCTYPE svg PUBLIC "-//W3C//DTD SVG 1.1//EN" "http://www.w3.org/Graphics/SVG/1.1/DTD/svg11.dtd"><svg class="icon" width="200px" height="200.00px" viewBox="0 0 1024 1024" version="1.1" xmlns="http://www.w3.org/2000/svg"><path d="M0 1.065557h1022.934443v1022.934443H0z" fill="#CCCCCC" fill-opacity="0" /><path d="M642.360208 709.554214h-121.473465c-49.015609 0-93.768991-19.180021-127.866805-53.277835s-53.277836-78.851197-53.277836-127.866806c0-100.162331 80.98231-181.144641 181.144641-181.144641h121.473465c23.442248 0 42.622268 19.180021 42.622269 42.622269v274.913631c0 25.573361-19.180021 44.753382-42.622269 44.753382z m-121.473465-274.913631c-53.277836 0-95.900104 42.622268-95.900104 95.900104 0 25.573361 10.655567 49.015609 27.704474 66.064516s42.622268 27.704475 66.064517 27.704474h78.851196v-189.669094h-76.720083z" fill="#333333" /><path d="M716.949178 924.79667h-223.76691c-217.373569 0-394.255983-176.882414-394.255983-394.255983v-19.180021c0-228.029136 185.406868-413.436004 413.436004-413.436004 110.817898 0 215.242456 42.622268 291.962539 121.473465 78.851197 78.851197 121.473465 181.144641 121.473465 291.962539 0 55.408949-10.655567 110.817898-31.966701 161.96462l-6.39334 10.655567c-6.39334 14.917794-21.311134 25.573361-38.360042 25.573361h-330.32258c-23.442248 0-42.622268-19.180021-42.622269-42.622268s19.180021-42.622268 42.622269-42.622269h300.486992c12.786681-36.228928 19.180021-74.58897 19.180021-112.949011 0-87.37565-34.097815-170.489074-95.900104-232.291363-59.671176-61.802289-142.784599-95.900104-230.16025-95.900104-181.144641 0-328.191467 147.046826-328.191467 328.191467v19.180021c0 170.489074 138.522373 309.011446 309.011446 309.011446h223.76691c23.442248 0 42.622268 19.180021 42.622268 42.622269s-19.180021 42.622268-42.622268 42.622268z" fill="#333333" /></svg>