<?xml version="1.0" standalone="no"?><!DOCTYPE svg PUBLIC "-//W3C//DTD SVG 1.1//EN" "http://www.w3.org/Graphics/SVG/1.1/DTD/svg11.dtd"><svg class="icon" width="200px" height="200.00px" viewBox="0 0 1024 1024" version="1.1" xmlns="http://www.w3.org/2000/svg"><path d="M0.000178 1.065557h1022.934443v1022.934443h-1022.934443z" fill="#CCCCCC" fill-opacity="0" /><path d="M511.467399 953.673257c-234.422477 0-426.222685-191.800208-426.222684-426.222685s191.800208-426.222685 426.222684-426.222684 426.222685 191.800208 426.222685 426.222684-191.800208 426.222685-426.222685 426.222685z m0-767.200832c-187.537981 0-340.978148 153.440166-340.978148 340.978147s153.440166 340.978148 340.978148 340.978148 340.978148-153.440166 340.978148-340.978148-153.440166-340.978148-340.978148-340.978147z" fill="#333333" /><path d="M511.467399 781.05307c-34.097815 0-70.326743-8.524454-100.162331-27.704475-29.835588-17.048907-53.277836-40.491155-70.326743-70.326743-12.786681-21.311134-4.262227-46.884495 14.917794-57.540062 21.311134-12.786681 46.884495-4.262227 57.540063 14.917794 10.655567 17.048907 23.442248 29.835588 40.491155 40.491155 53.277836 31.966701 123.604579 12.786681 155.57128-40.491155 12.786681-21.311134 38.360042-27.704475 57.540062-14.917794 21.311134 12.786681 27.704475 38.360042 14.917794 57.540062-27.704475 44.753382-70.326743 78.851197-121.473465 91.637877-14.917794 4.262227-31.966701 6.39334-49.015609 6.393341zM684.087587 493.352758h-76.720084c-23.442248 0-42.622268-19.180021-42.622268-42.622269s19.180021-42.622268 42.622268-42.622268h76.720084c23.442248 0 42.622268 19.180021 42.622268 42.622268s-19.180021 42.622268-42.622268 42.622269zM377.207254 531.712799c-23.442248 0-42.622268-19.180021-42.622269-42.622268v-76.720084c0-23.442248 19.180021-42.622268 42.622269-42.622268s42.622268 19.180021 42.622268 42.622268v76.720084c0 23.442248-19.180021 42.622268-42.622268 42.622268z" fill="#333333" /></svg>