<?xml version="1.0" standalone="no"?><!DOCTYPE svg PUBLIC "-//W3C//DTD SVG 1.1//EN" "http://www.w3.org/Graphics/SVG/1.1/DTD/svg11.dtd"><svg class="icon" width="200px" height="200.00px" viewBox="0 0 1024 1024" version="1.1" xmlns="http://www.w3.org/2000/svg"><path d="M0 0h1024v1024H0z" fill="#CCCCCC" fill-opacity="0" /><path d="M874.666667 881.6H149.333333c-23.466667 0-42.666667-19.2-42.666666-42.666667v-622.933333c0-23.466667 19.2-42.666667 42.666666-42.666667h725.333334c23.466667 0 42.666667 19.2 42.666666 42.666667v622.933333c0 25.6-19.2 42.666667-42.666666 42.666667z m-682.666667-85.333333h640v-537.6H192v537.6z" fill="#333333" /><path d="M174.933333 823.466667l-53.333333-66.133334 349.866667-279.466666c17.066667-14.933333 42.666667-12.8 57.6 4.266666l155.733333 177.066667 153.6-134.4 55.466667 64-185.6 162.133333c-17.066667 14.933333-44.8 12.8-59.733334-4.266666L490.666667 569.6 174.933333 823.466667zM332.8 445.866667h-25.6c-23.466667 0-42.666667-19.2-42.666667-42.666667s19.2-42.666667 42.666667-42.666667h25.6c23.466667 0 42.666667 19.2 42.666667 42.666667s-19.2 42.666667-42.666667 42.666667z" fill="#333333" /></svg>