<?xml version="1.0" standalone="no"?><!DOCTYPE svg PUBLIC "-//W3C//DTD SVG 1.1//EN" "http://www.w3.org/Graphics/SVG/1.1/DTD/svg11.dtd"><svg class="icon" width="200px" height="200.00px" viewBox="0 0 1024 1024" version="1.1" xmlns="http://www.w3.org/2000/svg"><path d="M0 0h1024v1024H0z" fill="#CCCCCC" fill-opacity="0" /><path d="M512 938.666667C277.333333 938.666667 85.333333 746.666667 85.333333 512S277.333333 85.333333 512 85.333333s426.666667 192 426.666667 426.666667-192 426.666667-426.666667 426.666667z m0-768C324.266667 170.666667 170.666667 324.266667 170.666667 512s153.6 341.333333 341.333333 341.333333 341.333333-153.6 341.333333-341.333333S699.733333 170.666667 512 170.666667z" fill="#333333" /><path d="M339.2 416c25.6 0 46.933333-21.333333 46.933333-46.933333s-21.333333-46.933333-46.933333-46.933334-46.933333 21.333333-46.933333 46.933334 21.333333 46.933333 46.933333 46.933333zM339.2 569.6c25.6 0 46.933333-21.333333 46.933333-46.933333s-21.333333-46.933333-46.933333-46.933334-46.933333 21.333333-46.933333 46.933334 21.333333 46.933333 46.933333 46.933333zM512 416c25.6 0 46.933333-21.333333 46.933333-46.933333s-21.333333-46.933333-46.933333-46.933334-46.933333 21.333333-46.933333 46.933334 21.333333 46.933333 46.933333 46.933333zM512 569.6c25.6 0 46.933333-21.333333 46.933333-46.933333s-21.333333-46.933333-46.933333-46.933334-46.933333 21.333333-46.933333 46.933334 21.333333 46.933333 46.933333 46.933333zM684.8 416c25.6 0 46.933333-21.333333 46.933333-46.933333s-21.333333-46.933333-46.933333-46.933334-46.933333 21.333333-46.933333 46.933334 21.333333 46.933333 46.933333 46.933333zM684.8 569.6c25.6 0 46.933333-21.333333 46.933333-46.933333s-21.333333-46.933333-46.933333-46.933334-46.933333 21.333333-46.933333 46.933334 21.333333 46.933333 46.933333 46.933333z" fill="#333333" /><path d="M646.4 727.466667H377.6c-23.466667 0-42.666667-19.2-42.666667-42.666667s19.2-42.666667 42.666667-42.666667h268.8c23.466667 0 42.666667 19.2 42.666667 42.666667s-19.2 42.666667-42.666667 42.666667z" fill="#333333" /></svg>