<?xml version="1.0" standalone="no"?><!DOCTYPE svg PUBLIC "-//W3C//DTD SVG 1.1//EN" "http://www.w3.org/Graphics/SVG/1.1/DTD/svg11.dtd"><svg class="icon" width="200px" height="200.00px" viewBox="0 0 1024 1024" version="1.1" xmlns="http://www.w3.org/2000/svg"><path d="M0.000733 0.703516h1023.296483v1023.296484h-1023.296483v-1023.296484z" fill="#CCCCCC" fill-opacity="0" /><path d="M507.385239 821.472571c-170.549414 0-309.120813-138.571399-309.120812-309.120813s138.571399-309.120813 309.120812-309.120813 309.120813 138.571399 309.120813 309.120813-138.571399 309.120813-309.120813 309.120813z m0-554.285595c-134.307663 0-245.164783 110.857119-245.164782 245.164782s110.857119 245.164783 245.164782 245.164783 245.164783-110.857119 245.164783-245.164783-110.857119-245.164783-245.164783-245.164782z" fill="#999999" /><path d="M409.319326 424.945184c-8.527471 0-19.186809-4.263735-25.582412-10.659339-10.659338-12.791206-8.527471-34.109883 4.263736-44.769221 10.659338-8.527471 21.318677-14.923074 31.978015-21.318677 14.923074-8.527471 34.109883-2.131868 42.637353 12.791206 8.527471 14.923074 2.131868 34.109883-12.791206 42.637354-8.527471 4.263735-14.923074 8.527471-21.318677 14.923073-4.263735 4.263735-10.659338 6.395603-19.186809 6.395604zM795.187375 810.813233c-8.527471 0-17.054941-2.131868-23.450544-8.527471l-63.95603-63.95603c-12.791206-12.791206-12.791206-31.978015 0-44.769222s31.978015-12.791206 44.769221 0l63.95603 63.956031c12.791206 12.791206 12.791206 31.978015 0 44.769221-4.263735 4.263735-12.791206 8.527471-21.318677 8.527471z" fill="#999999" /></svg>