<?xml version="1.0" standalone="no"?><!DOCTYPE svg PUBLIC "-//W3C//DTD SVG 1.1//EN" "http://www.w3.org/Graphics/SVG/1.1/DTD/svg11.dtd"><svg class="icon" width="200px" height="200.00px" viewBox="0 0 1024 1024" version="1.1" xmlns="http://www.w3.org/2000/svg"><path d="M0.824843 0h1023.943114v1023.943114h-1023.943114z" fill="#CCCCCC" fill-opacity="0" /><path d="M512.7964 810.621632c42.664296-19.910005 119.46003-62.574301 193.411477-125.148603 56.885729-48.352869 99.550025-99.550025 127.99289-153.591467 31.287151-62.574301 39.82001-122.304316 25.598577-187.722904-11.377146-54.041442-31.287151-91.017166-59.730015-110.927171-22.754291-17.065719-54.041442-25.598578-91.017165-25.598578-68.262874 0-136.525749 28.442864-150.747181 34.131437-11.377146 5.688573-25.598578 8.532859-39.82001 8.53286h-5.688573c-14.221432 0-28.442864-2.844286-39.82001-8.53286-14.221432-5.688573-82.484306-34.131437-150.747181-34.131437-36.975724 0-68.262874 8.532859-91.017165 25.598578-28.442864 19.910005-48.352869 59.730015-59.730015 110.927171-14.221432 65.418588-5.688573 127.992889 25.598578 187.722904 25.598578 51.197156 68.262874 105.238598 127.992889 153.591467 65.418588 62.574301 145.058608 105.238598 187.722904 125.148603m2.844287 91.017166h-5.688573s-503.438698-207.632909-426.642965-577.390145c34.131437-162.124326 139.370035-204.788623 236.075774-204.788623 99.550025 0 190.567191 42.664296 190.567191 42.664296h5.688573s91.017166-42.664296 190.56719-42.664296c96.705739 0 201.944336 42.664296 236.075774 204.788623 76.795734 372.601522-426.642964 577.390145-426.642964 577.390145z" fill="#999999" /></svg>