<?xml version="1.0" standalone="no"?><!DOCTYPE svg PUBLIC "-//W3C//DTD SVG 1.1//EN" "http://www.w3.org/Graphics/SVG/1.1/DTD/svg11.dtd"><svg class="icon" width="200px" height="200.00px" viewBox="0 0 1024 1024" version="1.1" xmlns="http://www.w3.org/2000/svg"><path d="M0 0h1024v1024H0z" fill="#CCCCCC" fill-opacity="0" /><path d="M522.496 807.552c42.666667-21.333333 119.466667-64 192-123.733333 55.466667-46.933333 98.133333-98.133333 128-153.6 29.866667-59.733333 38.4-123.733333 25.6-187.733334-12.8-51.2-29.866667-89.6-59.733333-110.933333-21.333333-17.066667-51.2-25.6-89.6-25.6-68.266667 0-136.533333 25.6-149.333334 34.133333-12.8 4.266667-25.6 8.533333-38.4 8.533334h-4.266666c-12.8 0-25.6-4.266667-38.4-8.533334-17.066667-8.533333-81.066667-34.133333-149.333334-34.133333-38.4 0-68.266667 8.533333-89.6 25.6-29.866667 21.333333-46.933333 59.733333-59.733333 110.933333-12.8 64-4.266667 123.733333 25.6 187.733334 25.6 51.2 68.266667 102.4 128 153.6 59.733333 59.733333 136.533333 102.4 179.2 123.733333m4.266667 93.866667h-8.533334s-499.2-204.8-426.666666-571.733334c34.133333-162.133333 136.533333-204.8 234.666666-204.8s192 42.666667 192 42.666667h8.533334s89.6-42.666667 192-42.666667c98.133333 0 200.533333 42.666667 234.666666 204.8 72.533333 362.666667-430.933333 571.733333-426.666666 571.733334z" fill="#999999" /></svg>