<?xml version="1.0" standalone="no"?><!DOCTYPE svg PUBLIC "-//W3C//DTD SVG 1.1//EN" "http://www.w3.org/Graphics/SVG/1.1/DTD/svg11.dtd"><svg class="icon" width="200px" height="200.00px" viewBox="0 0 1024 1024" version="1.1" xmlns="http://www.w3.org/2000/svg"><path d="M0.19188 0.66092h1023.3604v1023.3604h-1023.3604z" fill="#CCCCCC" fill-opacity="0" /><path d="M503.088237 882.818905c38.376015-19.188007 125.788049-63.960025 206.80408-132.184052 61.828024-51.16802 108.732042-106.600042 136.448054-162.032063 17.056007-31.980012 27.716011-63.960025 31.980012-98.072038 6.396002-36.244014 4.264002-72.488028-2.132001-108.732043-12.792005-59.696023-36.244014-102.33604-70.356027-125.788049-27.716011-19.188007-61.828024-29.848012-106.600042-29.848012-74.620029 0-147.108057 29.848012-164.164064 36.244015-8.528003 4.264002-19.188007 6.396002-29.848012 6.396002h-6.396002c-10.660004 0-21.320008-2.132001-29.848012-6.396002-14.924006-6.396002-87.412034-36.244014-164.164064-36.244015-42.640017 0-78.884031 10.660004-106.600042 29.848012-34.112013 25.58401-57.564022 66.092026-70.356027 125.788049-8.528003 36.244014-8.528003 72.488028-4.264002 108.732043 4.264002 31.980012 14.924006 63.960025 31.980013 95.940037 27.716011 55.432022 74.620029 110.864043 134.316052 162.032063 85.280033 70.356027 172.692067 115.128045 213.200084 134.316053m4.264001 68.224027h-6.396002s-509.548199-208.936082-432.796169-582.036228c34.112013-164.164064 140.712055-206.804081 238.784093-206.804081 100.204039 0 194.012076 44.772017 194.012076 44.772018h6.396002s93.808037-44.772017 194.012076-44.772018c98.072038 0 204.67208 42.640017 238.784093 206.804081 76.75203 373.100146-434.92817 582.036227-432.796169 582.036228z" fill="#333333" /></svg>