<?xml version="1.0" standalone="no"?><!DOCTYPE svg PUBLIC "-//W3C//DTD SVG 1.1//EN" "http://www.w3.org/Graphics/SVG/1.1/DTD/svg11.dtd"><svg class="icon" width="200px" height="200.00px" viewBox="0 0 1024 1024" version="1.1" xmlns="http://www.w3.org/2000/svg"><path d="M0 0h1024v1024H0z" fill="#FFFFFF" fill-opacity="0" /><path d="M625.066667 896.405333c-6.4 0-12.8-2.133333-19.2-4.266666l-198.4-102.4-179.2 70.4c-12.8 4.266667-27.733333 4.266667-40.533334-4.266667s-19.2-21.333333-19.2-36.266667v-262.4c0-23.466667 19.2-42.666667 42.666667-42.666666s42.666667 19.2 42.666667 42.666666v198.4l138.666666-55.466666c10.666667-4.266667 23.466667-4.266667 36.266667 2.133333l194.133333 100.266667 136.533334-85.333334v-160c0-23.466667 19.2-42.666667 42.666666-42.666666s42.666667 19.2 42.666667 42.666666v183.466667c0 14.933333-8.533333 27.733333-19.2 36.266667l-177.066667 110.933333c-6.4 6.4-14.933333 8.533333-23.466666 8.533333z" fill="#333333" /><path d="M505.6 679.189333l-174.933333-185.6c-27.733333-36.266667-42.666667-83.2-42.666667-128 0-117.333333 96-215.466667 215.466667-215.466666h6.4c117.333333 0 215.466667 96 215.466666 215.466666 0 44.8-14.933333 91.733333-42.666666 128l-4.266667 4.266667-172.8 181.333333z m-108.8-241.066666l108.8 115.2 108.8-115.2c14.933333-21.333333 23.466667-49.066667 23.466667-74.666667 0-70.4-57.6-130.133333-130.133334-130.133333h-6.4c-70.4 0-130.133333 57.6-130.133333 130.133333 2.133333 27.733333 10.666667 53.333333 25.6 74.666667z" fill="#333333" /></svg>