<?xml version="1.0" standalone="no"?><!DOCTYPE svg PUBLIC "-//W3C//DTD SVG 1.1//EN" "http://www.w3.org/Graphics/SVG/1.1/DTD/svg11.dtd"><svg class="icon" width="200px" height="200.00px" viewBox="0 0 1024 1024" version="1.1" xmlns="http://www.w3.org/2000/svg"><path d="M377.307429 627.2c0-138.971429 120.210286-251.702857 268.489142-251.702857a281.6 281.6 0 0 1 125.842286 29.403428c-33.042286-135.972571-162.56-237.549714-317.622857-237.549714C273.956571 167.350857 128 304.182857 128 472.996571a288.914286 288.914286 0 0 0 33.609143 135.314286c13.494857 25.6 12.617143 88.246857 9.673143 134.802286a40.813714 40.813714 0 0 0 50.102857 42.203428c49.554286-11.501714 118.162286-25.124571 141.732571-18.724571a343.771429 343.771429 0 0 0 67.986286 11.282286 240.182857 240.182857 0 0 1-53.796571-150.674286z" fill="#FFFFFF" /><path d="M859.428571 627.2c0-108.544-95.835429-196.845714-213.632-196.845714S432.164571 518.582857 432.164571 627.2s95.835429 196.845714 213.632 196.845714a230.893714 230.893714 0 0 0 60.489143-7.990857 106.185143 106.185143 0 0 1 27.904-3.273143 413.147429 413.147429 0 0 1 88.374857 12.16c-2.011429-68.48 7.003429-95.762286 15.524572-111.908571A182.253714 182.253714 0 0 0 859.428571 627.2z m-274.450285 16.969143a31.085714 31.085714 0 1 1 31.085714-31.085714 31.085714 31.085714 0 0 1-31.085714 31.012571z m160.182857 0a31.085714 31.085714 0 1 1 31.085714-31.085714 31.085714 31.085714 0 0 1-31.085714 31.012571z" fill="#FFFFFF" /></svg>