<?xml version="1.0" standalone="no"?><!DOCTYPE svg PUBLIC "-//W3C//DTD SVG 1.1//EN" "http://www.w3.org/Graphics/SVG/1.1/DTD/svg11.dtd"><svg class="icon" width="200px" height="200.00px" viewBox="0 0 1024 1024" version="1.1" xmlns="http://www.w3.org/2000/svg"><path d="M380.342857 627.2c0-138.971429 120.685714-252.342857 268.8-252.342857 43.885714 0 85.942857 9.142857 126.171429 29.257143-32.914286-135.314286-162.742857-237.714286-318.171429-237.714286-179.2 0-325.485714 137.142857-325.485714 305.371429 0 47.542857 10.971429 93.257143 32.914286 135.314285 12.8 25.6 12.8 87.771429 9.142857 135.314286-1.828571 21.942857 16.457143 42.057143 38.4 43.885714 3.657143 0 7.314286 0 10.971428-1.828571 49.371429-10.971429 118.857143-25.6 142.628572-18.285714 21.942857 5.485714 45.714286 9.142857 67.657143 10.971428-32.914286-42.057143-53.028571-95.085714-53.028572-149.942857z" fill="#FFFFFF" /><path d="M863.085714 627.2c0-107.885714-95.085714-197.485714-213.942857-197.485714s-213.942857 87.771429-213.942857 197.485714S530.285714 824.685714 649.142857 824.685714c20.114286 0 40.228571-1.828571 60.342857-7.314285 9.142857-1.828571 18.285714-3.657143 27.428572-3.657143 29.257143 0 60.342857 5.485714 87.771428 12.8-1.828571-67.657143 7.314286-95.085714 14.628572-111.542857 16.457143-27.428571 23.771429-56.685714 23.771428-87.771429z m-274.285714 18.285714c-16.457143 0-31.085714-14.628571-31.085714-31.085714 0-16.457143 14.628571-31.085714 31.085714-31.085714s31.085714 14.628571 31.085714 31.085714c0 16.457143-14.628571 31.085714-31.085714 31.085714z m159.085714 0c-16.457143 0-31.085714-14.628571-31.085714-31.085714 0-16.457143 14.628571-31.085714 31.085714-31.085714s31.085714 14.628571 31.085715 31.085714c0 16.457143-12.8 31.085714-31.085715 31.085714z" fill="#FFFFFF" /></svg>