<?xml version="1.0" standalone="no"?><!DOCTYPE svg PUBLIC "-//W3C//DTD SVG 1.1//EN" "http://www.w3.org/Graphics/SVG/1.1/DTD/svg11.dtd"><svg class="icon" width="200px" height="200.00px" viewBox="0 0 1024 1024" version="1.1" xmlns="http://www.w3.org/2000/svg"><path d="M634.514286 175.542857c3.657143 38.4-7.314286 76.8-31.085715 106.057143-23.771429 31.085714-60.342857 51.2-100.571428 51.2-3.657143-38.4 7.314286-74.971429 32.914286-104.228571 23.771429-29.257143 60.342857-47.542857 98.742857-53.028572zM749.714286 735.085714c16.457143-25.6 31.085714-51.2 42.057143-78.628571-74.971429-29.257143-111.542857-111.542857-84.114286-186.514286 12.8-31.085714 34.742857-58.514286 64-74.971428-29.257143-40.228571-74.971429-64-124.342857-65.828572-25.6 0-51.2 5.485714-73.142857 16.457143-16.457143 7.314286-32.914286 10.971429-51.2 12.8-20.114286-1.828571-38.4-5.485714-56.685715-12.8-21.942857-9.142857-45.714286-14.628571-67.657143-14.628571-56.685714 3.657143-107.885714 34.742857-137.142857 82.285714-47.542857 73.142857-38.4 212.114286 38.4 329.142857 27.428571 42.057143 64 89.6 111.542857 89.6 16.457143 0 32.914286-3.657143 47.542858-12.8 20.114286-10.971429 42.057143-14.628571 65.828571-14.628571 21.942857 0 43.885714 5.485714 64 14.628571 14.628571 7.314286 31.085714 12.8 47.542857 12.8 47.542857-1.828571 85.942857-54.857143 113.371429-96.914286z" fill="#FFFFFF" /></svg>