<?xml version="1.0" standalone="no"?><!DOCTYPE svg PUBLIC "-//W3C//DTD SVG 1.1//EN" "http://www.w3.org/Graphics/SVG/1.1/DTD/svg11.dtd"><svg class="icon" width="200px" height="200.00px" viewBox="0 0 1024 1024" version="1.1" xmlns="http://www.w3.org/2000/svg"><path d="M739.584 460.909714a732.726857 732.726857 0 0 1-246.272 45.714286 561.115429 561.115429 0 0 1-60.726857-3.309714v68.260571H373.028571V493.348571a363.282286 363.282286 0 0 1-88.996571-31.945142c-51.84 66.395429-158.317714 221.037714 23.369143 165.138285 0 0 17.627429 105.709714 52.864 123.337143 0 0-173.44 138.093714 151.771428 71.314286 325.174857 66.742857 151.771429-71.314286 151.771429-71.314286 35.236571-17.627429 52.864-123.337143 52.864-123.337143 182.052571 56.027429 74.678857-99.510857 22.912-165.632z" fill="#FFFFFF" /><path d="M309.284571 407.259429c1.462857 0.896 150.217143 88.649143 406.582858-1.28C704.310857 181.065143 546.742857 182.180571 512 185.197714c-34.925714-3.035429-194.011429-4.224-204.086857 224.237715z" fill="#FFFFFF" /></svg>