<?xml version="1.0" standalone="no"?><!DOCTYPE svg PUBLIC "-//W3C//DTD SVG 1.1//EN" "http://www.w3.org/Graphics/SVG/1.1/DTD/svg11.dtd"><svg class="icon" width="200px" height="200.00px" viewBox="0 0 1024 1024" version="1.1" xmlns="http://www.w3.org/2000/svg"><path d="M634.697143 176.237714a144.036571 144.036571 0 0 1-31.670857 106.258286 129.517714 129.517714 0 0 1-100.333715 51.2 133.266286 133.266286 0 0 1 32.530286-103.625143 153.709714 153.709714 0 0 1 99.474286-53.833143z m114.578286 559.542857a473.6 473.6 0 0 0 42.276571-79.36 144.256 144.256 0 0 1-18.925714-260.626285 165.650286 165.650286 0 0 0-125.056-66.395429 191.305143 191.305143 0 0 0-73.947429 15.945143 136.996571 136.996571 0 0 1-50.395428 12.141714 164.571429 164.571429 0 0 1-56.356572-13.019428 194.468571 194.468571 0 0 0-68.425143-14.994286 169.782857 169.782857 0 0 0-136.649143 82.596571c-47.323429 73.362286-39.259429 211.346286 37.504 328.905143 27.428571 42.057143 64 89.307429 112 89.746286a103.515429 103.515429 0 0 0 47.451429-12.16 143.780571 143.780571 0 0 1 65.060571-15.524571 135.314286 135.314286 0 0 1 64.749715 15.36 99.017143 99.017143 0 0 0 46.628571 12.178285c47.981714-0.347429 86.656-52.754286 114.066286-94.811428z" fill="#FFFFFF" /></svg>