<?xml version="1.0" standalone="no"?><!DOCTYPE svg PUBLIC "-//W3C//DTD SVG 1.1//EN" "http://www.w3.org/Graphics/SVG/1.1/DTD/svg11.dtd"><svg class="icon" width="200px" height="200.00px" viewBox="0 0 1024 1024" version="1.1" xmlns="http://www.w3.org/2000/svg"><path d="M740.150857 460.562286c-78.628571 29.257143-162.742857 43.885714-246.857143 45.714285-20.114286 0-40.228571-1.828571-60.342857-3.657142v67.657142h-60.342857v-78.628571c-31.085714-7.314286-60.342857-18.285714-89.6-31.085714-51.2 65.828571-159.085714 221.257143 23.771429 164.571428 0 0 18.285714 106.057143 53.028571 122.514286 0 0-173.714286 138.971429 151.771429 71.314286 325.485714 67.657143 151.771429-71.314286 151.771428-71.314286 34.742857-18.285714 53.028571-122.514286 53.028572-122.514286 182.857143 56.685714 74.971429-98.742857 23.771428-164.571428zM308.608 407.533714c1.828571 0 149.942857 87.771429 405.942857-1.828571-10.971429-224.914286-168.228571-223.085714-202.971428-221.257143-34.742857-3.657143-193.828571-3.657143-204.8 224.914286l1.828571-1.828572z" fill="#FFFFFF" /></svg>