<?xml version="1.0" standalone="no"?><!DOCTYPE svg PUBLIC "-//W3C//DTD SVG 1.1//EN" "http://www.w3.org/Graphics/SVG/1.1/DTD/svg11.dtd"><svg class="icon" width="200px" height="200.00px" viewBox="0 0 1024 1024" version="1.1" xmlns="http://www.w3.org/2000/svg"><path d="M0.018645 0.694386h1023.305614v1023.305614h-1023.305614z" fill="#F4F4F4" fill-opacity="0" /><path d="M641.411986 517.829187v-7.309325-7.309326 14.618651zM643.239317 517.829187h-5.481994v-14.618651h5.481994v14.618651z" fill="#333333" /><path d="M303.355667 510.519862c0-115.121882 93.193904-208.315786 208.315785-208.315786 115.121882 0 208.315786 93.193904 208.315786 208.315786 0 115.121882-93.193904 208.315786-208.315786 208.315785-115.121882 0-208.315786-93.193904-208.315785-208.315785z" fill="#333333" /><path d="M511.671452 722.49031c-116.949213 0-211.970449-95.021236-211.970448-211.970448s95.021236-211.970449 211.970448-211.970449c116.949213 0 211.970449 95.021236 211.970449 211.970449s-95.021236 211.970449-211.970449 211.970448z m0-418.458903c-113.29455 0-206.488454 93.193904-206.488454 206.488455s93.193904 206.488454 206.488454 206.488454c113.29455 0 206.488454-93.193904 206.488455-206.488454s-93.193904-206.488454-206.488455-206.488455z" fill="#333333" /><path d="M486.088812 850.403512v-52.992612c0-14.618652 10.963989-25.58264 25.58264-25.582641 14.618652 0 25.58264 10.963989 25.582641 25.582641v52.992612c0 14.618652-10.963989 25.58264-25.582641 25.58264-14.618652 0-25.58264-10.963989-25.58264-25.58264z" fill="#333333" /><path d="M511.671452 877.813484c-16.445983 0-29.237303-12.79132-29.237303-29.237304v-52.992612c0-7.309326 3.654663-14.618652 9.136657-20.100646 5.481994-5.481994 12.79132-9.136657 20.100646-9.136657 16.445983 0 29.237303 12.79132 29.237304 29.237303v52.992612c0 7.309326-3.654663 14.618652-9.136658 20.100646-5.481994 7.309326-12.79132 9.136657-20.100646 9.136658z m0-104.157893c-5.481994 0-12.79132 1.827331-16.445983 7.309326-3.654663 3.654663-7.309326 10.963989-7.309326 16.445983v52.992612c0 12.79132 10.963989 23.755309 23.755309 23.755309 5.481994 0 12.79132-1.827331 16.445983-7.309326 3.654663-3.654663 7.309326-10.963989 7.309326-16.445983v-52.992612c0-12.79132-10.963989-23.755309-23.755309-23.755309zM734.60589 768.173596l-29.237304-29.237303c-10.963989-10.963989-10.963989-27.409972 0-36.546629 10.963989-10.963989 27.409972-10.963989 36.546629 0l29.237304 29.237303c10.963989 10.963989 10.963989 27.409972 0 36.546629-10.963989 10.963989-27.409972 10.963989-36.546629 0z" fill="#333333" /><path d="M752.879204 779.137585c-7.309326 0-14.618652-3.654663-20.100646-9.136657l-5.481994-5.481994-23.755309-23.755309c-5.481994-5.481994-9.136657-12.79132-9.136657-20.100646 0-7.309326 1.827331-14.618652 7.309326-20.100646v-1.827332h1.827331c5.481994-5.481994 12.79132-7.309326 20.100646-7.309326 7.309326 0 14.618652 3.654663 20.100646 9.136658l29.237303 29.237303c10.963989 10.963989 10.963989 29.237303 0 40.201292-5.481994 5.481994-12.79132 9.136657-20.100646 9.136657z m-16.445983-10.963989c9.136657 9.136657 23.755309 7.309326 32.891966 0 9.136657-9.136657 9.136657-23.755309 0-32.891966l-29.237303-29.237303c-3.654663-3.654663-10.963989-7.309326-16.445983-7.309326-5.481994 0-12.79132 1.827331-16.445983 7.309326-3.654663 3.654663-7.309326 10.963989-7.309326 16.445983 0 5.481994 1.827331 12.79132 7.309326 16.445983l29.237303 29.237303zM254.017717 768.173596c-10.963989-10.963989-10.963989-27.409972 0-36.546629l29.237304-29.237303c10.963989-10.963989 27.409972-10.963989 36.546629 0 10.963989 10.963989 10.963989 27.409972 0 36.546629l-29.237304 29.237303c-10.963989 10.963989-27.409972 10.963989-36.546629 0z" fill="#333333" /><path d="M272.291032 779.137585c-7.309326 0-14.618652-3.654663-20.100646-9.136657-10.963989-10.963989-10.963989-29.237303 0-40.201292l29.237303-29.237303c10.963989-10.963989 29.237303-10.963989 40.201292 0 5.481994 5.481994 7.309326 12.79132 7.309326 20.100646 0 7.309326-3.654663 14.618652-9.136657 20.100646l-29.237304 29.237303c-3.654663 7.309326-10.963989 9.136657-18.273314 9.136657z m-16.445983-12.79132c9.136657 9.136657 23.755309 9.136657 32.891966 0l29.237303-29.237303c3.654663-3.654663 7.309326-10.963989 7.309326-16.445983 0-5.481994-1.827331-12.79132-7.309326-16.445983-9.136657-9.136657-23.755309-9.136657-32.891966 0l-29.237303 29.237303c-9.136657 9.136657-9.136657 23.755309 0 32.891966zM798.562491 536.102502c-14.618652 0-25.58264-10.963989-25.582641-25.58264 0-14.618652 10.963989-25.58264 25.582641-25.582641h52.992612c14.618652 0 25.58264 10.963989 27.409972 25.582641 0 14.618652-10.963989 25.58264-25.582641 27.409971h-1.827331l-52.992612-1.827331z" fill="#333333" /><path d="M798.562491 539.757165c-16.445983 0-29.237303-12.79132-29.237304-29.237303 0-16.445983 12.79132-29.237303 29.237304-29.237304h52.992612c7.309326 0 14.618652 3.654663 20.100646 7.309326 5.481994 5.481994 9.136657 12.79132 9.136657 20.100646 0 16.445983-12.79132 29.237303-27.409972 29.237303l-54.819943 1.827332z m52.992612-52.992612h-52.992612c-12.79132 0-23.755309 10.963989-23.755309 23.755309 0 12.79132 10.963989 23.755309 23.755309 23.755308h52.992612c12.79132 0 23.755309-10.963989 21.927977-23.755308 1.827331-12.79132-9.136657-23.755309-21.927977-23.755309z" fill="#333333" /><path d="M173.615133 536.102502c-14.618652 0-25.58264-10.963989-25.58264-25.58264 0-14.618652 10.963989-25.58264 25.58264-25.582641h52.992613c14.618652 0 25.58264 10.963989 25.58264 25.582641 0 14.618652-10.963989 25.58264-25.58264 25.58264h-52.992613z" fill="#333333" /><path d="M173.615133 539.757165c-7.309326 0-14.618652-3.654663-20.100646-9.136657-5.481994-5.481994-9.136657-12.79132-9.136657-20.100646 0-16.445983 12.79132-29.237303 29.237303-29.237304h52.992613c16.445983 0 29.237303 12.79132 29.237303 29.237304 0 16.445983-12.79132 29.237303-29.237303 29.237303h-52.992613z m0-52.992612c-12.79132 0-23.755309 10.963989-23.755308 23.755309 0 5.481994 1.827331 12.79132 7.309325 16.445983 3.654663 3.654663 10.963989 7.309326 16.445983 7.309325h52.992613c12.79132 0 23.755309-10.963989 23.755308-23.755308 0-12.79132-10.963989-23.755309-23.755308-23.755309h-52.992613z" fill="#333333" /><path d="M703.541255 318.650059c-10.963989-10.963989-10.963989-27.409972 0-36.546629l29.237303-29.237303c10.963989-10.963989 27.409972-10.963989 36.546629 0 10.963989 10.963989 10.963989 27.409972 0 36.546629l-29.237303 29.237303c-9.136657 9.136657-25.58264 9.136657-36.546629 0 1.827331 0 1.827331 0 0 0z" fill="#333333" /><path d="M723.641901 329.614048c-7.309326 0-12.79132-1.827331-18.273315-7.309326l-1.827331-1.827332c-10.963989-10.963989-10.963989-29.237303 0-40.201292l29.237303-29.237303c5.481994-5.481994 12.79132-9.136657 20.100646-9.136657 7.309326 0 14.618652 3.654663 20.100646 9.136657 10.963989 10.963989 10.963989 29.237303 0 40.201292l-29.237303 29.237303c-5.481994 5.481994-12.79132 9.136657-20.100646 9.136658z m-18.273315-16.445983l1.827332 1.827331c3.654663 3.654663 10.963989 7.309326 16.445983 7.309326 5.481994 0 12.79132-1.827331 16.445983-7.309326l29.237303-29.237303c9.136657-9.136657 9.136657-23.755309 0-32.891966-3.654663-3.654663-10.963989-7.309326-16.445983-7.309326-5.481994 0-12.79132 1.827331-16.445983 7.309326l-29.237303 29.237303c-9.136657 9.136657-9.136657 21.927977-1.827332 31.064635z" fill="#333333" /><path d="M283.255021 318.650059l-29.237304-29.237303c-9.136657-10.963989-9.136657-27.409972 0-36.546629 10.963989-9.136657 25.58264-9.136657 36.546629 0l29.237304 29.237303c10.963989 10.963989 10.963989 27.409972 0 36.546629-9.136657 9.136657-25.58264 9.136657-36.546629 0z" fill="#333333" /><path d="M301.528335 329.614048c-5.481994 0-12.79132-1.827331-16.445983-5.481995l-3.654663-3.654663-29.237303-29.237303c-10.963989-10.963989-10.963989-29.237303 0-40.201292 10.963989-10.963989 29.237303-10.963989 40.201292 0l29.237303 29.237303c5.481994 5.481994 9.136657 12.79132 9.136657 20.100646 0 7.309326-3.654663 14.618652-9.136657 20.100646-5.481994 5.481994-12.79132 9.136657-20.100646 9.136658z m-20.100646-16.445983l3.654663 3.654662c3.654663 3.654663 10.963989 7.309326 16.445983 7.309326 5.481994 0 12.79132-1.827331 16.445983-7.309326 3.654663-3.654663 5.481994-9.136657 5.481995-16.445983 0-5.481994-1.827331-12.79132-7.309326-16.445983l-29.237303-29.237303c-9.136657-9.136657-23.755309-9.136657-32.891967 0s-9.136657 23.755309 0 32.891966l27.409972 25.582641z" fill="#333333" /><path d="M486.088812 223.628823v-52.992612c0-14.618652 10.963989-25.58264 25.58264-25.58264 14.618652 0 25.58264 10.963989 25.582641 25.58264v52.992612c0 14.618652-10.963989 25.58264-25.582641 25.582641-14.618652 0-25.58264-10.963989-25.58264-25.582641z" fill="#333333" /><path d="M511.671452 252.866127c-16.445983 0-29.237303-12.79132-29.237303-29.237304v-52.992612c0-16.445983 12.79132-29.237303 29.237303-29.237303 16.445983 0 29.237303 12.79132 29.237304 29.237303v52.992612c0 16.445983-12.79132 29.237303-29.237304 29.237304z m-21.927977-29.237304c0 12.79132 10.963989 23.755309 23.755309 23.755309s23.755309-10.963989 23.755309-23.755309v-52.992612c0-12.79132-10.963989-23.755309-23.755309-23.755309-12.79132 0-23.755309 10.963989-23.755309 23.755309v52.992612z" fill="#333333" /></svg>