<?xml version="1.0" standalone="no"?><!DOCTYPE svg PUBLIC "-//W3C//DTD SVG 1.1//EN" "http://www.w3.org/Graphics/SVG/1.1/DTD/svg11.dtd"><svg class="icon" width="200px" height="200.00px" viewBox="0 0 1024 1024" version="1.1" xmlns="http://www.w3.org/2000/svg"><path d="M0 0h1024v1024H0z" fill="#CCCCCC" fill-opacity="0" /><path d="M560 694.4c-3.2-3.2-9.6-3.2-12.8 0l-121.6 121.6c-60.8 60.8-156.8 60.8-214.4 0-60.8-60.8-60.8-156.8 0-214.4l121.6-121.6c3.2-3.2 3.2-9.6 0-12.8l-41.6-41.6c-3.2-3.2-9.6-3.2-12.8 0l-121.6 121.6c-89.6 89.6-92.8 233.6-3.2 323.2s233.6 92.8 323.2 3.2l3.2-3.2 121.6-121.6c3.2-3.2 3.2-9.6 0-12.8l-41.6-41.6zM832 195.2c-89.6-89.6-233.6-89.6-323.2 0l-121.6 121.6c-3.2 3.2-3.2 9.6 0 12.8l41.6 41.6c3.2 3.2 9.6 3.2 12.8 0l121.6-121.6c60.8-60.8 156.8-60.8 214.4 0 60.8 60.8 60.8 156.8 0 214.4l-121.6 121.6c-3.2 3.2-3.2 9.6 0 12.8l41.6 41.6c3.2 3.2 9.6 3.2 12.8 0l121.6-121.6c89.6-89.6 89.6-233.6 0-323.2z m-233.6 192c-3.2-3.2-9.6-3.2-12.8 0l-240 240c-3.2 3.2-3.2 9.6 0 12.8l41.6 41.6c3.2 3.2 9.6 3.2 12.8 0l240-240c3.2-3.2 3.2-9.6 0-12.8l-41.6-41.6zM600.096 833.28l45.248-45.248 92.8 92.768-45.28 45.248zM700.224 730.016l45.376-45.152 139.968 140.608-45.376 45.12zM804.288 627.008l45.248-45.248 92.8 92.736-45.28 45.28z"  /></svg>