<?xml version="1.0" standalone="no"?><!DOCTYPE svg PUBLIC "-//W3C//DTD SVG 1.1//EN" "http://www.w3.org/Graphics/SVG/1.1/DTD/svg11.dtd"><svg class="icon" width="200px" height="200.00px" viewBox="0 0 1024 1024" version="1.1" xmlns="http://www.w3.org/2000/svg"><path d="M765.582222 655.900444l-512-348.245333v0.256L187.107556 262.712889l-47.985778 70.542222 114.460444 77.852445v454.599111A74.808889 74.808889 0 0 0 328.448 938.666667h360.504889a76.003556 76.003556 0 0 0 76.629333-73.614223V759.466667l46.222222 31.288889 47.985778-70.542223-94.208-64.085333z m-87.523555 196.892445H341.077333v-92.956445a99.100444 99.100444 0 0 0 10.524445 1.024h315.932444a98.389333 98.389333 0 0 0 10.524445-1.024z" fill="#333333" /><path d="M765.582222 552.704V181.504A97.251556 97.251556 0 0 0 667.534222 85.333333H351.601778a97.223111 97.223111 0 0 0-98.019556 96.170667v22.954667z" fill="#333333" /></svg>