<?xml version="1.0" standalone="no"?><!DOCTYPE svg PUBLIC "-//W3C//DTD SVG 1.1//EN" "http://www.w3.org/Graphics/SVG/1.1/DTD/svg11.dtd"><svg class="icon" width="200px" height="200.00px" viewBox="0 0 1024 1024" version="1.1" xmlns="http://www.w3.org/2000/svg"><path d="M0.127931 0.566554h1023.451723v1023.451722h-1023.451723z" fill="#F4F4F4" fill-opacity="0" /><path d="M738.475245 239.981153c0-34.724255-27.413885-62.13814-62.13814-62.13814h-325.31144c-34.724255 0-62.13814 27.413885-62.13814 62.13814v21.931108l447.760128 338.104587 1.827592-360.035695zM817.061717 716.982759l-78.586472-58.482955-447.760128-338.104587-56.655363-42.034624-27.413886 36.551847 84.069249 63.965732v413.035874c1.827592 29.241478 25.586293 51.172586 54.827771 51.172586h334.449402c31.06907 1.827592 56.655363-21.931108 58.482955-51.172586v-76.758879l51.172587 38.379439 27.413885-36.551847z m-133.414242 73.103695h-338.104587v-89.552026H685.475067v89.552026z" fill="#333333" /></svg>