<?xml version="1.0" standalone="no"?><!DOCTYPE svg PUBLIC "-//W3C//DTD SVG 1.1//EN" "http://www.w3.org/Graphics/SVG/1.1/DTD/svg11.dtd"><svg class="icon" width="200px" height="200.00px" viewBox="0 0 1024 1024" version="1.1" xmlns="http://www.w3.org/2000/svg"><path d="M0 0h1024v1024H0z" fill="#CCCCCC" fill-opacity="0" /><path d="M765.155556 657.066667l-512-347.022223-65.422223-45.511111-48.355555 71.111111 113.777778 76.8v455.111112c0 39.822222 34.133333 73.955556 73.955555 73.955555h361.244445c42.666667 0 73.955556-31.288889 76.8-73.955555v-105.244445l45.511111 31.288889 48.355555-71.111111-93.866666-65.422222zM676.977778 853.333333H341.333333v-93.866666h338.488889V853.333333zM765.155556 551.822222v-369.777778c0-54.044444-45.511111-96.711111-96.711112-96.711111H352.711111C298.666667 85.333333 256 128 256 182.044444v22.755556l509.155556 347.022222z" fill="#333333" /></svg>