<?xml version="1.0" standalone="no"?><!DOCTYPE svg PUBLIC "-//W3C//DTD SVG 1.1//EN" "http://www.w3.org/Graphics/SVG/1.1/DTD/svg11.dtd"><svg class="icon" width="200px" height="200.00px" viewBox="0 0 1024 1024" version="1.1" xmlns="http://www.w3.org/2000/svg"><path d="M0 0h1024v1024H0z" fill="#FFFFFF" fill-opacity="0" /><path d="M356.124444 768c-13.653333 0-27.306667-4.551111-38.684444-12.515556-14.791111-10.24-23.893333-25.031111-27.306667-42.097777l-32.995555-196.835556c-2.275556-13.653333 0-28.444444 6.826666-40.96l94.435556-177.493333c10.24-18.204444 28.444444-30.72 48.924444-34.133334l38.684445-6.826666c3.413333-1.137778 7.964444-1.137778 11.377778-1.137778 13.653333 0 27.306667 4.551111 38.684444 12.515556 14.791111 10.24 23.893333 25.031111 27.306667 42.097777l17.066666 100.124445c1.137778 7.964444 9.102222 13.653333 17.066667 13.653333h2.275556l130.844444-21.617778c3.413333 0 6.826667-1.137778 11.377778-1.137777 18.204444 0 36.408889 7.964444 48.924444 20.48 14.791111 15.928889 21.617778 37.546667 17.066667 58.026666l-35.271111 185.457778c-5.688889 26.168889-27.306667 45.511111-54.613333 50.062222l-309.475556 50.062222c-4.551111 2.275556-7.964444 2.275556-12.515556 2.275556z m27.306667-302.648889c-2.275556 0-4.551111 0-7.964444 1.137778-13.653333 2.275556-25.031111 9.102222-31.857778 19.342222-7.964444 10.24-10.24 22.755556-9.102222 36.408889l25.031111 154.737778c3.413333 23.893333 23.893333 40.96 48.924444 40.96 2.275556 0 4.551111 0 7.964445-1.137778 12.515556-2.275556 25.031111-9.102222 31.857777-19.342222 7.964444-10.24 10.24-22.755556 9.102223-36.408889L432.355556 506.311111c-4.551111-23.893333-23.893333-40.96-48.924445-40.96z" fill="#333333" /><path d="M456.248889 273.066667c10.24 0 20.48 3.413333 29.582222 9.102222 10.24 7.964444 18.204444 18.204444 19.342222 30.72l17.066667 100.124444c2.275556 17.066667 17.066667 28.444444 34.133333 28.444445h5.688889l130.844445-21.617778c2.275556 0 5.688889-1.137778 7.964444-1.137778 13.653333 0 27.306667 5.688889 36.408889 14.791111 11.377778 11.377778 15.928889 27.306667 12.515556 43.235556v1.137778l-34.133334 185.457777c-4.551111 19.342222-20.48 34.133333-40.96 36.408889L386.844444 746.382222l-22.755555 3.413334c-2.275556 0-5.688889 1.137778-7.964445 1.137777-10.24 0-20.48-3.413333-29.582222-9.102222-10.24-7.964444-18.204444-18.204444-19.342222-31.857778l-32.995556-196.835555c-1.137778-10.24 0-21.617778 4.551112-29.582222l67.128888-125.155556 27.306667-52.337778c6.826667-13.653333 20.48-22.755556 36.408889-26.168889l38.684444-6.826666h7.964445m-47.786667 461.937777c3.413333 0 6.826667 0 10.24-1.137777 17.066667-2.275556 32.995556-12.515556 43.235556-26.168889 10.24-13.653333 14.791111-31.857778 11.377778-48.924445l-25.031112-154.737777c-5.688889-31.857778-32.995556-55.751111-64.853333-55.751112-3.413333 0-6.826667 0-10.24 1.137778-17.066667 2.275556-32.995556 12.515556-43.235555 26.168889-10.24 13.653333-14.791111 31.857778-11.377778 48.924445l25.031111 154.737777c4.551111 31.857778 31.857778 55.751111 64.853333 55.751111M456.248889 238.933333c-4.551111 0-9.102222 0-13.653333 1.137778l-38.684445 6.826667c-26.168889 4.551111-48.924444 20.48-61.44 43.235555L315.164444 341.333333l-67.128888 125.155556c-7.964444 15.928889-11.377778 34.133333-7.964445 51.2L273.066667 715.662222c3.413333 21.617778 15.928889 40.96 34.133333 53.475556 14.791111 10.24 31.857778 15.928889 48.924444 15.928889 4.551111 0 9.102222 0 13.653334-1.137778l21.617778-3.413333 287.857777-46.648889c34.133333-5.688889 61.44-30.72 68.266667-63.715556l35.271111-185.457778c5.688889-26.168889-2.275556-53.475556-21.617778-73.955555-15.928889-17.066667-38.684444-26.168889-61.44-26.168889-4.551111 0-9.102222 0-13.653333 1.137778l-130.844444 21.617777-17.066667-100.124444c-3.413333-21.617778-15.928889-40.96-34.133333-53.475556-13.653333-9.102222-29.582222-14.791111-47.786667-14.791111z m-47.786667 461.937778c-15.928889 0-29.582222-11.377778-31.857778-26.168889l-25.031111-154.737778c-2.275556-17.066667 9.102222-32.995556 26.168889-36.408888h4.551111c15.928889 0 29.582222 11.377778 31.857778 26.168888l25.031111 154.737778c2.275556 17.066667-9.102222 32.995556-26.168889 36.408889h-4.551111z" fill="#333333" /></svg>