<?xml version="1.0" standalone="no"?><!DOCTYPE svg PUBLIC "-//W3C//DTD SVG 1.1//EN" "http://www.w3.org/Graphics/SVG/1.1/DTD/svg11.dtd"><svg class="icon" width="200px" height="200.00px" viewBox="0 0 1024 1024" version="1.1" xmlns="http://www.w3.org/2000/svg"><path d="M0 0h1024v1024H0z" fill="#FFFFFF" fill-opacity="0" /><path d="M263.964444 756.622222c-4.551111 0-5.688889-1.137778-5.688888-1.137778-10.24-7.964444-5.688889-51.2-3.413334-77.368888 3.413333-32.995556 5.688889-61.44-2.275555-80.782223-12.515556-28.444444-19.342222-58.026667-19.342223-87.608889 0-133.12 125.155556-242.346667 278.755556-242.346666S790.755556 375.466667 790.755556 509.724444 665.6 752.071111 512 752.071111c-39.822222 0-78.506667-6.826667-113.777778-21.617778-5.688889-2.275556-11.377778-3.413333-18.204444-3.413333-18.204444 0-40.96 7.964444-63.715556 15.928889-20.48 6.826667-39.822222 13.653333-52.337778 13.653333zM614.4 456.248889c-30.72 0-56.888889 25.031111-56.888889 55.751111s25.031111 55.751111 56.888889 55.751111 56.888889-25.031111 56.888889-55.751111-25.031111-55.751111-56.888889-55.751111z m-204.8 0c-30.72 0-56.888889 25.031111-56.888889 55.751111s25.031111 55.751111 56.888889 55.751111 56.888889-25.031111 56.888889-55.751111-26.168889-55.751111-56.888889-55.751111z" fill="#333333" /><path d="M512 284.444444c144.497778 0 261.688889 101.262222 261.688889 225.28S656.497778 735.004444 512 735.004444c-37.546667 0-73.955556-6.826667-108.088889-20.48-6.826667-2.275556-14.791111-4.551111-23.893333-4.551111-21.617778 0-45.511111 7.964444-69.404445 17.066667-13.653333 4.551111-29.582222 10.24-40.96 12.515556-2.275556-13.653333 1.137778-42.097778 2.275556-59.164445 3.413333-35.271111 6.826667-65.991111-3.413333-88.746667-11.377778-26.168889-17.066667-53.475556-17.066667-80.782222C250.311111 385.706667 367.502222 284.444444 512 284.444444m102.4 300.373334c40.96 0 73.955556-32.995556 73.955556-72.817778s-32.995556-72.817778-73.955556-72.817778-73.955556 32.995556-73.955556 72.817778 32.995556 72.817778 73.955556 72.817778m-204.8 0c40.96 0 73.955556-32.995556 73.955556-72.817778s-32.995556-72.817778-73.955556-72.817778-73.955556 32.995556-73.955556 72.817778 32.995556 72.817778 73.955556 72.817778M512 250.311111c-163.84 0-295.822222 116.053333-295.822222 259.413333 0 32.995556 6.826667 65.991111 20.48 95.573334 14.791111 34.133333-19.342222 138.808889 10.24 163.84 4.551111 3.413333 10.24 4.551111 17.066666 4.551111 30.72 0 85.333333-29.582222 116.053334-29.582222 4.551111 0 7.964444 1.137778 11.377778 2.275555 36.408889 14.791111 77.368889 22.755556 120.604444 22.755556 163.84 0 295.822222-116.053333 295.822222-259.413334S675.84 250.311111 512 250.311111z m102.4 300.373333c-21.617778 0-39.822222-17.066667-39.822222-38.684444s18.204444-38.684444 39.822222-38.684444 39.822222 17.066667 39.822222 38.684444-18.204444 38.684444-39.822222 38.684444z m-204.8 0c-21.617778 0-39.822222-17.066667-39.822222-38.684444s18.204444-38.684444 39.822222-38.684444 39.822222 17.066667 39.822222 38.684444-18.204444 38.684444-39.822222 38.684444z" fill="#333333" /></svg>