<?xml version="1.0" standalone="no"?><!DOCTYPE svg PUBLIC "-//W3C//DTD SVG 1.1//EN" "http://www.w3.org/Graphics/SVG/1.1/DTD/svg11.dtd"><svg class="icon" width="200px" height="200.00px" viewBox="0 0 1024 1024" version="1.1" xmlns="http://www.w3.org/2000/svg"><path d="M182.857143 182.857143h658.285714v658.285714H182.857143z" fill="#FFFFFF" fill-opacity="0" /><path d="M219.428571 237.714286h585.142858v585.142857H219.428571z" fill="#FFFFFF" fill-opacity="0" /><path d="M511.597714 529.883429m-259.657143 0a259.657143 259.657143 0 1 0 519.314286 0 259.657143 259.657143 0 1 0-519.314286 0Z" fill="#FF4059" /><path d="M511.597714 789.540571C368.969143 789.540571 251.940571 674.340571 251.940571 529.883429S368.969143 270.226286 511.597714 270.226286s259.657143 117.028571 259.657143 259.657143-115.2 259.657143-259.657143 259.657142z m0-482.742857C389.083429 306.797714 288.512 407.369143 288.512 529.883429s100.571429 223.085714 223.085714 223.085714S734.683429 654.226286 734.683429 529.883429 635.940571 306.797714 511.597714 306.797714z" fill="#FF4059" /><path d="M488.228571 400.457143h49.371429L530.285714 596.114286h-32.914285l-9.142858-195.657143z" fill="#FFFFFF" /><path d="M512 643.657143m-16.457143 0a16.457143 16.457143 0 1 0 32.914286 0 16.457143 16.457143 0 1 0-32.914286 0Z" fill="#FFFFFF" /></svg>