<?xml version="1.0" standalone="no"?><!DOCTYPE svg PUBLIC "-//W3C//DTD SVG 1.1//EN" "http://www.w3.org/Graphics/SVG/1.1/DTD/svg11.dtd"><svg class="icon" width="200px" height="200.00px" viewBox="0 0 1024 1024" version="1.1" xmlns="http://www.w3.org/2000/svg"><path d="M0.000178 1.065557h1022.934443v1022.934443h-1022.934443z" fill="#CCCCCC" fill-opacity="0" /><path d="M511.467399 911.050989c210.980229 0 383.600416-172.620187 383.600416-383.600417s-172.620187-383.600416-383.600416-383.600416-383.600416 172.620187-383.600416 383.600416 172.620187 383.600416 383.600416 383.600417z" fill="#FFD85F" /><path d="M511.467399 953.673257c-234.422477 0-426.222685-191.800208-426.222684-426.222685s191.800208-426.222685 426.222684-426.222684 426.222685 191.800208 426.222685 426.222684-191.800208 426.222685-426.222685 426.222685z m0-767.200832c-187.537981 0-340.978148 153.440166-340.978148 340.978147s153.440166 340.978148 340.978148 340.978148 340.978148-153.440166 340.978148-340.978148-153.440166-340.978148-340.978148-340.978147z" fill="#5B422E" /><path d="M645.727545 661.710718c-44.753382 74.58897-138.522373 98.031217-213.111342 55.408949-23.442248-12.786681-42.622268-31.966701-55.408949-55.408949h268.520291z" fill="#5B422E" /><path d="M511.467399 781.05307c-34.097815 0-70.326743-8.524454-100.162331-27.704475-29.835588-17.048907-53.277836-40.491155-70.326743-70.326743-8.524454-12.786681-8.524454-29.835588 0-42.622268s21.311134-21.311134 36.228929-21.311134h268.520291c14.917794 0 29.835588 8.524454 36.228928 21.311134 8.524454 12.786681 8.524454 29.835588 0 42.622268-27.704475 44.753382-70.326743 78.851197-121.473465 91.637877-14.917794 4.262227-31.966701 6.39334-49.015609 6.393341z" fill="#5B422E" /><path d="M645.727545 531.712799c-23.442248 0-42.622268-19.180021-42.622269-42.622268v-76.720084c0-23.442248 19.180021-42.622268 42.622269-42.622268s42.622268 19.180021 42.622268 42.622268v76.720084c0 23.442248-19.180021 42.622268-42.622268 42.622268z" fill="#5B422E" /><path d="M377.207254 531.712799c-23.442248 0-42.622268-19.180021-42.622269-42.622268v-76.720084c0-23.442248 19.180021-42.622268 42.622269-42.622268s42.622268 19.180021 42.622268 42.622268v76.720084c0 23.442248-19.180021 42.622268-42.622268 42.622268z" fill="#5B422E" /></svg>