<?xml version="1.0" standalone="no"?><!DOCTYPE svg PUBLIC "-//W3C//DTD SVG 1.1//EN" "http://www.w3.org/Graphics/SVG/1.1/DTD/svg11.dtd"><svg class="icon" width="200px" height="200.00px" viewBox="0 0 1024 1024" version="1.1" xmlns="http://www.w3.org/2000/svg"><path d="M0.00111 1.065557h1022.934443v1022.934443h-1022.934443z" fill="#CCCCCC" fill-opacity="0" /><path d="M741.628581 749.086368c-4.262227 0-8.524454 0-10.655567-2.131113l-539.171696-149.17794c-17.048907-4.262227-27.704475-17.048907-29.835588-34.097814-2.131113-17.048907 4.262227-34.097815 19.180021-42.622269l575.400624-370.813736c12.786681-8.524454 31.966701-8.524454 44.753382 0 14.917794 8.524454 21.311134 23.442248 21.311134 40.491155l-38.360041 517.860562c0 12.786681-8.524454 23.442248-17.048908 31.966702-8.524454 6.39334-17.048907 8.524454-25.573361 8.524453z m-434.747138-206.718002l396.387097 108.686785 27.704474-383.600416-424.091571 274.913631z" fill="#333333" /><path d="M462.452723 879.084287c-6.39334 0-10.655567-2.131113-17.048908-4.262227-14.917794-6.39334-25.573361-21.311134-25.573361-38.360041v-206.718002c0-8.524454 2.131113-19.180021 8.524454-25.573361l279.175859-368.682623c14.917794-19.180021 40.491155-23.442248 59.671175-8.524453 19.180021 14.917794 23.442248 40.491155 8.524454 59.671175l-270.651405 358.027056v89.506763l76.720084-76.720083c17.048907-17.048907 44.753382-17.048907 59.671175 0 17.048907 17.048907 17.048907 44.753382 0 59.671176l-151.309053 149.17794c-4.262227 8.524454-14.917794 12.786681-27.704474 12.78668z" fill="#333333" /></svg>