<?xml version="1.0" standalone="no"?><!DOCTYPE svg PUBLIC "-//W3C//DTD SVG 1.1//EN" "http://www.w3.org/Graphics/SVG/1.1/DTD/svg11.dtd"><svg class="icon" width="200px" height="200.00px" viewBox="0 0 1024 1024" version="1.1" xmlns="http://www.w3.org/2000/svg"><path d="M0 0h1024v1024H0z" fill="#FFFFFF" fill-opacity="0" /><path d="M512 779.377778C364.088889 779.377778 244.622222 659.911111 244.622222 512S364.088889 244.622222 512 244.622222 779.377778 364.088889 779.377778 512c0 18.204444-2.275556 36.408889-5.688889 54.613333H653.084444v-159.288889c0-27.306667-22.755556-50.062222-50.062222-50.062222h-93.297778C423.253333 356.124444 352.711111 426.666667 352.711111 512s69.404444 154.737778 153.6 155.875556H728.177778c-48.924444 69.404444-129.706667 111.502222-216.177778 111.502222z" fill="#333333" /><path d="M512 261.688889c137.671111 0 250.311111 112.64 250.311111 250.311111 0 12.515556-1.137778 25.031111-3.413333 37.546667h-89.884445V407.324444c0-37.546667-30.72-67.128889-67.128889-67.128888h-93.297777c-95.573333 0-172.942222 77.368889-172.942223 172.942222 0 94.435556 76.231111 171.804444 170.666667 172.942222h186.595556C646.257778 733.866667 581.404444 762.311111 512 762.311111c-137.671111 0-250.311111-112.64-250.311111-250.311111s112.64-250.311111 250.311111-250.311111m0-34.133333c-157.013333 0-284.444444 127.431111-284.444444 284.444444s127.431111 284.444444 284.444444 284.444444c106.951111 0 199.111111-59.164444 248.035556-145.635555H508.586667c-76.231111 0-137.671111-62.577778-137.671111-138.808889 0-76.231111 62.577778-138.808889 138.808888-138.808889H603.022222c18.204444 0 32.995556 14.791111 32.995556 32.995556v177.493333h151.324444c5.688889-22.755556 9.102222-46.648889 9.102222-71.68 0-157.013333-127.431111-284.444444-284.444444-284.444444z m248.035556 423.253333z" fill="#333333" /><path d="M508.586667 566.613333c-30.72 0-54.613333-25.031111-54.613334-54.613333 0-30.72 25.031111-54.613333 54.613334-54.613333h43.235555v109.226666h-43.235555z" fill="#333333" /><path d="M534.755556 474.453333v75.093334h-26.168889c-20.48 0-37.546667-17.066667-37.546667-37.546667 0-20.48 17.066667-37.546667 37.546667-37.546667H534.755556m34.133333-34.133333h-60.302222c-39.822222 0-71.68 31.857778-71.68 71.68s31.857778 71.68 71.68 71.68H568.888889V440.32z" fill="#333333" /></svg>