<?xml version="1.0" standalone="no"?><!DOCTYPE svg PUBLIC "-//W3C//DTD SVG 1.1//EN" "http://www.w3.org/Graphics/SVG/1.1/DTD/svg11.dtd"><svg class="icon" width="200px" height="200.00px" viewBox="0 0 1024 1024" version="1.1" xmlns="http://www.w3.org/2000/svg"><path d="M851.894857 837.485714h-696.685714c-20.114286 0-36.571429-16.457143-36.571429-36.571428V309.028571c0-20.114286 16.457143-36.571429 36.571429-36.571428h144.457143l64-95.085714c7.314286-10.971429 18.285714-16.457143 31.085714-16.457143h219.428571c12.8 0 23.771429 5.485714 31.085715 16.457143l64 95.085714h144.457143c20.114286 0 36.571429 16.457143 36.571428 36.571428v491.885715c-1.828571 20.114286-18.285714 36.571429-38.4 36.571428z m-660.114286-73.142857h623.542858V345.6h-128c-12.8 0-23.771429-5.485714-31.085715-16.457143l-64-95.085714h-179.2l-64 95.085714c-7.314286 10.971429-18.285714 16.457143-31.085714 16.457143h-128v418.742857z" fill="#111111" /><path d="M502.637714 680.228571c-82.285714 0-148.114286-65.828571-148.114285-148.114285s65.828571-148.114286 148.114285-148.114286 148.114286 65.828571 148.114286 148.114286-65.828571 148.114286-148.114286 148.114285z m0-223.085714c-42.057143 0-74.971429 32.914286-74.971428 74.971429s32.914286 74.971429 74.971428 74.971428 74.971429-32.914286 74.971429-74.971428-32.914286-74.971429-74.971429-74.971429zM727.552 479.085714c-20.114286 0-36.571429-16.457143-36.571429-36.571428V420.571429c0-20.114286 16.457143-36.571429 36.571429-36.571429s36.571429 16.457143 36.571429 36.571429v21.942857c0 20.114286-16.457143 36.571429-36.571429 36.571428z" fill="#111111" /></svg>