<?xml version="1.0" standalone="no"?><!DOCTYPE svg PUBLIC "-//W3C//DTD SVG 1.1//EN" "http://www.w3.org/Graphics/SVG/1.1/DTD/svg11.dtd"><svg class="icon" width="200px" height="200.00px" viewBox="0 0 1024 1024" version="1.1" xmlns="http://www.w3.org/2000/svg"><path d="M1024 1024H0V0h1024z" fill="#16181A" fill-opacity="0" /><path d="M256 512m0 73.142857a73.142857 73.142857 0 1 0 0-146.285714 73.142857 73.142857 0 1 0 0 146.285714Z" fill="#333333" /><path d="M512 512m0 73.142857a73.142857 73.142857 0 1 0 0-146.285714 73.142857 73.142857 0 1 0 0 146.285714Z" fill="#333333" /><path d="M768 512m0 73.142857a73.142857 73.142857 0 1 0 0-146.285714 73.142857 73.142857 0 1 0 0 146.285714Z" fill="#333333" /></svg>