<?xml version="1.0" standalone="no"?><!DOCTYPE svg PUBLIC "-//W3C//DTD SVG 1.1//EN" "http://www.w3.org/Graphics/SVG/1.1/DTD/svg11.dtd"><svg class="icon" width="200px" height="200.00px" viewBox="0 0 1024 1024" version="1.1" xmlns="http://www.w3.org/2000/svg"><path d="M493.366857 859.355429c-3.657143-1.828571-5.485714-3.657143-9.142857-5.485715l-301.714286-303.542857c-91.428571-91.428571-91.428571-237.714286 0-329.142857s237.714286-91.428571 329.142857 0c91.428571-91.428571 237.714286-91.428571 329.142858 0 76.8 76.8 89.6 199.314286 31.085714 290.742857h-96.914286l14.628572-14.628571c62.171429-62.171429 64-162.742857 1.828571-224.914286s-162.742857-64-224.914286-1.828571l-1.828571 1.828571-51.2 51.2-51.2-51.2c-62.171429-62.171429-162.742857-62.171429-224.914286 0s-62.171429 162.742857 0 224.914286l259.657143 259.657143v102.4h-3.657143z" fill="#FFFFFF" /><path d="M542.738286 667.355429h299.885714v73.142857h-299.885714z" fill="#FFFFFF" /><path d="M656.109714 553.984h73.142857v299.885714h-73.142857z" fill="#FFFFFF" /></svg>