<?xml version="1.0" standalone="no"?><!DOCTYPE svg PUBLIC "-//W3C//DTD SVG 1.1//EN" "http://www.w3.org/Graphics/SVG/1.1/DTD/svg11.dtd"><svg class="icon" width="200px" height="200.00px" viewBox="0 0 1024 1024" version="1.1" xmlns="http://www.w3.org/2000/svg"><path d="M0 0h1023.08653v1023.08653H0z" fill="#F4F4F4" fill-opacity="0" /><path d="M500.581624 858.661909c-190.001784 0-345.291704-155.28992-345.291704-345.291704S310.579839 168.078501 500.581624 168.078501s345.291704 155.28992 345.291703 345.291704-153.462979 345.291704-345.291703 345.291704z m0-619.332739c-149.809099 0-272.214095 122.404996-272.214095 272.214095s122.404996 272.214095 272.214095 272.214095 272.214095-122.404996 272.214094-272.214095-120.578055-272.214095-272.214094-272.214095z" fill="#111111" /><path d="M392.79215 416.542373c-10.961641 0-20.096343-3.65388-27.404104-12.788582-12.788582-16.442462-10.961641-38.365745 5.480821-51.154326 10.961641-9.134701 23.750223-16.442462 36.538805-23.750223 18.269402-9.134701 40.192685-1.82694 49.327386 14.615522 9.134701 18.269402 1.82694 40.192685-14.615522 49.327386-9.134701 3.65388-16.442462 9.134701-23.750223 16.442462-9.134701 3.65388-18.269402 7.307761-25.577163 7.307761zM822.123104 845.873327c-9.134701 0-18.269402-3.65388-25.577163-10.961641l-71.250669-71.250669c-14.615522-14.615522-14.615522-36.538805 0-51.154327s36.538805-14.615522 51.154327 0l71.250669 71.25067c14.615522 14.615522 14.615522 36.538805 0 51.154326-7.307761 7.307761-16.442462 10.961641-25.577164 10.961641z" fill="#111111" /></svg>