<?xml version="1.0" standalone="no"?><!DOCTYPE svg PUBLIC "-//W3C//DTD SVG 1.1//EN" "http://www.w3.org/Graphics/SVG/1.1/DTD/svg11.dtd"><svg class="icon" width="200px" height="200.00px" viewBox="0 0 1024 1024" version="1.1" xmlns="http://www.w3.org/2000/svg"><path d="M0 0h1024v1024H0z" fill="#FFFFFF" fill-opacity="0" /><path d="M810.666667 192c12.8 0 21.333333 8.533333 21.333333 21.333333v597.333334c0 12.8-8.533333 21.333333-21.333333 21.333333H213.333333c-12.8 0-21.333333-8.533333-21.333333-21.333333V213.333333c0-12.8 8.533333-21.333333 21.333333-21.333333h597.333334m0-85.333333H213.333333c-59.733333 0-106.666667 46.933333-106.666666 106.666666v597.333334c0 59.733333 46.933333 106.666667 106.666666 106.666666h597.333334c59.733333 0 106.666667-46.933333 106.666666-106.666666V213.333333c0-59.733333-46.933333-106.666667-106.666666-106.666666z" fill="#333333" /><path d="M356.266667 518.4l4.266666-51.2h85.333334v-155.733333H298.666667v53.333333h89.6v46.933333h-78.933334l-14.933333 160h98.133333c0 46.933333-2.133333 76.8-6.4 91.733334 0 4.266667-4.266667 17.066667-34.133333 17.066666-10.666667 0-23.466667 0-36.266667-2.133333l-12.8-2.133333 14.933334 57.6h6.4c17.066667 2.133333 27.733333 2.133333 36.266666 2.133333 46.933333-2.133333 72.533333-19.2 78.933334-51.2 4.266667-27.733333 8.533333-83.2 8.533333-160v-8.533333h-91.733333z" fill="#333333" /><path d="M558.933333 712.533333c8.533333-14.933333 38.4-46.933333 64-72.533333 21.333333-19.2 70.4-36.266667 78.933334-40.533333h-85.333334V576h96v-209.066667h-49.066666c8.533333-14.933333 17.066667-32 25.6-51.2l4.266666-8.533333-57.6-19.2-2.133333 6.4c-10.666667 25.6-21.333333 51.2-32 72.533333H576l4.266667-2.133333-4.266667-8.533333c-10.666667-21.333333-23.466667-42.666667-36.266667-59.733334l-4.266666-4.266666-57.6 19.2 6.4 8.533333c10.666667 14.933333 21.333333 29.866667 29.866666 46.933333h-53.333333V576h96v23.466667h-113.066667v57.6h113.066667v55.466666z m51.2-300.8h57.6v42.666667h-57.6v-42.666667z m0 78.933334h57.6v40.533333h-57.6V490.666667zM512 411.733333h55.466667v42.666667H512v-42.666667z m0 119.466667V490.666667h55.466667v40.533333H512z" fill="#333333" /><path d="M445.866667 597.333333h142.933333v57.6h-142.933333zM588.8 597.333333h142.933333v57.6h-142.933333z" fill="#333333" /><path d="M558.933333 580.266667H618.666667v155.733333h-59.733334z" fill="#333333" /></svg>