<?xml version="1.0" standalone="no"?><!DOCTYPE svg PUBLIC "-//W3C//DTD SVG 1.1//EN" "http://www.w3.org/Graphics/SVG/1.1/DTD/svg11.dtd"><svg class="icon" width="200px" height="200.00px" viewBox="0 0 1024 1024" version="1.1" xmlns="http://www.w3.org/2000/svg"><path d="M0 0h990.701424v990.701424H0z" fill="#CCCCCC" fill-opacity="0" /><path d="M495.350712 446.090836m-110.077936 0a110.077936 110.077936 0 1 0 220.155872 0 110.077936 110.077936 0 1 0-220.155872 0Z" fill="#333333" /><path d="M495.350712 170.895996A275.19484 275.19484 0 0 0 220.155872 446.090836c0 275.19484 247.675356 440.311744 275.19484 440.311744s275.19484-165.116904 275.19484-440.311744A275.19484 275.19484 0 0 0 495.350712 170.895996z m0 440.311744a165.116904 165.116904 0 1 1 165.116904-165.116904 165.116904 165.116904 0 0 1-165.116904 165.116904z" fill="#333333" /></svg>