<?xml version="1.0" standalone="no"?><!DOCTYPE svg PUBLIC "-//W3C//DTD SVG 1.1//EN" "http://www.w3.org/Graphics/SVG/1.1/DTD/svg11.dtd"><svg class="icon" width="200px" height="200.00px" viewBox="0 0 1024 1024" version="1.1" xmlns="http://www.w3.org/2000/svg"><path d="M512 398.222222m-85.333333 0a85.333333 85.333333 0 1 0 170.666666 0 85.333333 85.333333 0 1 0-170.666666 0Z"  /><path d="M512 142.222222a256 256 0 1 0 256 256 256 256 0 0 0-256-256z m0 398.222222a142.222222 142.222222 0 1 1 142.222222-142.222222 142.222222 142.222222 0 0 1-142.222222 142.222222z"  /><path d="M455.111111 597.333333m56.888889 0l0 0q56.888889 0 56.888889 56.888889l0 178.915556q0 56.888889-56.888889 56.888889l0 0q-56.888889 0-56.888889-56.888889l0-178.915556q0-56.888889 56.888889-56.888889Z"  /></svg>