<?xml version="1.0" standalone="no"?><!DOCTYPE svg PUBLIC "-//W3C//DTD SVG 1.1//EN" "http://www.w3.org/Graphics/SVG/1.1/DTD/svg11.dtd"><svg class="icon" width="200px" height="200.00px" viewBox="0 0 1024 1024" version="1.1" xmlns="http://www.w3.org/2000/svg"><path d="M511.829487 511.829387m-511.84005 0a511.84005 511.84005 0 1 0 1023.6801 0 511.84005 511.84005 0 1 0-1023.6801 0Z"  /><path d="M511.829487 1023.669437c-282.578361 0-511.84005-229.261689-511.84005-511.84005s229.261689-511.84005 511.84005-511.84005 511.84005 229.261689 511.84005 511.84005-229.261689 511.84005-511.84005 511.84005z m0-1002.353432c-270.848693 0-490.513381 219.664688-490.513382 490.513382s219.664688 490.513381 490.513382 490.513381 490.513381-219.664688 490.513381-490.513381-219.664688-490.513381-490.513381-490.513382z" fill="#FFFFFF" /><path d="M419.389041 317.020931l282.578361 178.077684c9.597001 5.331667 11.729668 18.127668 6.398 26.658336-1.066333 2.132667-4.265334 4.265334-6.398 6.398001L419.389041 707.298969c-9.597001 6.398001-21.326669 3.199-27.724669-6.398001-2.132667-3.199-3.199-6.398001-3.199001-10.663334V334.082266c0-10.663334 9.597001-20.260335 20.260336-20.260335 3.199 0 7.464334 1.066333 10.663334 3.199z" fill="#FFFFFF" /></svg>