<?xml version="1.0" standalone="no"?><!DOCTYPE svg PUBLIC "-//W3C//DTD SVG 1.1//EN" "http://www.w3.org/Graphics/SVG/1.1/DTD/svg11.dtd"><svg class="icon" width="200px" height="200.00px" viewBox="0 0 1024 1024" version="1.1" xmlns="http://www.w3.org/2000/svg"><path d="M0 0h1024v1024H0z" fill="#707070" fill-opacity="0" /><path d="M802.742857 479.085714L360.228571 201.142857c-12.8-7.314286-29.257143-9.142857-43.885714-3.657143-12.8 3.657143-23.771429 16.457143-23.771428 31.085715v555.885714c0 14.628571 10.971429 25.6 23.771428 31.085714 5.485714 1.828571 12.8 3.657143 18.285714 3.657143 9.142857 0 18.285714-1.828571 25.6-7.314286l442.514286-277.942857c14.628571-7.314286 20.114286-25.6 12.8-40.228571-1.828571-7.314286-7.314286-12.8-12.8-14.628572zM376.685714 713.142857V296.228571l332.8 208.457143L376.685714 713.142857z" fill="#FFFFFF" /></svg>