<?xml version="1.0" standalone="no"?><!DOCTYPE svg PUBLIC "-//W3C//DTD SVG 1.1//EN" "http://www.w3.org/Graphics/SVG/1.1/DTD/svg11.dtd"><svg class="icon" width="200px" height="200.00px" viewBox="0 0 1024 1024" version="1.1" xmlns="http://www.w3.org/2000/svg"><path d="M512 512m-512 0a512 512 0 1 0 1024 0 512 512 0 1 0-1024 0Z"  /><path d="M512 1024C230.4 1024 0 793.6 0 512S230.4 0 512 0s512 230.4 512 512-230.4 512-512 512z m0-987.428571C250.514286 36.571429 36.571429 250.514286 36.571429 512s213.942857 475.428571 475.428571 475.428571 475.428571-213.942857 475.428571-475.428571S773.485714 36.571429 512 36.571429z" fill="#FFFFFF" /><path d="M393.142857 263.314286l360.228572 226.742857c10.971429 7.314286 14.628571 21.942857 7.314285 34.742857-1.828571 3.657143-5.485714 5.485714-7.314285 7.314286L393.142857 760.685714c-10.971429 7.314286-27.428571 3.657143-34.742857-7.314285-1.828571-3.657143-3.657143-9.142857-3.657143-14.628572V285.257143c0-14.628571 10.971429-25.6 25.6-25.6 3.657143 0 9.142857 1.828571 12.8 3.657143z" fill="#FFFFFF" /></svg>