<?xml version="1.0" standalone="no"?><!DOCTYPE svg PUBLIC "-//W3C//DTD SVG 1.1//EN" "http://www.w3.org/Graphics/SVG/1.1/DTD/svg11.dtd"><svg class="icon" width="200px" height="200.00px" viewBox="0 0 1024 1024" version="1.1" xmlns="http://www.w3.org/2000/svg"><path d="M800 874.666667h-576c-23.466667 0-42.666667-19.2-42.666667-42.666667V192c0-23.466667 19.2-42.666667 42.666667-42.666667h576c23.466667 0 42.666667 19.2 42.666667 42.666667v640c0 23.466667-19.2 42.666667-42.666667 42.666667z m-533.333333-85.333334h490.666666V234.666667h-490.666666v554.666666z" fill="#333333" /><path d="M659.2 454.4H358.4c-23.466667 0-42.666667-19.2-42.666667-42.666667s19.2-42.666667 42.666667-42.666666h300.8c23.466667 0 42.666667 19.2 42.666667 42.666666s-19.2 42.666667-42.666667 42.666667zM546.133333 629.333333h-187.733333c-23.466667 0-42.666667-19.2-42.666667-42.666666s19.2-42.666667 42.666667-42.666667h187.733333c23.466667 0 42.666667 19.2 42.666667 42.666667s-19.2 42.666667-42.666667 42.666666z" fill="#333333" /></svg>