<?xml version="1.0" standalone="no"?><!DOCTYPE svg PUBLIC "-//W3C//DTD SVG 1.1//EN" "http://www.w3.org/Graphics/SVG/1.1/DTD/svg11.dtd"><svg class="icon" width="200px" height="200.00px" viewBox="0 0 1024 1024" version="1.1" xmlns="http://www.w3.org/2000/svg"><path d="M0 0h1024v1024H0z" fill="#CCCCCC" fill-opacity="0" /><path d="M520.533333 577.422222m-406.755555 0a406.755556 406.755556 0 1 0 813.511111 0 406.755556 406.755556 0 1 0-813.511111 0Z" fill="#333333" /><path d="M512 631.466667c-22.755556 0-42.666667-19.911111-42.666667-42.666667v-182.044444c0-22.755556 19.911111-42.666667 42.666667-42.666667s42.666667 19.911111 42.666667 42.666667v182.044444c0 22.755556-19.911111 42.666667-42.666667 42.666667z" fill="#FFFFFF" /><path d="M688.355556 628.622222h-182.044445c-22.755556 0-42.666667-19.911111-42.666667-42.666666s19.911111-42.666667 42.666667-42.666667h182.044445c22.755556 0 42.666667 19.911111 42.666666 42.666667s-19.911111 42.666667-42.666666 42.666666z" fill="#FFFFFF" /><path d="M719.644444 113.777778h-398.222222c-31.288889 0-56.888889-25.6-56.888889-56.888889s25.6-56.888889 56.888889-56.888889h398.222222c31.288889 0 56.888889 25.6 56.888889 56.888889s-25.6 56.888889-56.888889 56.888889z" fill="#333333" /><path d="M520.533333 290.133333c-31.288889 0-56.888889-25.6-56.888889-56.888889v-136.533333c0-31.288889 25.6-56.888889 56.888889-56.888889s56.888889 25.6 56.888889 56.888889v136.533333c0 31.288889-25.6 56.888889-56.888889 56.888889z" fill="#333333" /></svg>