<?xml version="1.0" standalone="no"?><!DOCTYPE svg PUBLIC "-//W3C//DTD SVG 1.1//EN" "http://www.w3.org/Graphics/SVG/1.1/DTD/svg11.dtd"><svg class="icon" width="200px" height="200.00px" viewBox="0 0 1024 1024" version="1.1" xmlns="http://www.w3.org/2000/svg"><path d="M800 870.4h-490.666667c-70.4 0-128-57.6-128-128v-554.666667c0-23.466667 19.2-42.666667 42.666667-42.666666h576c23.466667 0 42.666667 19.2 42.666667 42.666666v640c0 23.466667-19.2 42.666667-42.666667 42.666667z m-533.333333-640v512c0 23.466667 19.2 42.666667 42.666666 42.666667h448v-554.666667h-490.666666z" fill="#333333" /><path d="M842.666667 878.933333H337.066667a142.933333 142.933333 0 0 1 0-285.866666h505.6v285.866666z m-505.6-202.666666c-32 0-57.6 25.6-57.6 57.6s25.6 57.6 57.6 57.6h420.266666v-115.2H337.066667zM661.333333 465.066667H362.666667c-23.466667 0-42.666667-19.2-42.666667-42.666667s19.2-42.666667 42.666667-42.666667h298.666666c23.466667 0 42.666667 19.2 42.666667 42.666667s-19.2 42.666667-42.666667 42.666667z" fill="#333333" /></svg>