<?xml version="1.0" standalone="no"?><!DOCTYPE svg PUBLIC "-//W3C//DTD SVG 1.1//EN" "http://www.w3.org/Graphics/SVG/1.1/DTD/svg11.dtd"><svg class="icon" width="200px" height="199.80px" viewBox="0 0 1025 1024" version="1.1" xmlns="http://www.w3.org/2000/svg"><path d="M1.052298 0.142202h1023.857798v1023.857798h-1023.857798z" fill="#CCCCCC" fill-opacity="0" /><path d="M57.933287 932.990418c-22.752396 0-42.660742-19.908346-42.660742-42.660742v-753.673101c0-25.596445 19.908346-45.504791 45.504791-45.504791h907.251771c25.596445 0 45.504791 19.908346 45.504791 45.504791v750.829052c0 25.596445-19.908346 45.504791-45.504791 45.504791h-910.09582z" fill="#313131" /><path d="M197.291709 699.778364c-8.532148 0-17.064297-2.844049-25.596444-8.532148-19.908346-14.220247-22.752396-39.816692-8.532149-59.725038l159.266769-221.835857c8.532148-11.376198 19.908346-17.064297 34.128593-17.064296s25.596445 5.688099 34.128593 17.064296l73.945286 91.009582 122.294125-139.358422c8.532148-8.532148 19.908346-14.220247 34.128594-14.220247s25.596445 5.688099 31.284543 17.064296l193.395362 267.340648c14.220247 19.908346 8.532148 45.504791-8.532148 59.725038-19.908346 14.220247-45.504791 8.532148-59.725038-8.532149l-162.110818-224.679905-119.450077 136.514373c-8.532148 8.532148-19.908346 14.220247-34.128593 14.220247-11.376198 0-25.596445-5.688099-31.284544-17.064297l-71.101236-85.321483-125.138175 176.331065c-8.532148 11.376198-22.752396 17.064297-36.972643 17.064297z" fill="#FFFFFF" /></svg>