<?xml version="1.0" standalone="no"?><!DOCTYPE svg PUBLIC "-//W3C//DTD SVG 1.1//EN" "http://www.w3.org/Graphics/SVG/1.1/DTD/svg11.dtd"><svg class="icon" width="200px" height="200.00px" viewBox="0 0 1024 1024" version="1.1" xmlns="http://www.w3.org/2000/svg"><path d="M717.930667 408.234667c-6.4 0-14.933333-2.133333-21.333334-6.4-21.333333-12.8-27.733333-38.4-14.933333-57.6 14.933333-23.466667 21.333333-51.2 21.333333-78.933334v-83.2h-366.933333v83.2c0 27.733333 6.4 55.466667 21.333333 78.933334 12.8 21.333333 4.266667 46.933333-14.933333 57.6-21.333333 12.8-46.933333 4.266667-57.6-14.933334-21.333333-36.266667-34.133333-78.933333-34.133333-121.6v-96c2.133333-42.666667 34.133333-72.533333 74.666666-72.533333h386.133334c38.4-2.133333 74.666667 29.866667 74.666666 72.533333v96c0 42.666667-10.666667 85.333333-34.133333 121.6-6.4 12.8-21.333333 21.333333-34.133333 21.333334z m-390.4-226.133334z m384 0s2.133333 0 0 0zM510.997333 758.101333c-85.333333 0-155.733333-70.4-155.733333-155.733333s70.4-155.733333 155.733333-155.733333 155.733333 70.4 155.733334 155.733333-68.266667 155.733333-155.733334 155.733333z m0-226.133333c-38.4 0-70.4 32-70.4 70.4s32 70.4 70.4 70.4 70.4-32 70.4-70.4-32-70.4-70.4-70.4z" fill="#333333" /><path d="M510.997333 926.634667c-179.2 0-324.266667-145.066667-324.266666-324.266667s145.066667-324.266667 324.266666-324.266667 324.266667 145.066667 324.266667 324.266667-145.066667 324.266667-324.266667 324.266667z m0-563.2c-132.266667 0-238.933333 106.666667-238.933333 238.933333 0 132.266667 106.666667 238.933333 238.933333 238.933333s238.933333-106.666667 238.933334-238.933333c2.133333-132.266667-106.666667-238.933333-238.933334-238.933333zM525.930667 254.634667c-23.466667 0-42.666667-19.2-42.666667-42.666667v-64c0-23.466667 19.2-42.666667 42.666667-42.666667s42.666667 19.2 42.666666 42.666667v64c0 23.466667-19.2 42.666667-42.666666 42.666667z" fill="#333333" /></svg>