<?xml version="1.0" standalone="no"?><!DOCTYPE svg PUBLIC "-//W3C//DTD SVG 1.1//EN" "http://www.w3.org/Graphics/SVG/1.1/DTD/svg11.dtd"><svg class="icon" width="200px" height="200.00px" viewBox="0 0 1024 1024" version="1.1" xmlns="http://www.w3.org/2000/svg"><path d="M0.028444 0h1024v1024h-1024V0z" fill="#CCCCCC" fill-opacity="0" /><path d="M873.272889 88.177778h-722.488889c-34.133333 0-62.577778 28.444444-62.577778 62.577778v722.488888c0 34.133333 28.444444 62.577778 62.577778 62.577778h722.488889c34.133333 0 62.577778-28.444444 62.577778-62.577778V150.755556c0-34.133333-28.444444-62.577778-62.577778-62.577778z" fill="#333333" /><path d="M873.272889 992.711111h-722.488889c-31.288889 0-62.577778-11.377778-85.333333-34.133333-22.755556-22.755556-34.133333-54.044444-34.133334-85.333334V150.755556c0-31.288889 11.377778-62.577778 34.133334-85.333334 22.755556-22.755556 54.044444-34.133333 85.333333-34.133333h722.488889c31.288889 0 62.577778 11.377778 85.333333 34.133333 22.755556 22.755556 34.133333 54.044444 34.133334 85.333334v722.488888c0 31.288889-11.377778 62.577778-34.133334 85.333334-22.755556 22.755556-54.044444 34.133333-85.333333 34.133333zM150.784 145.066667c-2.844444 0-2.844444 0-5.688889 2.844444s-2.844444 2.844444-2.844444 5.688889v722.488889c0 2.844444 0 2.844444 2.844444 5.688889s2.844444 2.844444 5.688889 2.844444h722.488889c2.844444 0 2.844444 0 5.688889-2.844444s2.844444-2.844444 2.844444-5.688889V153.6c0-2.844444 0-2.844444-2.844444-5.688889s-2.844444-2.844444-5.688889-2.844444h-722.488889z" fill="#333333" /><path d="M256.028444 449.422222c-8.533333 0-17.066667-2.844444-25.6-8.533333-19.911111-14.222222-22.755556-39.822222-8.533333-59.733333 119.466667-159.288889 347.022222-190.577778 506.311111-71.111112 28.444444 19.911111 51.2 45.511111 71.111111 71.111112 14.222222 19.911111 11.377778 45.511111-8.533333 59.733333s-45.511111 11.377778-59.733333-8.533333c-17.066667-19.911111-34.133333-39.822222-54.044445-54.044445-122.311111-91.022222-295.822222-65.422222-386.844444 54.044445-8.533333 11.377778-19.911111 17.066667-34.133334 17.066666zM512.028444 671.288889c39.822222 0 73.955556-34.133333 73.955556-73.955556s-34.133333-73.955556-73.955556-73.955555-73.955556 34.133333-73.955555 73.955555c0 39.822222 34.133333 73.955556 73.955555 73.955556z" fill="#FFFFFF" /><path d="M406.784 449.422222l105.244444 147.911111"  /><path d="M512.028444 640c-14.222222 0-25.6-5.688889-34.133333-17.066667l-105.244444-147.911111c-14.222222-19.911111-8.533333-45.511111 8.533333-59.733333s45.511111-8.533333 59.733333 8.533333l105.244445 147.911111c14.222222 19.911111 8.533333 45.511111-8.533334 59.733334-8.533333 5.688889-17.066667 8.533333-25.6 8.533333z" fill="#FFFFFF" /></svg>