<?xml version="1.0" standalone="no"?><!DOCTYPE svg PUBLIC "-//W3C//DTD SVG 1.1//EN" "http://www.w3.org/Graphics/SVG/1.1/DTD/svg11.dtd"><svg class="icon" width="200px" height="200.00px" viewBox="0 0 1024 1024" version="1.1" xmlns="http://www.w3.org/2000/svg"><path d="M0 0h1024v1024H0z" fill="#CCCCCC" fill-opacity="0" /><path d="M448 486.4H217.6c-28.16 0-51.2-23.04-51.2-51.2V204.8c0-28.16 23.04-51.2 51.2-51.2h230.4c28.16 0 51.2 23.04 51.2 51.2v230.4c0 28.16-23.04 51.2-51.2 51.2zM217.6 204.8v230.4h230.4V204.8H217.6zM819.2 486.4H588.8c-28.16 0-51.2-23.04-51.2-51.2V204.8c0-28.16 23.04-51.2 51.2-51.2h230.4c28.16 0 51.2 23.04 51.2 51.2v230.4c0 28.16-23.04 51.2-51.2 51.2zM588.8 204.8v230.4h230.4V204.8H588.8zM819.2 857.6H588.8c-28.16 0-51.2-23.04-51.2-51.2V576c0-28.16 23.04-51.2 51.2-51.2h230.4c28.16 0 51.2 23.04 51.2 51.2v230.4c0 28.16-23.04 51.2-51.2 51.2zM588.8 576v230.4h230.4V576H588.8zM480 595.2h-281.6c-14.08 0-25.6-11.52-25.6-25.6s11.52-25.6 25.6-25.6h281.6c14.08 0 25.6 11.52 25.6 25.6s-11.52 25.6-25.6 25.6zM198.4 851.2c-14.08 0-25.6-11.52-25.6-25.6v-153.6c0-14.08 11.52-25.6 25.6-25.6s25.6 11.52 25.6 25.6v153.6c0 14.08-11.52 25.6-25.6 25.6zM326.4 800c-14.08 0-25.6-11.52-25.6-25.6v-102.4c0-14.08 11.52-25.6 25.6-25.6s25.6 11.52 25.6 25.6v102.4c0 14.08-11.52 25.6-25.6 25.6zM454.4 851.2c-14.08 0-25.6-11.52-25.6-25.6v-153.6c0-14.08 11.52-25.6 25.6-25.6s25.6 11.52 25.6 25.6v153.6c0 14.08-11.52 25.6-25.6 25.6z" fill="#333333" /></svg>