<?xml version="1.0" standalone="no"?><!DOCTYPE svg PUBLIC "-//W3C//DTD SVG 1.1//EN" "http://www.w3.org/Graphics/SVG/1.1/DTD/svg11.dtd"><svg class="icon" width="200px" height="200.00px" viewBox="0 0 1024 1024" version="1.1" xmlns="http://www.w3.org/2000/svg"><path d="M872.675556 597.333333q0-10.24 1.706666-20.48v-11.377777-16.213334-15.928889a362.382222 362.382222 0 0 0-126.293333-256 35.84 35.84 0 0 0-48.64 2.275556 34.986667 34.986667 0 0 0 2.844444 51.2 292.124444 292.124444 0 0 1 102.115556 199.111111 28.444444 28.444444 0 0 0 0 6.826667 298.666667 298.666667 0 0 1-11.946667 103.822222 250.88 250.88 0 0 1-8.817778 24.462222 24.746667 24.746667 0 0 1-1.991111 4.835556 293.831111 293.831111 0 0 1-562.915555-105.813334v-10.808889-11.946666a291.271111 291.271111 0 0 1 250.595555-275.342222l-28.444444 30.151111a35.271111 35.271111 0 0 0 0 50.346666 35.84 35.84 0 0 0 50.346667 0l89.031111-92.16a35.555556 35.555556 0 0 0 0-50.346666L487.822222 113.777778a35.555556 35.555556 0 1 0-49.493333 50.915555l30.435555 28.444445a361.813333 361.813333 0 0 0-193.422222 85.333333c-5.688889 4.835556-10.808889 10.24-16.213333 15.36s-9.671111 8.817778-14.222222 13.653333c-8.533333 9.386667-16.497778 19.342222-24.177778 28.444445l-2.56 5.404444c-5.973333 8.248889-11.662222 16.497778-16.782222 25.031111s-8.248889 14.791111-12.231111 22.186667l-3.128889 6.257778a354.986667 354.986667 0 0 0-37.262223 176.924444 376.035556 376.035556 0 0 0 6.257778 48.071111l1.706667 8.817778c0 5.12 2.275556 10.524444 3.697778 15.644445a355.271111 355.271111 0 0 0 85.333333 158.435555 363.52 363.52 0 0 0 522.24 10.24A358.115556 358.115556 0 0 0 867.84 625.777778a72.817778 72.817778 0 0 0 0-7.68q3.697778-10.24 4.835556-20.764445z" fill="#333333" /></svg>