<?xml version="1.0" standalone="no"?><!DOCTYPE svg PUBLIC "-//W3C//DTD SVG 1.1//EN" "http://www.w3.org/Graphics/SVG/1.1/DTD/svg11.dtd"><svg class="icon" width="200px" height="200.00px" viewBox="0 0 1024 1024" version="1.1" xmlns="http://www.w3.org/2000/svg"><path d="M533.344 736c-160 0-288-128-288-288V288c0-35.2 28.8-64 64-64h448c35.2 0 64 28.8 64 64v160c0 160-128 288-288 288z m-224-448v160c0 124.8 99.2 224 224 224s224-99.2 224-224V288h-448z" fill="#CCCCCC" /><path d="M502.4 672h64v160h-64z" fill="#CCCCCC" /><path d="M342.4 800h384v64h-384zM288 544H256c-70.4 0-128-57.6-128-128V288h160v256z m-96-192v64c0 22.4 12.8 44.8 32 54.4V352H192zM800 544h-32V288h160v128c0 70.4-57.6 128-128 128z m32-192v118.4c19.2-9.6 32-32 32-54.4v-64h-32z" fill="#CCCCCC" /></svg>