<?xml version="1.0" standalone="no"?><!DOCTYPE svg PUBLIC "-//W3C//DTD SVG 1.1//EN" "http://www.w3.org/Graphics/SVG/1.1/DTD/svg11.dtd"><svg class="icon" width="200px" height="200.00px" viewBox="0 0 1024 1024" version="1.1" xmlns="http://www.w3.org/2000/svg"><path d="M0 0h1024v1024H0V0z" fill="#CCCCCC" fill-opacity="0" /><path d="M512 512m-405.333333 0a405.333333 405.333333 0 1 0 810.666666 0 405.333333 405.333333 0 1 0-810.666666 0Z" fill="#FF4059" /><path d="M512 917.333333C288 917.333333 106.666667 736 106.666667 512S288 106.666667 512 106.666667s405.333333 181.333333 405.333333 405.333333-181.333333 405.333333-405.333333 405.333333z m0-768C311.466667 149.333333 149.333333 311.466667 149.333333 512s162.133333 362.666667 362.666667 362.666667 362.666667-162.133333 362.666667-362.666667S712.533333 149.333333 512 149.333333z" fill="#FF4059" /><path d="M686.933333 328.533333L435.2 601.6 332.8 490.666667l-49.066667 57.6 151.466667 157.866666 305.066667-324.266666-53.333334-53.333334z" fill="#FFFFFF" /></svg>