<?xml version="1.0" standalone="no"?><!DOCTYPE svg PUBLIC "-//W3C//DTD SVG 1.1//EN" "http://www.w3.org/Graphics/SVG/1.1/DTD/svg11.dtd"><svg class="icon" width="200px" height="200.00px" viewBox="0 0 1024 1024" version="1.1" xmlns="http://www.w3.org/2000/svg"><path d="M0 0h1024v1024H0z" fill="#CCCCCC" fill-opacity="0" /><path d="M524.8 697.6c-98.133333 0-179.2-81.066667-179.2-179.2s81.066667-179.2 179.2-179.2 179.2 81.066667 179.2 179.2-81.066667 179.2-179.2 179.2z m0-273.066667c-51.2 0-93.866667 42.666667-93.866667 93.866667s42.666667 93.866667 93.866667 93.866667 93.866667-42.666667 93.866667-93.866667-42.666667-93.866667-93.866667-93.866667z" fill="#FFFFFF" /><path d="M524.8 962.133333c-19.2 0-36.266667-4.266667-53.333333-14.933333L179.2 778.666667c-32-19.2-53.333333-55.466667-53.333333-91.733334V349.866667c0-38.4 21.333333-72.533333 53.333333-91.733334l292.266667-168.533333c32-19.2 74.666667-19.2 106.666666 0l292.266667 168.533333c32 19.2 53.333333 55.466667 53.333333 91.733334v337.066666c0 38.4-21.333333 72.533333-53.333333 91.733334l-292.266667 168.533333c-14.933333 8.533333-34.133333 14.933333-53.333333 14.933333z m0-802.133333c-4.266667 0-6.4 0-10.666667 2.133333l-292.266666 168.533334c-6.4 4.266667-10.666667 10.666667-10.666667 19.2v337.066666c0 8.533333 4.266667 14.933333 10.666667 19.2L514.133333 874.666667c6.4 4.266667 14.933333 4.266667 21.333334 0l292.266666-168.533334c6.4-4.266667 10.666667-10.666667 10.666667-19.2V349.866667c0-8.533333-4.266667-14.933333-10.666667-19.2L535.466667 162.133333c-2.133333 0-6.4-2.133333-10.666667-2.133333z" fill="#FFFFFF" /></svg>