<?xml version="1.0" standalone="no"?><!DOCTYPE svg PUBLIC "-//W3C//DTD SVG 1.1//EN" "http://www.w3.org/Graphics/SVG/1.1/DTD/svg11.dtd"><svg class="icon" width="200px" height="200.00px" viewBox="0 0 1024 1024" version="1.1" xmlns="http://www.w3.org/2000/svg"><path d="M511.962669 0c282.646057 0 511.962669 229.316612 511.96267 511.962669s-229.316612 511.962669-511.96267 511.96267-511.962669-229.316612-511.962669-511.96267 229.316612-511.962669 511.962669-511.962669z" fill="#F4F4F4" /><path d="M506.629725 720.022165C382.905413 720.022165 282.646057 619.762809 282.646057 496.038497S382.905413 272.054829 506.629725 272.054829s223.983668 100.259356 223.983668 223.983668-100.259356 223.983668-223.983668 223.983668z m0-415.969669C401.037424 304.052496 314.643724 390.446197 314.643724 496.038497s86.3937 191.986001 191.986001 191.986001 191.986001-86.3937 191.986001-191.986001S612.222025 304.052496 506.629725 304.052496z" fill="#111111" /><path d="M527.961503 458.633225l21.331778 37.330611-21.331778 37.330611h-42.663556l-21.331778-37.330611 21.331778-37.330611h42.663556m19.1986-31.997667h-79.994167l-40.530378 69.328278 40.530378 69.328278h79.994167l40.530378-69.328278c-1.066589 0-40.530378-69.328278-40.530378-69.328278z"  /><path d="M427.232848 496.166488l115.1916-199.516119 27.70998 15.998834-115.191601 199.516118zM522.905871 451.263095l27.70998-15.998833 115.191601 199.516119-27.70998 15.998833z" fill="#111111" /><path d="M341.585759 355.280761l27.70998-15.998834 115.1916 199.505453-27.709979 15.998834zM478.898414 426.635558h230.383201v31.997667H478.898414z" fill="#111111" /><path d="M308.244191 533.294447h230.383201v31.997667H308.244191z" fill="#111111" /><path d="M438.943994 688.131157l115.1916-199.516119 27.70998 15.998834-115.191601 199.516119z" fill="#111111" /></svg>