<?xml version="1.0" standalone="no"?><!DOCTYPE svg PUBLIC "-//W3C//DTD SVG 1.1//EN" "http://www.w3.org/Graphics/SVG/1.1/DTD/svg11.dtd"><svg class="icon" width="200px" height="200.00px" viewBox="0 0 1024 1024" version="1.1" xmlns="http://www.w3.org/2000/svg"><path d="M511.797439 0.533056c282.519521 0 511.733472 229.213951 511.733472 511.733472s-229.213951 511.733472-511.733472 511.733472-511.733472-229.213951-511.733472-511.733472c0-283.585632 229.213951-511.733472 511.733472-511.733472z" fill="#F4F4F4" /><path d="M383.864071 644.464341l63.966684-186.569495 159.91671-61.834461-63.966684 186.569495-159.91671 61.834461z m89.553357-162.048932l-36.247787 106.61114 81.024466-31.983342 36.247788-106.61114-81.024467 31.983342z m57.570016 87.421134z"  /><path d="M495.805768 770.265487c-138.594482 0-250.536179-111.941697-250.536179-250.536179s111.941697-250.536179 250.536179-250.536179 250.536179 111.941697 250.536179 250.536179-113.007808 250.536179-250.536179 250.536179z m0-469.089016c-120.470588 0-218.552837 98.082249-218.552837 218.552837s98.082249 218.552837 218.552837 218.552837 218.552837-98.082249 218.552837-218.552837-98.082249-218.552837-218.552837-218.552837z" fill="#111111" /></svg>