<?xml version="1.0" standalone="no"?><!DOCTYPE svg PUBLIC "-//W3C//DTD SVG 1.1//EN" "http://www.w3.org/Graphics/SVG/1.1/DTD/svg11.dtd"><svg class="icon" width="200px" height="200.00px" viewBox="0 0 1024 1024" version="1.1" xmlns="http://www.w3.org/2000/svg"><path d="M512 0a512 512 0 0 1 512 512 512 512 0 0 1-512 512A512 512 0 0 1 0 512 512 512 0 0 1 512 0z" fill="#F4F4F4" /><path d="M669.76 707.946667H354.346667A66.346667 66.346667 0 0 1 288 641.6V448.96a66.346667 66.346667 0 0 1 66.24-66.24h21.333333a34.346667 34.346667 0 0 0 28.586667-15.36l14.506667-21.333333a66.24 66.24 0 0 1 55.146666-29.546667h76.586667a66.24 66.24 0 0 1 55.146667 29.546667l14.506666 21.333333a34.346667 34.346667 0 0 0 28.586667 15.36h21.333333A66.346667 66.346667 0 0 1 736 448.96v192.64a66.346667 66.346667 0 0 1-66.24 66.346667zM354.346667 414.72A34.24 34.24 0 0 0 320 448.96v192.64a34.346667 34.346667 0 0 0 34.24 34.346667h315.52A34.346667 34.346667 0 0 0 704 641.6V448.96a34.24 34.24 0 0 0-34.24-34.24h-21.333333a66.24 66.24 0 0 1-55.253334-29.653333l-14.506666-21.333334a34.026667 34.026667 0 0 0-28.48-15.36h-76.48a34.133333 34.133333 0 0 0-28.48 15.253334l-14.506667 21.333333a66.346667 66.346667 0 0 1-55.253333 29.546667z" fill="#111111" /><path d="M512 616.426667a85.333333 85.333333 0 1 1 85.333333-85.333334 85.333333 85.333333 0 0 1-85.333333 85.333334z m0-138.666667a53.333333 53.333333 0 1 0 53.333333 53.333333 53.333333 53.333333 0 0 0-53.333333-53.333333z" fill="#111111" /></svg>