<?xml version="1.0" standalone="no"?><!DOCTYPE svg PUBLIC "-//W3C//DTD SVG 1.1//EN" "http://www.w3.org/Graphics/SVG/1.1/DTD/svg11.dtd"><svg class="icon" width="200px" height="200.00px" viewBox="0 0 1024 1024" version="1.1" xmlns="http://www.w3.org/2000/svg"><path d="M512.026665 0c282.646057 0 511.962669 229.316612 511.962669 511.962669s-229.316612 511.962669-511.962669 511.96267-511.962669-229.316612-511.96267-511.96267 229.316612-511.962669 511.96267-511.962669z" fill="#F4F4F4" /><path d="M461.896987 326.376202c-43.730145 0-85.327112 15.998833-116.25819 44.796733-29.864489 28.7979-46.929911 66.128511-46.929911 106.65889 0 23.464956 5.332944 45.863322 15.998833 66.128511 5.332944 10.665889 12.799067 30.931078 9.5993 87.46029 31.997667-7.466122 56.529211-10.665889 72.528045-10.665889 7.466122 0 12.799067 1.066589 18.132011 2.133177 14.932245 4.266356 29.864489 6.399533 45.863323 6.399534 43.730145 0 85.327112-15.998833 116.258189-44.796734 29.864489-28.7979 46.929911-66.128511 46.929912-106.658889 0-39.463789-17.065422-77.860989-46.929912-106.65889-29.864489-28.7979-71.461456-44.796734-115.1916-44.796733m0-31.997667c107.725478 0 195.185768 82.127345 195.185767 183.45329s-87.460289 183.45329-195.185767 183.45329c-19.1986 0-37.330611-2.133178-54.396034-7.466123-2.133178-1.066589-5.332944-1.066589-9.5993-1.066589-18.132011 0-51.196267 6.399533-74.661223 11.732478-2.133178 0-4.266356 1.066589-5.332944 1.066589-13.865656 0-25.598133-11.732478-24.531545-25.598133 2.133178-27.731311 2.133178-65.061923-5.332944-81.060756-12.799067-24.531545-20.265189-52.262856-20.265189-81.060756-2.133178-101.325945 86.3937-183.45329 194.119179-183.45329z" fill="#111111" /><path d="M696.546543 709.281615c-30.931078-7.466122-53.329445-10.665889-67.1951-10.665889-5.332944 0-8.532711 0-12.799067 1.066589-12.799067 3.199767-26.664722 5.332944-40.530378 5.332944-38.3972 0-75.727812-13.865656-102.392533-39.463789-26.664722-25.598133-41.596967-58.662389-41.596967-94.926411 0-36.264022 14.932245-69.328278 41.596967-94.926412 27.731311-25.598133 63.995334-39.463789 102.392533-39.463789 38.3972 0 75.727812 13.865656 102.392534 39.463789 26.664722 25.598133 41.596967 58.662389 41.596967 94.926412 0 21.331778-5.332944 40.530378-14.932244 59.728978-2.133178 4.266356-10.665889 19.1986-6.399534 75.727811 0 1.066589 0 2.133178-1.066589 2.133178 1.066589 0 0 1.066589-1.066589 1.066589z" fill="#F4F4F4" /><path d="M576.021998 451.167102c-71.461456 0-129.057256 53.329445-129.057256 118.391368s57.5958 118.391367 129.057256 118.391367c12.799067 0 24.531545-2.133178 36.264023-5.332944 4.266356-1.066589 10.665889-2.133178 15.998833-2.133178 11.732478 0 29.864489 2.133178 54.396034 7.466122-1.066589-41.596967 4.266356-57.5958 9.5993-68.261689 8.532711-15.998833 12.799067-34.130845 12.799067-52.262856 0-62.928745-57.5958-116.25819-129.057257-116.25819m0-31.997666c88.526878 0 161.054923 67.1951 161.054923 150.389034 0 23.464956-6.399533 46.929911-17.065422 67.1951-6.399533 12.799067-6.399533 44.796734-4.266355 67.1951 1.066589 11.732478-8.532711 20.265189-19.198601 20.265189h-4.266355c-20.265189-4.266356-47.9965-10.665889-62.928745-10.665889-3.199767 0-6.399533 0-8.532711 1.066589-13.865656 4.266356-28.7979 6.399533-44.796734 6.399534-88.526878 0-161.054923-67.1951-161.054923-150.389034 1.066589-84.260523 72.528045-151.455623 161.054923-151.455623z" fill="#111111" /><path d="M617.618965 561.025759c0 10.665889 8.532711 19.1986 19.1986 19.1986s19.1986-8.532711 19.1986-19.1986-8.532711-19.1986-19.1986-19.198601c-10.665889 1.066589-19.1986 9.5993-19.1986 19.198601zM521.625965 561.025759c0 10.665889 8.532711 19.1986 19.1986 19.1986s19.1986-8.532711 19.1986-19.1986-8.532711-19.1986-19.1986-19.198601c-10.665889 1.066589-19.1986 9.5993-19.1986 19.198601z" fill="#111111" /></svg>