<?xml version="1.0" standalone="no"?><!DOCTYPE svg PUBLIC "-//W3C//DTD SVG 1.1//EN" "http://www.w3.org/Graphics/SVG/1.1/DTD/svg11.dtd"><svg class="icon" width="200px" height="200.00px" viewBox="0 0 1024 1024" version="1.1" xmlns="http://www.w3.org/2000/svg"><path d="M0 0h1022.934443v1022.934443H0z" fill="#CCCCCC" fill-opacity="0" /><path d="M85.244537 899.329865h-8.524454c-12.786681-2.131113-21.311134-12.786681-23.442247-25.573361 0-4.262227-51.146722-362.289282 400.649323-537.040583v-179.013528c0-12.786681 6.39334-23.442248 17.048908-27.704474 10.655567-6.39334 23.442248-4.262227 31.966701 2.131113l473.10718 328.191467c8.524454 6.39334 12.786681 14.917794 12.786681 25.573362s-4.262227 19.180021-12.786681 25.573361l-473.10718 364.420395c-10.655567 6.39334-23.442248 8.524454-34.097815 4.262227-10.655567-6.39334-17.048907-17.048907-17.048907-27.704475v-159.833506c-46.884495-10.655567-181.144641-19.180021-343.109261 196.062435-4.262227 6.39334-14.917794 10.655567-23.442248 10.655567z m326.060354-277.044745c51.146722 0 85.244537 14.917794 87.37565 17.048907 10.655567 6.39334 17.048907 17.048907 17.048907 27.704475v117.211238l387.862644-298.355879-387.862644-268.520292v138.522373c0 12.786681-8.524454 25.573361-21.311134 29.835588-289.831426 104.424558-362.289282 283.438085-377.207076 389.993756 119.342352-125.735692 225.898023-153.440166 294.093653-153.440166z" fill="#333333" /></svg>