<?xml version="1.0" standalone="no"?><!DOCTYPE svg PUBLIC "-//W3C//DTD SVG 1.1//EN" "http://www.w3.org/Graphics/SVG/1.1/DTD/svg11.dtd"><svg class="icon" width="200px" height="200.00px" viewBox="0 0 1024 1024" version="1.1" xmlns="http://www.w3.org/2000/svg"><path d="M512.079994 0c282.646057 0 511.962669 229.316612 511.96267 511.962669s-229.316612 511.962669-511.96267 511.96267-511.962669-229.316612-511.962669-511.96267 229.316612-511.962669 511.962669-511.962669z" fill="#F4F4F4" /><path d="M468.29652 616.477715c-42.663556 0-76.7944-25.598133-76.7944-57.5958C391.50212 526.884248 425.632964 501.286115 468.29652 501.286115s76.7944 25.598133 76.7944 57.5958c-1.066589 31.997667-34.130845 57.5958-76.7944 57.5958z m0-83.193934C441.631798 533.283781 423.499786 547.149437 423.499786 558.881915s18.132011 25.598133 44.796734 25.598133 44.796734-13.865656 44.796734-25.598133S493.894654 533.283781 468.29652 533.283781z"  /><path d="M474.749383 363.706813c-2.133178 0-5.332944 1.066589-7.466122 2.133178-50.129678 26.664722-151.455623 93.859823-151.455623 197.318945 0 70.394867 79.994167 113.058423 169.587634 113.058423 84.260523 0 177.053756-37.330611 220.783901-123.724312 23.464956-47.9965-111.991834-9.5993-86.3937-104.525711 3.199767-10.665889-5.332944-20.265189-14.932245-20.265189-2.133178 0-3.199767 0-5.332944 1.066589-15.998833 5.332944-36.264022 10.665889-54.396034 10.665889-29.864489 0-54.396034-12.799067-53.329445-58.66239-1.066589-9.5993-8.532711-17.065422-17.065422-17.065422m0-31.997667c12.799067 0 25.598133 5.332944 35.197433 14.932245 9.5993 9.5993 13.865656 22.398367 12.799067 35.197433 0 10.665889 1.066589 18.132011 4.266356 21.331778 2.133178 2.133178 8.532711 4.266356 17.065422 4.266356 11.732478 0 26.664722-3.199767 44.796734-8.532711 5.332944-2.133178 9.5993-2.133178 14.932244-2.133178 14.932245 0 28.7979 7.466122 38.3972 19.1986 9.5993 11.732478 11.732478 27.731311 8.532711 41.596967-2.133178 8.532711-3.199767 15.998833-1.066588 19.1986 3.199767 6.399533 21.331778 10.665889 34.130844 13.865655 8.532711 2.133178 17.065422 4.266356 25.598134 7.466123 13.865656 6.399533 23.464956 14.932245 28.7979 25.598133 4.266356 9.5993 7.466122 23.464956-2.133178 42.663556-11.732478 23.464956-27.731311 45.863322-46.929911 63.995334-18.132011 17.065422-38.3972 31.997667-61.862156 43.730144-41.596967 21.331778-90.660056 33.064256-140.789734 33.064256-51.196267 0-99.192767-12.799067-135.45679-35.197433-42.663556-26.664722-66.128511-65.061923-66.128511-109.858657 0-28.7979 6.399533-57.5958 20.265189-84.260522 10.665889-22.398367 26.664722-44.796734 45.863322-65.061923 34.130845-36.264022 74.661223-60.795567 102.392534-75.727811 5.332944-3.199767 13.865656-5.332944 21.331778-5.332945zM696.599873 426.635558c-6.399533 0-12.799067-4.266356-14.932245-10.665889-8.532711-25.598133-28.7979-44.796734-55.462622-52.262856-8.532711-2.133178-13.865656-10.665889-11.732478-19.1986 2.133178-8.532711 10.665889-13.865656 19.1986-11.732478 36.264022 9.5993 66.128511 37.330611 77.860989 72.528045 3.199767 8.532711-2.133178 17.065422-10.665888 20.265189-1.066589 1.066589-2.133178 1.066589-4.266356 1.066589z" fill="#111111" /></svg>