<?xml version="1.0" standalone="no"?><!DOCTYPE svg PUBLIC "-//W3C//DTD SVG 1.1//EN" "http://www.w3.org/Graphics/SVG/1.1/DTD/svg11.dtd"><svg class="icon" width="200px" height="200.00px" viewBox="0 0 1024 1024" version="1.1" xmlns="http://www.w3.org/2000/svg"><path d="M512.074651 0.223953c282.60779 0 511.893356 229.285566 511.893356 511.893356s-229.285566 511.893356-511.893356 511.893355-511.893356-229.285566-511.893355-511.893355 229.285566-511.893356 511.893355-511.893356z" fill="#F4F4F4" /><path d="M693.370215 692.346428h-362.591127c-8.531556 0-15.996667-7.465111-15.996668-15.996668v-115.176005c0-8.531556 7.465111-15.996667 15.996668-15.996667s15.996667 7.465111 15.996667 15.996667v99.179338h330.597792v-99.179338c0-8.531556 7.465111-15.996667 15.996668-15.996667s15.996667 7.465111 15.996667 15.996667v115.176005c0 9.598-7.465111 15.996667-15.996667 15.996668z" fill="#111111" /><path d="M512.074651 576.103978c-8.531556 0-15.996667-7.465111-15.996667-15.996667v-213.288898c0-8.531556 7.465111-15.996667 15.996667-15.996668s15.996667 7.465111 15.996667 15.996668v213.288898c0 8.531556-7.465111 15.996667-15.996667 15.996667z" fill="#111111" /><path d="M512.074651 608.097313c-4.265778 0-8.531556-1.066444-11.730889-4.265778l-90.647782-90.647782c-6.398667-6.398667-6.398667-15.996667 0-22.395334s15.996667-6.398667 22.395334 0l78.916893 78.916892 78.916892-78.916892c6.398667-6.398667 15.996667-6.398667 22.395334 0s6.398667 15.996667 0 22.395334l-90.647781 90.647782c-1.066444 3.199333-5.332222 4.265778-9.598001 4.265778z" fill="#111111" /></svg>