<?xml version="1.0" standalone="no"?><!DOCTYPE svg PUBLIC "-//W3C//DTD SVG 1.1//EN" "http://www.w3.org/Graphics/SVG/1.1/DTD/svg11.dtd"><svg class="icon" width="200px" height="200.00px" viewBox="0 0 1024 1024" version="1.1" xmlns="http://www.w3.org/2000/svg"><path d="M511.850744 0.533056c282.519521 0 511.733472 229.213951 511.733473 511.733472s-229.213951 511.733472-511.733473 511.733472-511.733472-229.213951-511.733472-511.733472c0-283.585632 229.213951-511.733472 511.733472-511.733472z" fill="#F4F4F4" /><path d="M430.826278 610.348777c-86.355023 0-157.784487-70.363352-157.784487-157.784488s70.363352-157.784487 157.784487-157.784487 157.784487 70.363352 157.784487 157.784487-70.363352 157.784487-157.784487 157.784488z m0-282.519521c-69.297241 0-125.801145 56.503904-125.801145 125.801145s56.503904 125.801145 125.801145 125.801145 125.801145-56.503904 125.801145-125.801145-56.503904-125.801145-125.801145-125.801145z" fill="#111111" /><path d="M549.164643 732.951588h-235.610619c-8.528891 0-15.991671-7.46278-15.991671-15.991671 0-73.561687 59.702238-133.263925 133.263925-133.263925s133.263925 59.702238 133.263925 133.263925c1.066111 8.528891-6.396668 15.991671-14.92556 15.991671z m-218.552837-31.983342h201.495055c-7.46278-49.041124-50.107236-85.288912-100.214472-85.288912s-93.817803 36.247788-101.280583 85.288912zM600.337991 597.55544c-8.528891 0-15.991671-7.46278-15.991671-15.991671s7.46278-15.991671 15.991671-15.991671c56.503904 0 101.280583-45.84279 101.280583-101.280583 0-56.503904-45.84279-101.280583-101.280583-101.280583-8.528891 0-15.991671-7.46278-15.991671-15.991671s7.46278-15.991671 15.991671-15.991671c73.561687 0 133.263925 59.702238 133.263925 133.263925s-58.636127 133.263925-133.263925 133.263925z" fill="#111111" /><path d="M698.420239 698.836023h-88.487246c-8.528891 0-15.991671-7.46278-15.991671-15.991671s7.46278-15.991671 15.991671-15.991671h71.429464c-7.46278-37.313899-40.512233-66.098907-81.024466-66.098907-8.528891 0-15.991671-7.46278-15.991671-15.991671s7.46278-15.991671 15.991671-15.991671c62.900573 0 114.07392 51.173347 114.073919 114.07392 0 9.595003-6.396668 15.991671-15.991671 15.991671z" fill="#111111" /></svg>