<?xml version="1.0" standalone="no"?><!DOCTYPE svg PUBLIC "-//W3C//DTD SVG 1.1//EN" "http://www.w3.org/Graphics/SVG/1.1/DTD/svg11.dtd"><svg class="icon" width="200px" height="200.00px" viewBox="0 0 1024 1024" version="1.1" xmlns="http://www.w3.org/2000/svg"><path d="M512.14399 0c282.646057 0 511.962669 229.316612 511.962669 511.962669s-229.316612 511.962669-511.962669 511.96267-511.962669-229.316612-511.96267-511.96267 229.316612-511.962669 511.96267-511.962669z" fill="#F4F4F4" /><path d="M593.204745 721.014093c-20.265189 0-46.929911-3.199767-81.060755-10.665889-81.060756 15.998833-119.457956 13.865656-130.123846-9.5993-8.532711-18.132011 5.332944-36.264022 18.132012-49.063089-10.665889-14.932245-17.065422-36.264022-20.265189-52.262856-22.398367 5.332944-46.929911 6.399533-58.66239-11.732478-20.265189-31.997667 28.7979-97.059589 54.396034-127.990667 1.066589-56.529211 15.998833-99.192767 45.863322-125.85749 33.064256-30.931078 73.594634-30.931078 90.660057-29.864489 17.065422-1.066589 57.5958 0 90.660056 29.864489 28.7979 26.664722 44.796734 69.328278 45.863322 125.85749 26.664722 30.931078 75.727812 95.993001 54.396034 127.990667-11.732478 18.132011-36.264022 17.065422-58.66239 11.732478-3.199767 15.998833-10.665889 37.330611-20.265189 52.262856 12.799067 12.799067 25.598133 31.997667 17.065423 49.063089-5.332944 13.865656-21.331778 20.265189-47.996501 20.265189z m-81.060755-42.663556h3.199766c67.1951 13.865656 89.593467 10.665889 95.993001 8.532711-3.199767-5.332944-11.732478-14.932245-20.265189-22.398367-4.266356-3.199767-6.399533-8.532711-6.399534-13.865655 1.066589-5.332944 4.266356-10.665889 8.532711-12.799067 6.399533-3.199767 18.132011-33.064256 22.398367-60.795567 1.066589-4.266356 3.199767-8.532711 7.466123-10.665889 4.266356-2.133178 8.532711-3.199767 12.799066-2.133178 31.997667 9.5993 39.463789 5.332944 39.463789 5.332945 3.199767-9.5993-23.464956-55.462623-56.529211-93.859823-2.133178-3.199767-4.266356-6.399533-4.266356-10.665889 0-50.129678-11.732478-86.3937-35.197433-107.725478-25.598133-23.464956-58.662389-22.398367-68.261689-21.331778h-3.199767c-9.5993-1.066589-42.663556-2.133178-68.261689 21.331778-23.464956 21.331778-35.197434 57.5958-35.197434 107.725478 0 4.266356-1.066589 7.466122-4.266355 10.665889-33.064256 37.330611-59.728978 83.193934-55.462623 93.859823 0 0 2.133178 1.066589 6.399533 1.066589 5.332944 0 15.998833-1.066589 33.064256-6.399534 4.266356-1.066589 9.5993-1.066589 12.799067 2.133178 4.266356 2.133178 6.399533 6.399533 7.466122 10.665889 4.266356 27.731311 15.998833 57.5958 22.398367 60.795567 5.332944 2.133178 8.532711 7.466122 8.532711 12.799067 1.066589 5.332944-2.133178 10.665889-6.399533 13.865655-8.532711 7.466122-17.065422 17.065422-20.265189 22.398367 6.399533 2.133178 28.7979 5.332944 95.993-8.532711h7.466123z m136.523378-213.317779z" fill="#111111" /></svg>