<?xml version="1.0" standalone="no"?><!DOCTYPE svg PUBLIC "-//W3C//DTD SVG 1.1//EN" "http://www.w3.org/Graphics/SVG/1.1/DTD/svg11.dtd"><svg class="icon" width="200px" height="200.00px" viewBox="0 0 1024 1024" version="1.1" xmlns="http://www.w3.org/2000/svg"><path d="M511.733472 0.533056c282.519521 0 511.733472 229.213951 511.733472 511.733472s-229.213951 511.733472-511.733472 511.733472-511.733472-229.213951-511.733472-511.733472c0-283.585632 229.213951-511.733472 511.733472-511.733472z" fill="#F4F4F4" /><path d="M388.06455 699.902134l125.801145-67.165018 126.867257 65.032796-26.652785-140.726705 101.280583-100.214472-140.726705-19.190005-63.966684-126.867257-61.834461 127.933368-140.726705 21.322228 102.346694 98.082249-22.388339 141.792816m0 31.983342c-6.396668 0-12.793337-2.132223-18.123894-6.396668-9.595003-7.46278-14.92556-19.190005-12.793337-30.917231l20.256117-123.668922-90.619469-87.421135c-8.528891-8.528891-11.727225-21.322228-8.528892-33.049453 3.198334-11.727225 13.859448-20.256117 25.586674-22.38834l123.668923-19.190005 54.371681-113.007808c5.330557-10.661114 15.991671-18.123894 28.785008-18.123894 11.727225 0 23.454451 6.396668 28.785008 18.123894l56.503904 111.941697 124.735034 17.057782c11.727225 2.132223 22.388339 9.595003 25.586673 21.322228 4.264446 11.727225 1.066111 24.520562-7.46278 33.049453l-89.553357 88.487247 22.388339 123.668922c2.132223 11.727225-3.198334 24.520562-12.793337 30.917231-5.330557 4.264446-12.793337 6.396668-19.190005 6.396668-5.330557 0-9.595003-1.066111-14.925559-3.198334l-111.941697-57.570016-109.809475 59.702239c-5.330557 3.198334-10.661114 4.264446-14.925559 4.264445z" fill="#111111" /><path d="M533.0557 593.290994c-42.644456 0-83.156689-3.198334-86.355023-3.198334-7.46278-1.066111-12.793337-5.330557-13.859448-12.793337-1.066111-6.396668 1.066111-13.859448 7.462779-17.057782l102.346695-60.76835c-28.785008-3.198334-72.495575-5.330557-110.875586-5.330557-8.528891 0-15.991671-7.46278-15.991671-15.991671s7.46278-15.991671 15.991671-15.991671c30.917231 0 134.330036 1.066111 160.982822 19.190005 4.264446 3.198334 7.46278 8.528891 7.462779 13.859448s-3.198334 10.661114-7.462779 13.859449l-90.619469 53.30557c29.851119 1.066111 65.032795 1.066111 87.421134-3.198335 8.528891-1.066111 17.057782 4.264446 18.123894 12.793337 1.066111 8.528891-4.264446 17.057782-12.793337 18.123894-17.057782 2.132223-39.446122 3.198334-61.834461 3.198334z" fill="#111111" /></svg>