<?xml version="1.0" standalone="no"?><!DOCTYPE svg PUBLIC "-//W3C//DTD SVG 1.1//EN" "http://www.w3.org/Graphics/SVG/1.1/DTD/svg11.dtd"><svg class="icon" width="200px" height="200.00px" viewBox="0 0 1024 1024" version="1.1" xmlns="http://www.w3.org/2000/svg"><path d="M0 0h1024v1024H0z" fill="#CCCCCC" fill-opacity="0" /><path d="M646.4 889.6c-6.4 0-16-3.2-22.4-6.4l-201.6-105.6-182.4 73.6c-16 6.4-32 3.2-44.8-6.4-12.8-9.6-22.4-22.4-22.4-38.4v-268.8c0-25.6 22.4-48 48-48s48 22.4 48 48V736l134.4-54.4c12.8-6.4 28.8-3.2 38.4 3.2l198.4 102.4 134.4-86.4v-163.2c0-25.6 22.4-48 48-48s48 22.4 48 48v188.8c0 16-9.6 32-22.4 41.6l-182.4 115.2c0 3.2-9.6 6.4-19.2 6.4z" fill="#333333" /><path d="M524.8 665.6l-182.4-195.2c-28.8-38.4-44.8-86.4-44.8-134.4 0-124.8 102.4-224 224-224h6.4c124.8 0 224 102.4 224 224 0 48-16 96-44.8 134.4l-3.2 3.2-179.2 192zM416 412.8l108.8 115.2 108.8-115.2c16-22.4 22.4-48 22.4-73.6 0-70.4-57.6-128-128-128h-6.4c-70.4 0-128 57.6-128 128 0 25.6 6.4 51.2 22.4 73.6z m252.8 28.8z" fill="#333333" /></svg>