<?xml version="1.0" standalone="no"?><!DOCTYPE svg PUBLIC "-//W3C//DTD SVG 1.1//EN" "http://www.w3.org/Graphics/SVG/1.1/DTD/svg11.dtd"><svg class="icon" width="200px" height="200.00px" viewBox="0 0 1024 1024" version="1.1" xmlns="http://www.w3.org/2000/svg"><path d="M0 0h1024v1024H0z" fill="#CCCCCC" fill-opacity="0" /><path d="M508.8 889.6c-25.6 0-51.2-9.6-67.2-28.8-16-19.2-25.6-44.8-22.4-67.2l9.6-150.4H297.6c-35.2 0-67.2-22.4-80-51.2-12.8-28.8-9.6-67.2 9.6-92.8l236.8-313.6c16-19.2 35.2-32 60.8-35.2 22.4-3.2 48 3.2 67.2 19.2 3.2 3.2 9.6 6.4 12.8 12.8 16 22.4 25.6 48 19.2 73.6l-19.2 121.6h128c35.2 0 64 19.2 80 51.2 16 28.8 12.8 64-6.4 92.8l-224 336c-16 16-41.6 32-73.6 32z m6.4-92.8z m-12.8 0zM480 544h51.2l-16 230.4 204.8-310.4h-230.4l32-208-214.4 284.8H480z" fill="#333333" /></svg>