<?xml version="1.0" standalone="no"?><!DOCTYPE svg PUBLIC "-//W3C//DTD SVG 1.1//EN" "http://www.w3.org/Graphics/SVG/1.1/DTD/svg11.dtd"><svg class="icon" width="200px" height="200.00px" viewBox="0 0 1024 1024" version="1.1" xmlns="http://www.w3.org/2000/svg"><path d="M480 825.6c-6.4-9.6-12.8-19.2-9.6-32l12.8-201.6H300.8c-16 0-32-9.6-38.4-25.6-6.4-16-6.4-32 3.2-44.8l236.8-313.6c12.8-19.2 41.6-22.4 57.6-6.4l6.4 6.4c6.4 9.6 12.8 22.4 9.6 35.2l-25.6 176H736c16 0 28.8 9.6 38.4 22.4 6.4 12.8 6.4 32-3.2 44.8l-224 336c-6.4 12.8-19.2 19.2-35.2 19.2-16 0-25.6-6.4-32-16z m28.8-6.4v-9.6 9.6z" fill="#FFFFFF" /><path d="M0 0h1024v1024H0z" fill="#FFFFFF" fill-opacity="0" /></svg>