<?xml version="1.0" standalone="no"?><!DOCTYPE svg PUBLIC "-//W3C//DTD SVG 1.1//EN" "http://www.w3.org/Graphics/SVG/1.1/DTD/svg11.dtd"><svg class="icon" width="200px" height="200.00px" viewBox="0 0 1024 1024" version="1.1" xmlns="http://www.w3.org/2000/svg"><path d="M0 0h1024v1024H0z" fill="#CCCCCC" fill-opacity="0" /><path d="M512 147.2C310.4 147.2 147.2 310.4 147.2 512S310.4 876.8 512 876.8 876.8 713.6 876.8 512c0-201.6-163.2-364.8-364.8-364.8z m147.2 502.4c-12.8 12.8-32 16-44.8 3.2l-128-102.4c-6.4-6.4-12.8-16-12.8-25.6v-150.4c0-19.2 16-32 32-32s32 12.8 32 32V512l115.2 92.8c16 12.8 16 32 6.4 44.8z" fill="#333333" /></svg>