<?xml version="1.0" standalone="no"?><!DOCTYPE svg PUBLIC "-//W3C//DTD SVG 1.1//EN" "http://www.w3.org/Graphics/SVG/1.1/DTD/svg11.dtd"><svg class="icon" width="200px" height="200.00px" viewBox="0 0 1024 1024" version="1.1" xmlns="http://www.w3.org/2000/svg"><path d="M0 0h1024v1024H0z" fill="#CCCCCC" fill-opacity="0" /><path d="M544 153.6c198.4 0 358.4 160 358.4 358.4 0 198.4-160 358.4-358.4 358.4-198.4 0-358.4-160-358.4-358.4 0-198.4 160-358.4 358.4-358.4z m0 51.2c-169.6 0-307.2 137.6-307.2 307.2s137.6 307.2 307.2 307.2 307.2-137.6 307.2-307.2-137.6-307.2-307.2-307.2z m25.6 179.2c0-12.8-12.8-25.6-25.6-25.6s-25.6 12.8-25.6 25.6v118.4c0 12.8 6.4 25.6 16 35.2l86.4 86.4c9.6 9.6 25.6 9.6 35.2 0 9.6-9.6 9.6-25.6 0-35.2L576 508.8c-6.4-6.4-6.4-12.8-6.4-19.2V384z" fill="#CCCCCC" /></svg>