<?xml version="1.0" standalone="no"?><!DOCTYPE svg PUBLIC "-//W3C//DTD SVG 1.1//EN" "http://www.w3.org/Graphics/SVG/1.1/DTD/svg11.dtd"><svg class="icon" width="200px" height="200.00px" viewBox="0 0 1024 1024" version="1.1" xmlns="http://www.w3.org/2000/svg"><path d="M511.9992 511.9992m-376.959411 0a376.959411 376.959411 0 1 0 753.918822 0 376.959411 376.959411 0 1 0-753.918822 0Z" fill="#FFFFFF" /><path d="M437.439317 572.799105h95.99985l31.99995-97.919847h-96.959849z" fill="#FF4059" /><path d="M511.9992 0A511.9992 511.9992 0 0 0 80.959874 788.158769a1039.998375 1039.998375 0 0 1-31.99995 138.879783 39.359939 39.359939 0 0 0 27.839956 48.319924 37.119942 37.119942 0 0 0 20.479968 0 1028.798393 1028.798393 0 0 1 138.879783-31.99995A511.9992 511.9992 0 1 0 511.9992 0z m228.479643 657.598973h-146.559771l-28.479955 90.559858a39.679938 39.679938 0 0 1-37.759941 27.839957 38.079941 38.079941 0 0 1-11.839982-1.919997 39.679938 39.679938 0 0 1-25.59996-49.599923l21.759966-66.879895h-107.199832l-28.479956 90.559858a39.359939 39.359939 0 0 1-37.439941 27.839957 36.799943 36.799943 0 0 1-11.839982-1.919997 39.359939 39.359939 0 0 1-25.59996-49.599923l21.119967-66.879895h-54.399915a39.359939 39.359939 0 0 1 0-78.719877h79.359876l34.559946-110.079828H268.159581a39.679938 39.679938 0 1 1-2.239996-79.039877h141.119779l36.159944-114.239821a39.359939 39.359939 0 0 1 75.199882 23.679963l-28.799955 90.559858h106.559834l36.159943-114.239821a39.359939 39.359939 0 0 1 74.879883 23.679963l-88.319862 279.679563h121.59981a39.359939 39.359939 0 1 1 0 78.719877z m15.999975-188.799705a39.679938 39.679938 0 1 1 0-79.039877 39.679938 39.679938 0 0 1 0 79.039877z" fill="#FF4059" /></svg>