<?xml version="1.0" standalone="no"?><!DOCTYPE svg PUBLIC "-//W3C//DTD SVG 1.1//EN" "http://www.w3.org/Graphics/SVG/1.1/DTD/svg11.dtd"><svg class="icon" width="200px" height="200.00px" viewBox="0 0 1024 1024" version="1.1" xmlns="http://www.w3.org/2000/svg"><path d="M0.810059 0.767424h1023.232576v1023.232576h-1023.232576z" fill="#CCCCCC" fill-opacity="0" /><path d="M425.025231 580.599217h110.850196l36.239487-115.113664h-110.850196l-36.239487 115.113664z" fill="#333333" /><path d="M512.426347 103.090682c-225.96386 0-407.161296 181.197435-407.161296 407.161296 0 78.874178 21.317345 153.484886 63.952036 219.568657-6.395204 38.371222-14.922142 74.610709-25.580814 110.850195-4.263469 17.053876 4.263469 34.107753 21.317345 38.371222 6.395204 2.131735 10.658673 2.131735 17.053876 0 36.239487-10.658673 72.478974-19.185611 110.850196-25.580815 189.724373 121.508868 441.269048 66.083771 562.777917-123.640602 121.508868-189.724373 66.083771-441.269048-123.640603-562.777917-66.083771-40.502956-142.826214-63.952036-219.568657-63.952036z m181.197435 524.406695h-117.245399l-23.44908 72.478974c-4.263469 12.790407-17.053876 21.317345-29.844283 21.317345-17.053876 0-31.976018-14.922142-31.976018-31.976018 0-4.263469 0-6.395204 2.131734-8.526938l17.053876-53.293363h-85.269381l-23.44908 72.478974c-4.263469 12.790407-17.053876 21.317345-29.844283 21.317345-4.263469 0-6.395204 0-8.526938-2.131734-17.053876-4.263469-25.580814-23.44908-21.317346-38.371222l17.053877-53.293363h-42.634691c-17.053876 0-31.976018-14.922142-31.976018-31.976018s14.922142-31.976018 31.976018-31.976018h63.952036l27.712549-87.401116h-91.664585c-17.053876 0-31.976018-14.922142-31.976018-31.976018s14.922142-31.976018 31.976018-31.976018h110.850196l27.712549-91.664585c6.395204-17.053876 23.44908-23.44908 40.502956-19.18561 14.922142 6.395204 23.44908 21.317345 19.18561 36.239487l-23.449079 72.478974h85.269381l27.712549-91.664585c6.395204-17.053876 23.44908-23.44908 40.502956-19.185611 14.922142 6.395204 23.44908 21.317345 19.185611 36.239487l-70.34724 221.700391h95.928054c17.053876 0 31.976018 14.922142 31.976018 31.976018 4.263469 23.44908-10.658673 38.371222-27.712549 38.371222z m12.790407-151.353152c-17.053876 0-31.976018-14.922142-31.976018-31.976018s14.922142-31.976018 31.976018-31.976018 31.976018 14.922142 31.976018 31.976018c0 19.185611-14.922142 31.976018-31.976018 31.976018z" fill="#333333" /></svg>