<?xml version="1.0" standalone="no"?><!DOCTYPE svg PUBLIC "-//W3C//DTD SVG 1.1//EN" "http://www.w3.org/Graphics/SVG/1.1/DTD/svg11.dtd"><svg class="icon" width="200px" height="200.00px" viewBox="0 0 1024 1024" version="1.1" xmlns="http://www.w3.org/2000/svg"><path d="M392.533333 256h244.622223V201.955556h-244.622223V256z m247.466667-113.777778c34.133333 0 62.577778 28.444444 62.577778 62.577778v48.355556h159.288889c19.911111 0 34.133333 14.222222 34.133333 34.133333s-14.222222 34.133333-34.133333 34.133333H824.888889v514.844445c0 34.133333-28.444444 62.577778-62.577778 62.577777H270.222222c-34.133333 0-62.577778-28.444444-62.577778-62.577777V321.422222H173.511111c-19.911111 0-34.133333-14.222222-34.133333-34.133333s14.222222-34.133333 34.133333-34.133333h156.444445V207.644444c0-34.133333 28.444444-62.577778 62.577777-62.577777h247.466667z m113.777778 176.355556H278.755556V824.888889h475.022222V318.577778z m-329.955556 76.8c17.066667 0 31.288889 14.222222 31.288889 31.288889v244.622222c0 17.066667-14.222222 31.288889-31.288889 31.288889-17.066667 0-31.288889-14.222222-31.288889-31.288889V426.666667c0-17.066667 14.222222-31.288889 31.288889-31.288889z m184.888889 0c17.066667 0 31.288889 14.222222 31.288889 31.288889v244.622222c0 17.066667-14.222222 31.288889-31.288889 31.288889-17.066667 0-31.288889-14.222222-31.288889-31.288889V426.666667c0-17.066667 14.222222-31.288889 31.288889-31.288889z" fill="#333333" /></svg>