<?xml version="1.0" standalone="no"?><!DOCTYPE svg PUBLIC "-//W3C//DTD SVG 1.1//EN" "http://www.w3.org/Graphics/SVG/1.1/DTD/svg11.dtd"><svg class="icon" width="200px" height="200.00px" viewBox="0 0 1024 1024" version="1.1" xmlns="http://www.w3.org/2000/svg"><path d="M0 0h1024v1024H0z" fill-opacity="0" /><path d="M512 716.014933c14.506667 0 25.6 11.093333 25.6 25.6v119.466667c0 14.506667-11.093333 25.6-25.6 25.6s-25.6-11.093333-25.6-25.6v-119.466667c0-13.653333 11.946667-25.6 25.6-25.6z" fill="#FFFFFF" /><path d="M516.266667 747.588267c-9.386667 0-18.773333-0.853333-28.16-1.706667-135.68-13.653333-243.2-121.173333-256.853334-256.853333-1.706667-13.653333 8.533333-26.453333 23.04-28.16 13.653333-1.706667 26.453333 8.533333 28.16 23.04 11.093333 110.933333 99.84 199.68 210.773334 210.773333 128.853333 12.8 244.906667-81.92 257.706666-210.773333 1.706667-13.653333 13.653333-23.893333 28.16-23.04 13.653333 1.706667 24.746667 13.653333 23.04 28.16-15.36 147.626667-140.8 258.56-285.866666 258.56z" fill="#FFFFFF" /><path d="M515.8912 631.466667c-84.48 0-153.6-69.12-153.6-153.6V324.266667c0-84.48 69.12-153.6 153.6-153.6s153.6 69.12 153.6 153.6v153.6c0 84.48-69.12 153.6-153.6 153.6z m0-409.6c-56.32 0-102.4 46.08-102.4 102.4v153.6c0 56.32 46.08 102.4 102.4 102.4s102.4-46.08 102.4-102.4V324.266667c0-56.32-46.08-102.4-102.4-102.4z" fill="#FFFFFF" /><path d="M516.266667 281.668267c33.28 0 59.733333 26.453333 59.733333 59.733333v128c0 33.28-26.453333 59.733333-59.733333 59.733333s-59.733333-26.453333-59.733334-59.733333v-128c0-33.28 26.453333-59.733333 59.733334-59.733333zM678.4 891.733333h-324.266667c-14.506667 0-25.6-11.093333-25.6-25.6s11.093333-25.6 25.6-25.6h324.266667c14.506667 0 25.6 11.093333 25.6 25.6s-11.093333 25.6-25.6 25.6z" fill="#FFFFFF" /></svg>