<?xml version="1.0" standalone="no"?><!DOCTYPE svg PUBLIC "-//W3C//DTD SVG 1.1//EN" "http://www.w3.org/Graphics/SVG/1.1/DTD/svg11.dtd"><svg class="icon" width="200px" height="200.00px" viewBox="0 0 1024 1024" version="1.1" xmlns="http://www.w3.org/2000/svg"><path d="M0 0h1024v1024H0z" fill-opacity="0" /><path d="M512 861.866667c-183.466667 0-332.8-149.333333-332.8-332.8s149.333333-332.8 332.8-332.8 332.8 149.333333 332.8 332.8-149.333333 332.8-332.8 332.8z m0-614.4c-155.306667 0-281.6 126.293333-281.6 281.6s126.293333 281.6 281.6 281.6 281.6-126.293333 281.6-281.6-126.293333-281.6-281.6-281.6z" fill="#FFFFFF" /><path d="M516.0192 605.6192c-14.506667 0-25.6-11.093333-25.6-25.6v-221.866667c0-14.506667 11.093333-25.6 25.6-25.6s25.6 11.093333 25.6 25.6v221.866667c0 14.506667-11.093333 25.6-25.6 25.6z" fill="#FFFFFF" /><path d="M511.752533 669.6192m-34.133333 0a34.133333 34.133333 0 1 0 68.266667 0 34.133333 34.133333 0 1 0-68.266667 0Z" fill="#FFFFFF" /></svg>