<?xml version="1.0" standalone="no"?><!DOCTYPE svg PUBLIC "-//W3C//DTD SVG 1.1//EN" "http://www.w3.org/Graphics/SVG/1.1/DTD/svg11.dtd"><svg class="icon" width="200px" height="200.00px" viewBox="0 0 1024 1024" version="1.1" xmlns="http://www.w3.org/2000/svg"><path d="M0 0h1024v1024H0z" fill-opacity="0" /><path d="M750.933333 788.48c-14.506667 0-25.6-11.093333-25.6-25.6V398.506667c0-98.986667-80.213333-179.2-179.2-179.2-47.786667 0-93.013333 18.773333-127.146666 52.906666s-52.906667 79.36-52.906667 127.146667v364.373333c0 14.506667-11.093333 25.6-25.6 25.6s-25.6-11.093333-25.6-25.6V399.36c0-61.44 23.893333-119.466667 67.413333-162.986667 43.52-43.52 101.546667-67.413333 162.986667-67.413333 127.146667 0 230.4 103.253333 230.4 230.4v364.373333c0.853333 12.8-10.24 24.746667-24.746667 24.746667z" fill="#FFFFFF" /><path d="M341.333333 810.666667c-6.826667 0-12.8-2.56-17.92-7.68l-128-128c-10.24-10.24-10.24-26.453333 0-35.84 10.24-10.24 26.453333-10.24 35.84 0L341.333333 749.226667l110.08-110.08c10.24-10.24 26.453333-10.24 35.84 0 10.24 10.24 10.24 26.453333 0 35.84l-128 128c-5.12 5.12-11.093333 7.68-17.92 7.68z" fill="#FFFFFF" /></svg>