<?xml version="1.0" standalone="no"?><!DOCTYPE svg PUBLIC "-//W3C//DTD SVG 1.1//EN" "http://www.w3.org/Graphics/SVG/1.1/DTD/svg11.dtd"><svg class="icon" width="200px" height="200.00px" viewBox="0 0 1024 1024" version="1.1" xmlns="http://www.w3.org/2000/svg"><path d="M0.457029 0.255936h1023.744064v1023.744064h-1023.744064z" fill="#F4F4F4" fill-opacity="0" /><path d="M656.750098 638.267862c-7.312458 0-12.796801-1.828114-18.281144-7.312458-10.968686-10.968686-12.796801-27.421716-1.828114-38.390402 42.046631-47.530974 38.390402-122.483665-9.140572-164.530296-10.968686-10.968686-12.796801-27.421716-1.828115-38.390403 10.968686-10.968686 27.421716-12.796801 38.390403-1.828114 69.468347 63.984004 74.95269 171.842754 12.796801 243.139215-5.484343 5.484343-12.796801 7.312458-20.109259 7.312458zM523.297747 508.471739v-235.826757l-193.780126 120.65555h-120.655551v235.826758h120.655551l193.780126 120.65555v-241.311101z" fill="#333333" /><path d="M523.297747 777.204556c-5.484343 0-10.968686-1.828114-14.624915-3.656229l-186.467669-116.999321h-113.343093c-14.624915 0-27.421716-12.796801-27.421716-27.421716v-235.826758c0-14.624915 12.796801-27.421716 27.421716-27.421716h113.343093l186.467669-116.999322c9.140572-5.484343 18.281144-5.484343 27.421716 0s14.624915 14.624915 14.624915 23.765488v477.137858c0 9.140572-5.484343 18.281144-14.624915 23.765487-3.656229 3.656229-7.312458 3.656229-12.796801 3.656229z m-285.185846-175.498982h93.233834c5.484343 0 10.968686 1.828114 14.624915 3.656228l151.733495 95.061949v-378.419681l-151.733495 95.061949c-3.656229 1.828114-9.140572 3.656229-14.624915 3.656229h-93.233834v180.983326zM717.077873 740.642268c-7.312458 0-16.45303-3.656229-21.937372-9.140572-9.140572-10.968686-7.312458-29.24983 3.656228-38.390402 10.968686-9.140572 21.937373-20.109258 31.077945-31.077945 40.218517-49.359089 60.327775-111.514978 54.843432-173.670868-5.484343-63.984004-36.562288-120.65555-84.093262-160.874067-10.968686-9.140572-12.796801-27.421716-3.656229-38.390403 9.140572-10.968686 27.421716-12.796801 38.390402-3.656229 60.327775 49.359089 96.890063 120.65555 104.202521 197.436356 7.312458 78.608919-16.45303 153.56161-65.812118 213.889384-10.968686 14.624915-23.765487 27.421716-38.390403 38.390403-5.484343 3.656229-10.968686 5.484343-18.281144 5.484343z" fill="#333333" /></svg>