<?xml version="1.0" standalone="no"?><!DOCTYPE svg PUBLIC "-//W3C//DTD SVG 1.1//EN" "http://www.w3.org/Graphics/SVG/1.1/DTD/svg11.dtd"><svg class="icon" width="200px" height="200.00px" viewBox="0 0 1024 1024" version="1.1" xmlns="http://www.w3.org/2000/svg"><path d="M0 0h1024v1024H0z" fill="#CCCCCC" fill-opacity="0" /><path d="M691.2 720c-12.8 0-25.6-3.2-35.2-12.8-19.2-19.2-19.2-48 0-67.2l236.8-236.8c19.2-19.2 48-19.2 67.2 0s19.2 48 0 67.2L726.4 704c-9.6 9.6-22.4 16-35.2 16z" fill="#FFFFFF" /><path d="M928 720c-12.8 0-25.6-3.2-35.2-12.8l-236.8-236.8c-19.2-19.2-19.2-48 0-67.2s48-19.2 67.2 0L960 640c19.2 19.2 19.2 48 0 67.2-6.4 6.4-19.2 12.8-32 12.8zM544 908.8c-9.6 0-19.2-3.2-25.6-6.4l-243.2-153.6H128c-25.6 0-48-22.4-48-48v-313.6c0-25.6 22.4-48 48-48h147.2l243.2-153.6c16-9.6 32-9.6 48 0s25.6 25.6 25.6 41.6v633.6c0 16-9.6 32-25.6 41.6-6.4 6.4-16 6.4-22.4 6.4z m-368-256H288c9.6 0 19.2 3.2 25.6 6.4l182.4 115.2V316.8l-182.4 115.2c-6.4 3.2-16 6.4-25.6 6.4H176v214.4z" fill="#FFFFFF" /></svg>