<?xml version="1.0" standalone="no"?><!DOCTYPE svg PUBLIC "-//W3C//DTD SVG 1.1//EN" "http://www.w3.org/Graphics/SVG/1.1/DTD/svg11.dtd"><svg class="icon" width="200px" height="200.00px" viewBox="0 0 1024 1024" version="1.1" xmlns="http://www.w3.org/2000/svg"><path d="M0 0h1024v1024H0z" fill="#CCCCCC" fill-opacity="0" /><path d="M720 729.6c-12.8 0-22.4-3.2-32-12.8-19.2-19.2-22.4-48-3.2-67.2 51.2-57.6 48-150.4-9.6-201.6-19.2-19.2-22.4-48-3.2-67.2 19.2-19.2 48-22.4 67.2-3.2 96 89.6 105.6 240 19.2 339.2-12.8 6.4-25.6 12.8-38.4 12.8zM544 912c-9.6 0-19.2-3.2-25.6-6.4l-243.2-153.6H128c-25.6 0-48-22.4-48-48v-313.6c0-25.6 22.4-48 48-48h147.2l243.2-153.6c16-9.6 32-9.6 48 0s25.6 25.6 25.6 41.6V864c0 16-9.6 32-25.6 41.6-6.4 3.2-16 6.4-22.4 6.4z m-368-256H288c9.6 0 19.2 3.2 25.6 6.4l182.4 115.2V320l-182.4 115.2c-6.4 3.2-16 6.4-25.6 6.4H176v214.4z" fill="#FFFFFF" /><path d="M800 864c-12.8 0-28.8-6.4-38.4-16-16-19.2-12.8-51.2 6.4-67.2 12.8-12.8 28.8-25.6 38.4-38.4 51.2-64 76.8-140.8 70.4-220.8-6.4-80-44.8-153.6-108.8-204.8-19.2-16-22.4-48-6.4-67.2 16-19.2 48-22.4 67.2-6.4 169.6 140.8 192 393.6 51.2 563.2-16 19.2-32 35.2-51.2 51.2-6.4 0-16 6.4-28.8 6.4z" fill="#FFFFFF" /></svg>